<svg width="43" height="53" viewBox="0 0 43 53" fill="none" xmlns="http://www.w3.org/2000/svg"><path d="M40.214 24.298a2.832 2.832 0 00-2.18-.848l-11.752.548 5.421-6.168c.773-.878.993-2.05.695-3.096a2.81 2.81 0 00-1.26-1.787c-.021-.014-12.96-7.522-12.96-7.522a2.828 2.828 0 00-3.299.334l-6.32 5.632a2.82 2.82 0 00-.228 3.984 2.827 2.827 0 003.99.228l4.79-4.27 3.962 2.298-6.992 7.954a14.413 14.413 0 00-7.556 3.732l3.651 3.647a9.26 9.26 0 016.244-2.414c5.122 0 9.29 4.163 9.29 9.28a9.238 9.238 0 01-2.417 6.236l3.651 3.647a14.369 14.369 0 003.925-9.884c0-2.279-.53-4.434-1.471-6.351l5.713-.213-.928 11.366a2.823 2.823 0 002.82 3.052 2.824 2.824 0 002.812-2.593l1.191-14.593a2.82 2.82 0 00-.792-2.199z" fill="#67DACC" stroke="#17234C" stroke-width="2"/><path d="M39.545 5.722a4.722 4.722 0 11-9.443 0 4.722 4.722 0 019.443 0z" fill="#F4F6FF" stroke="#17234C" stroke-width="2"/><path d="M15.67 45.95c-5.123 0-9.29-4.163-9.29-9.28 0-1.928.592-3.72 1.604-5.206l-3.691-3.686A14.357 14.357 0 001.22 36.67c0 7.972 6.47 14.434 14.45 14.434 3.359 0 6.448-1.148 8.902-3.07l-3.69-3.686a9.246 9.246 0 01-5.213 1.602z" fill="#D7D8E0" stroke="#17234C" stroke-width="2"/></svg>