<svg width="40" height="49" viewBox="0 0 40 49" fill="none" xmlns="http://www.w3.org/2000/svg"><path d="M1.2 47.861V4.76h27.26l3.448 3.019 2.97 2.972v37.111H1.199z" fill="#D7D8E0" stroke="#17234C" stroke-width="2"/><path d="M4.955 44.103V1H29.83l8.804 8.81v34.293H4.954z" fill="#fff" stroke="#17234C" stroke-width="2"/><path fill="#00948C" d="M13 30.616h18v2H13zm0 4h18v2H13z"/><path d="M30 2.616v6.745h6.942L30 2.616z" fill="#D7D8E0"/><path d="M29.306.94v8.396a1 1 0 001 1h8.389" stroke="#17234C" stroke-width="2"/><path d="M24.67 13.424a3.012 3.012 0 01-3.018 3.027 3.023 3.023 0 01-3.03-3.027 3.023 3.023 0 013.03-3.027 3.012 3.012 0 013.017 3.027zM21.746 19.9C19.168 19.9 14 21.196 14 23.776v2.769h15.492v-2.769c0-2.58-5.168-3.876-7.746-3.876z" fill="#67DACC" stroke="#00948C" stroke-width="2"/></svg>