<svg width="42" height="53" viewBox="0 0 42 53" fill="none" xmlns="http://www.w3.org/2000/svg"><path d="M8.795 42.919l-6.95 1.772 8.235-16.898 10.996 5.367-8.235 16.898-2.884-6.572-.34-.777-.822.21z" fill="#67DACC" stroke="#17234C" stroke-width="2"/><path d="M32.839 42.919l6.95 1.772-8.236-16.898-10.996 5.367 8.236 16.898 2.883-6.572.34-.777.823.21z" fill="#67DACC" stroke="#17234C" stroke-width="2"/><path d="M36.657 17.28c0 8.991-7.284 16.279-16.266 16.279-8.983 0-16.266-7.288-16.266-16.28C4.125 8.288 11.408 1 20.39 1s16.266 7.288 16.266 16.28z" fill="#FFA681" stroke="#17234C" stroke-width="2"/><path d="M32.545 17.28c0 6.719-5.443 12.164-12.155 12.164-6.713 0-12.156-5.445-12.156-12.165 0-6.72 5.443-12.165 12.156-12.165 6.712 0 12.155 5.446 12.155 12.165z" fill="#fff" stroke="#17234C" stroke-width="2"/><path d="M17.746 23.253l-5.03-5.227 2.03-2.105 3 3.106 7.436-7.72 2.03 2.105-9.466 9.84z" fill="#00948C"/></svg>