<svg width="52" height="51" viewBox="0 0 52 51" fill="none" xmlns="http://www.w3.org/2000/svg"><path d="M15.18 49.617a2.286 2.286 0 01-2.286-2.286V25.307h4.572v22.024a2.286 2.286 0 01-2.286 2.286z" fill="#FF6D2F" stroke="#17234C" stroke-width="2"/><path d="M20 10.56l22-9.066v38.012L20 30.44V10.561z" fill="#F4F6FF" stroke="#17234C" stroke-width="2"/><mask id="a" fill="#fff"><rect x="9.077" y="9.273" width="12.206" height="22.551" rx="1"/></mask><rect x="9.077" y="9.273" width="12.206" height="22.551" rx="1" fill="#D7D8E0" stroke="#17234C" stroke-width="4" mask="url(#a)"/><mask id="b" fill="#fff"><rect x="5.321" y="12.092" width="5.633" height="16.914" rx="1"/></mask><rect x="5.321" y="12.092" width="5.633" height="16.914" rx="1" fill="#D7D8E0" stroke="#17234C" stroke-width="4" mask="url(#b)"/><path d="M1.345 20.548a3.715 3.715 0 013.714-3.714h1.138v7.43H5.06a3.715 3.715 0 01-3.714-3.716z" fill="#67DACC" stroke="#17234C" stroke-width="2"/><path d="M45.086 21.488h6.502M45 17.848l6.019-2.876M45 25.124L51.019 28" stroke="#00948C" stroke-width="2"/></svg>