<svg width="62" height="49" viewBox="0 0 62 49" fill="none" xmlns="http://www.w3.org/2000/svg"><path d="M49.646 24.277a7.49 7.49 0 007.499-7.517 7.49 7.49 0 00-7.5-7.517 7.51 7.51 0 00-7.523 7.517 7.51 7.51 0 007.524 7.517zm-37.434 0a7.49 7.49 0 007.499-7.517 7.49 7.49 0 00-7.5-7.517 7.51 7.51 0 00-7.523 7.517 7.51 7.51 0 007.524 7.517zm35.544 2.819c-4.376 0-13.145 2.382-13.145 7.126v8.848H59.9a1 1 0 001-1v-7.848c0-4.744-8.77-7.126-13.145-7.126zm-32.74 0c-4.375 0-13.145 2.382-13.145 7.126v7.848a1 1 0 001 1h24.29a1 1 0 001-1v-7.848c0-4.744-8.77-7.126-13.145-7.126z" fill="#D7D8E0" stroke="#17234C" stroke-width="2"/><path d="M30.932 20.518c5.204 0 9.373-4.197 9.373-9.396 0-5.2-4.17-9.396-9.373-9.396a9.388 9.388 0 00-9.405 9.396c0 5.2 4.2 9.396 9.405 9.396zm-.016 3.759c-5.313 0-15.961 2.932-15.961 8.77v13.721a1 1 0 001 1h29.923a1 1 0 001-1V33.047c0-5.838-10.649-8.77-15.962-8.77z" fill="#F5F6FA" stroke="#17234C" stroke-width="2"/><path d="M38.24 34.306l.001.001v-.001zm-4.61-.558l4.6.644-3.281 3.192-.381.371.094.523.835 4.643-4.169-2.225-.47-.252-.471.252-4.065 2.17.825-4.588.094-.523-.38-.37-3.293-3.204 4.518-.633.526-.074.234-.478 2.012-4.119 2.012 4.12.233.477.526.074zm1.84 9.388h.002-.002z" fill="#FF6D2F" stroke="#17234C" stroke-width="2"/></svg>