<svg width="52" height="45" viewBox="0 0 52 45" fill="none" xmlns="http://www.w3.org/2000/svg"><path d="M21.136 35h9.761l1.24 8.507h-12.24L21.136 35z" fill="#D7D8E0" stroke="#17234C" stroke-width="2"/><mask id="a" fill="#fff"><rect x=".76" width="50.514" height="35.987" rx="1"/></mask><rect x=".76" width="50.514" height="35.987" rx="1" fill="#D7D8E0" stroke="#17234C" stroke-width="4" mask="url(#a)"/><mask id="b" fill="#fff"><rect x=".76" width="50.514" height="29.132" rx="1"/></mask><rect x=".76" width="50.514" height="29.132" rx="1" fill="#fff" stroke="#17234C" stroke-width="4" mask="url(#b)"/><path d="M23.733 14.995c0 4.417-3.578 7.996-7.99 7.996-4.412 0-7.99-3.58-7.99-7.996 0-4.418 3.578-7.997 7.99-7.997 4.412 0 7.99 3.58 7.99 7.997z" fill="#F5F6FA" stroke="#00948C" stroke-width="2"/><path d="M14.258 19.14L10.9 15.81l1.355-1.34 2.003 1.978 4.964-4.917 1.355 1.34-6.319 6.268z" fill="#FF6D2F"/><path fill="#00948C" d="M28.158 10.282h16.267v1.714H28.158zm0 4.284h16.267v1.714H28.158zm0 4.284h16.267v1.714H28.158z"/><path d="M16.5 43.495a.5.5 0 01.5-.5h18a.5.5 0 010 1H17a.5.5 0 01-.5-.5z" fill="#17234C" stroke="#17234C"/><path fill="#192754" d="M23.877 30.846h4.281v1.714h-4.281z"/></svg>