<svg width="40" height="53" viewBox="0 0 40 53" fill="none" xmlns="http://www.w3.org/2000/svg"><path d="M1.2 8.517h37.434V51.62H1.199V8.517z" stroke="#192754" stroke-width="2"/><path fill="#00948C" d="M18.977 15.974h14.084v1.879H18.977zm0 3.758h14.084v1.879H18.977zm0 8.457h14.084v1.879H18.977zm0 12.216h14.084v1.879H18.977zm0-8.457h14.084v1.879H18.977zm0 12.215h14.084v1.879H18.977z"/><path fill="#FF6D2F" stroke="#192754" stroke-width="2" d="M6.833 16.034h6.45v6.457h-6.45z"/><path fill="#D7D8E0" stroke="#192754" stroke-width="2" d="M6.833 28.25h6.45v6.457h-6.45zm0 12.215h6.45v6.457h-6.45z"/><mask id="a" fill="#fff"><path fill-rule="evenodd" clip-rule="evenodd" d="M19.916 0a4.59 4.59 0 00-4.59 4.59v.108h-1.799a3 3 0 00-3 3v4.517h18.779V7.698a3 3 0 00-3-3h-1.8V4.59A4.59 4.59 0 0019.917 0z"/></mask><path fill-rule="evenodd" clip-rule="evenodd" d="M19.916 0a4.59 4.59 0 00-4.59 4.59v.108h-1.799a3 3 0 00-3 3v4.517h18.779V7.698a3 3 0 00-3-3h-1.8V4.59A4.59 4.59 0 0019.917 0z" fill="#D7D8E0"/><path d="M15.326 4.698v2h2v-2h-2zm-4.799 7.517h-2v2h2v-2zm18.779 0v2h2v-2h-2zm-4.8-7.517h-2v2h2v-2zm-7.18-.108A2.59 2.59 0 0119.916 2v-4a6.59 6.59 0 00-6.59 6.59h4zm0 .108V4.59h-4v.108h4zm-3.799 2h1.8v-4h-1.8v4zm-1 1a1 1 0 011-1v-4a5 5 0 00-5 5h4zm0 4.517V7.698h-4v4.517h4zm16.779-2H10.527v4h18.779v-4zm-2-2.517v4.517h4V7.698h-4zm-1-1a1 1 0 011 1h4a5 5 0 00-5-5v4zm-1.8 0h1.8v-4h-1.8v4zm-2-2.108v.108h4V4.59h-4zM19.917 2a2.59 2.59 0 012.59 2.59h4A6.59 6.59 0 0019.917-2v4z" fill="#192754" mask="url(#a)"/></svg>