<svg width="219" height="206" viewBox="0 0 219 206" fill="none" xmlns="http://www.w3.org/2000/svg"><path fill="#FFCC80" d="M113.065 144.963h22.889V206h-22.889z"/><path d="M113.065 150.686h22.889v20.981l-22.889-9.537v-11.444z" fill="#330B0B" fill-opacity=".2" style="mix-blend-mode:multiply"/><mask id="a" fill="#fff"><path fill-rule="evenodd" clip-rule="evenodd" d="M75.706 40.074c-24.255.683-43.708 20.56-43.708 44.982v63.518a2 2 0 002 2h41.708v.111h141.22a2 2 0 002-2V80.144c0-22.14-17.948-40.088-40.089-40.088H75.706v.018z"/></mask><path fill-rule="evenodd" clip-rule="evenodd" d="M75.706 40.074c-24.255.683-43.708 20.56-43.708 44.982v63.518a2 2 0 002 2h41.708v.111h141.22a2 2 0 002-2V80.144c0-22.14-17.948-40.088-40.089-40.088H75.706v.018z" fill="#55D5F1"/><path d="M75.706 40.074l.226 7.997 7.774-.22v-7.777h-8zm0 110.5h8v-8h-8v8zm0 .111h-8v8h8v-8zm103.131-110.63v8-8zm-71.03 0v-8 8zm-30.845 0v8h.006l-.006-8zm-1.256 0v-8h-8v8h8zm-35.708 45c0-20.078 15.995-36.423 35.934-36.984l-.451-15.994c-28.572.805-51.483 24.215-51.483 52.979h16zm0 63.519V85.056h-16v63.518h16zm-6-6a6 6 0 016 6h-16c0 5.523 4.477 10 10 10v-16zm41.708 0H33.998v16h41.708v-16zm8 8.111v-.111h-16v.111h16zm133.22-8H75.706v16h141.22v-16zm-6 6a6 6 0 016-6v16c5.523 0 10-4.477 10-10h-16zm0-68.541v68.541h16V80.144h-16zm-32.089-32.088c17.722 0 32.089 14.366 32.089 32.088h16c0-26.559-21.53-48.088-48.089-48.088v16zm-71.03 0h71.03v-16h-71.03v16zm-30.81 0h30.81v-16h-30.81v16zm-.029 0h.03v-16h-.042l.012 16zm-1.262 0h1.256v-16h-1.256v16zm8-7.982v-.018h-16v.018h16z" fill="#55D5F1" mask="url(#a)"/><path d="M39.63 81.542c0-19.226 15.584-34.81 34.81-34.81 19.225 0 34.81 15.584 34.81 34.81v63.421H40.63a1 1 0 01-1-1V81.542z" fill="#37899C"/><path d="M123.555 0h5.722v69.574a1 1 0 01-1 1h-3.722a1 1 0 01-1-1V0z" fill="#EE5C4A"/><path d="M123.555 0h36.194a1 1 0 011 1v19.935a1 1 0 01-1 1h-36.194V0z" fill="#EE5C4A"/><path fill-rule="evenodd" clip-rule="evenodd" d="M106.037 67a27.575 27.575 0 013.163 12v63H8V67h98.037z" fill="#F4F6FF"/><path d="M31.307 101.177l-2.332 6.768h-2.41l-2.343-6.768h2.016l1.537 4.887 1.526-4.887h2.006zm4.231 6.836a3.549 3.549 0 01-1.747-.442 3.416 3.416 0 01-1.267-1.238 3.524 3.524 0 01-.46-1.796c0-.665.153-1.26.46-1.785a3.323 3.323 0 011.267-1.239 3.548 3.548 0 011.747-.441c.64 0 1.223.147 1.748.441.53.295.95.708 1.257 1.239.307.525.46 1.12.46 1.785 0 .666-.153 1.264-.46 1.796a3.344 3.344 0 01-1.258 1.238 3.549 3.549 0 01-1.747.442zm0-1.748c.48 0 .858-.156 1.133-.47.282-.314.422-.733.422-1.258 0-.537-.14-.96-.422-1.267-.275-.313-.653-.47-1.133-.47-.486 0-.867.157-1.142.47-.275.307-.413.73-.413 1.267 0 .532.138.954.413 1.268.275.307.656.46 1.142.46zm9.81-5.088v1.498h-1.805v5.27H41.66v-5.27h-1.786v-1.498h5.472zm2.977 1.508v1.104h2.16v1.43h-2.16v1.219h2.448v1.507h-4.33v-6.768h4.33v1.508h-2.448zm10.335 1.785c.397.09.71.288.941.595.237.301.355.647.355 1.037 0 .576-.198 1.027-.595 1.354-.397.326-.953.489-1.67.489h-3.35v-6.768h3.244c.691 0 1.232.154 1.623.461.396.307.595.739.595 1.296 0 .397-.106.73-.317.999-.205.262-.48.441-.826.537zm-2.438-.605h.95c.474 0 .71-.195.71-.585 0-.403-.236-.605-.71-.605h-.95v1.19zm1.094 2.564c.474 0 .71-.199.71-.596 0-.204-.063-.361-.191-.47-.122-.109-.298-.163-.528-.163h-1.085v1.229h1.094zm10.019-5.252l-2.381 4.618v2.15h-1.891v-2.15l-2.381-4.618h2.15l1.19 2.612 1.191-2.612h2.122zm11.116 0v6.768h-1.882v-3.734l-1.277 3.734h-1.574l-1.287-3.763v3.763H70.55v-6.768h2.275l1.7 4.397 1.66-4.397h2.266zm5.752 5.664h-2.4l-.364 1.104H79.46l2.467-6.768h2.17l2.457 6.768h-1.987l-.365-1.104zm-.47-1.44l-.73-2.188-.72 2.188h1.45zm5.717-4.224v6.768h-1.882v-6.768h1.882zm3.353 5.328h2.103v1.44h-3.984v-6.768h1.881v5.328zM32.45 117.988c.72.163 1.288.522 1.705 1.079a2.95 2.95 0 01.644 1.879c0 1.044-.36 1.862-1.079 2.454-.719.591-1.728.887-3.027.887H24.62V112.02h5.881c1.253 0 2.233.279 2.94.835.72.557 1.08 1.34 1.08 2.349 0 .72-.192 1.323-.575 1.81-.37.476-.87.8-1.496.974zm-4.42-1.096h1.723c.858 0 1.288-.354 1.288-1.061 0-.731-.43-1.096-1.288-1.096H28.03v2.157zm1.984 4.646c.858 0 1.288-.36 1.288-1.079 0-.371-.116-.655-.348-.852-.22-.198-.54-.296-.957-.296H28.03v2.227h1.984zm15.04.748h-4.35l-.661 2.001h-3.584l4.471-12.267h3.933l4.454 12.267h-3.602l-.66-2.001zm-.852-2.61l-1.323-3.967-1.305 3.967h2.628zm10.637 2.001h3.81v2.61h-7.22V112.02h3.41v9.657zm9.547 0h3.81v2.61h-7.22V112.02h3.41v9.657zm12.018 2.732a6.43 6.43 0 01-3.167-.8 6.188 6.188 0 01-2.297-2.245c-.556-.963-.835-2.047-.835-3.254 0-1.206.279-2.285.835-3.236a6.012 6.012 0 012.297-2.245 6.43 6.43 0 013.167-.8c1.16 0 2.216.267 3.167.8a5.888 5.888 0 012.28 2.245c.556.951.834 2.03.834 3.236 0 1.207-.278 2.291-.835 3.254a6.057 6.057 0 01-2.28 2.245 6.43 6.43 0 01-3.166.8zm0-3.167c.87 0 1.554-.284 2.053-.852.51-.569.766-1.329.766-2.28 0-.974-.255-1.74-.766-2.297-.499-.568-1.183-.852-2.053-.852-.882 0-1.572.284-2.07.852-.5.557-.749 1.323-.749 2.297 0 .963.25 1.729.748 2.297.5.557 1.19.835 2.071.835zm18.054-9.222v2.715h-3.271v9.552h-3.41v-9.552H84.54v-2.715h9.918z" fill="#3A3ADA"/><path d="M44.504 86.15a.2.2 0 01.372 0l1.41 3.608a.2.2 0 00.174.127l3.867.224a.2.2 0 01.115.355l-2.996 2.455a.2.2 0 00-.067.205l.981 3.748a.2.2 0 01-.301.219l-3.26-2.092a.2.2 0 00-.217 0l-3.26 2.092a.2.2 0 01-.302-.22l.98-3.746a.2.2 0 00-.066-.205l-2.997-2.455a.2.2 0 01.115-.355l3.867-.224a.2.2 0 00.175-.127l1.409-3.609zm44.331 0a.2.2 0 01.373 0l1.409 3.608a.2.2 0 00.174.127l3.868.224a.2.2 0 01.115.355l-2.997 2.455a.2.2 0 00-.067.205l.982 3.748a.2.2 0 01-.302.219l-3.26-2.092a.2.2 0 00-.216 0l-3.261 2.092a.2.2 0 01-.302-.22l.982-3.747a.2.2 0 00-.067-.205l-2.997-2.455a.2.2 0 01.116-.355l3.867-.224a.2.2 0 00.175-.127l1.408-3.609zm-29.554 0a.2.2 0 01.373 0l1.408 3.608a.2.2 0 00.175.127l3.868.224a.2.2 0 01.115.355l-2.997 2.455a.2.2 0 00-.067.205l.982 3.748a.2.2 0 01-.302.219l-3.26-2.092a.2.2 0 00-.217 0l-3.26 2.092a.2.2 0 01-.302-.22l.982-3.747a.2.2 0 00-.067-.205l-2.997-2.455a.2.2 0 01.115-.355l3.868-.224a.2.2 0 00.175-.127l1.408-3.609zm-29.554 0a.2.2 0 01.373 0l1.409 3.608a.2.2 0 00.174.127l3.868.224a.2.2 0 01.115.355l-2.997 2.455a.2.2 0 00-.066.205l.981 3.748a.2.2 0 01-.302.219l-3.26-2.092a.2.2 0 00-.216 0l-3.261 2.092a.2.2 0 01-.302-.22l.982-3.747a.2.2 0 00-.067-.205l-2.997-2.455a.2.2 0 01.116-.355l3.867-.224a.2.2 0 00.175-.127l1.408-3.609zm44.331 0a.2.2 0 01.373 0l1.409 3.608a.2.2 0 00.174.127l3.868.224a.2.2 0 01.115.355L77 92.919a.2.2 0 00-.067.205l.982 3.748a.2.2 0 01-.301.219l-3.261-2.092a.2.2 0 00-.216 0l-3.261 2.092a.2.2 0 01-.301-.22l.981-3.747a.2.2 0 00-.067-.205l-2.996-2.455a.2.2 0 01.115-.355l3.867-.224a.2.2 0 00.175-.127l1.408-3.609z" fill="#EE5C4A"/><path fill="#37899C" d="M12.847 72H32v1.45H12.847zm-.001 3.625h19.153v1.45H12.846zm0 3.626h13.966v1.45H12.846z"/><circle cx="126.5" cy="70.5" r="8.5" fill="#EF4C30"/><circle cx="126.5" cy="70.5" r="4.5" fill="#B5321B"/><path d="M0 144a2 2 0 012-2h114v9H2a2 2 0 01-2-2v-5z" fill="#55D5F1"/></svg>