<svg width="50" height="51" viewBox="0 0 50 51" fill="none" xmlns="http://www.w3.org/2000/svg"><path d="M43.68 23.355a2.722 2.722 0 00-2.096-.816l-11.295.527 5.21-5.928c.743-.845.955-1.97.668-2.976a2.701 2.701 0 00-1.211-1.717c-.02-.014-12.456-7.23-12.456-7.23a2.718 2.718 0 00-3.171.32l-6.075 5.413a2.71 2.71 0 00-.22 3.83 2.718 2.718 0 003.835.219l4.606-4.104 3.807 2.209-6.72 7.645a13.854 13.854 0 00-7.263 3.587l3.51 3.506a8.9 8.9 0 016-2.321c4.924 0 8.93 4.001 8.93 8.92a8.88 8.88 0 01-2.323 5.994l3.51 3.506a13.811 13.811 0 003.772-9.5c0-2.191-.509-4.263-1.414-6.106l5.491-.204-.892 10.925a2.714 2.714 0 002.71 2.933c1.4 0 2.588-1.074 2.704-2.492l1.144-14.026a2.71 2.71 0 00-.761-2.114z" fill="#55D5F1" stroke="#192754" stroke-width="2"/><path d="M44 6a5 5 0 11-10 0 5 5 0 0110 0z" fill="#F4F6FF" stroke="#192754" stroke-width="2"/><path d="M20.088 44.166c-4.923 0-8.93-4-8.93-8.92 0-1.853.57-3.575 1.543-5.003l-3.548-3.544A13.8 13.8 0 006.2 35.247c0 7.662 6.218 13.873 13.888 13.873 3.23 0 6.198-1.104 8.557-2.95l-3.547-3.544a8.886 8.886 0 01-5.01 1.54z" fill="#D7D8E0" stroke="#192754" stroke-width="2"/></svg>