<svg xmlns="http://www.w3.org/2000/svg" id="Layer_1" width="50" height="50" viewBox="0 0 1250 1250"><defs><clipPath id="clippath"><circle cx="396.88" cy="752.08" r="200.28" class="cls-2"/></clipPath><style>.cls-2,.cls-3{fill:none}.cls-2{stroke:#17244c;stroke-width:29.85px;stroke-miterlimit:10}.cls-3,.cls-6,.cls-7{stroke-miterlimit:10;stroke-width:42.58px;stroke:#1c2854}.cls-6,.cls-7{stroke-width:12.27px}.cls-6{fill:#ef5d4b}.cls-7{fill:#fff}</style></defs><path d="M126.52 248.18 668.73 54.86l463.19 93.47 3.31 921.16-429.83 137.16-576.04-167.7-2.84-790.77Z" style="fill:#63cbe8"/><path d="m112.76 411.21 543.38-2 463.3 18.98-1.21-287.33-461.64-91.05-540.26 187.56-3.57 173.84z" style="fill:#d8d8e0"/><path d="m829.81 174.06 286.63 44.84" class="cls-3"/><path id="_Slice_" d="M689.31 1210.95h28.33v14.97h-28.33z" style="fill:none" transform="rotate(-88.83 703.407 1218.418)"/><path d="m813.63 264.63 274.14 32.19m-401.58 907.47L668.73 54.86m-.64 369.9-545.24 2.34m531.59.25 469.26-1.36M747.75 76.7l1.51 354.27m355.01-229.16-69.18 238.18M851.97 165.56 749.26 430.97m97.55-252.08L747.8 87.98m366.04 135.69-97.07-90.33m-163.72 46.48 263.39 39.08" class="cls-3"/><path d="m1064.04 303.94-243.11-32.38 7.2-49.16 243.11 32.38-7.2 49.16z" style="fill:#1c2854"/><path d="M116.43 248.47 658.65 55.15l463.19 93.47 3.31 921.16c-146.39 40.12-292.78 80.24-439.17 120.37l-566.7-150.9-2.84-790.77Z" class="cls-3"/><g style="clip-path:url(#clippath)"><path d="m73.58 584.927 627.769 12.821-.936 45.83-627.77-12.82z" class="cls-7"/><path d="m72.634 630.749 627.77 12.82-.936 45.831-627.77-12.821z" class="cls-6"/><path d="m71.699 676.58 627.769 12.82-.936 45.831-627.77-12.82z" class="cls-7"/><path d="m70.763 722.411 627.77 12.821-.937 45.83-627.769-12.82z" class="cls-6"/><path d="m69.828 768.242 627.769 12.821-.936 45.83-627.77-12.82z" class="cls-7"/><path d="m68.902 814.074 627.77 12.82-.937 45.831-627.769-12.82zm5.613-274.978 627.77 12.821-.936 45.83-627.77-12.82z" class="cls-6"/><path d="M72.09 542.37h322.02v229.19H72.09z" style="stroke-width:12.27px;fill:#2b60aa;stroke:#1c2854;stroke-miterlimit:10" transform="rotate(1.17 233.971 659.252)"/><path d="m67.967 859.885 627.769 12.821-.936 45.83-627.77-12.82z" class="cls-7"/><path d="m67.031 905.716 627.77 12.821-.937 45.83-627.769-12.82z" class="cls-6"/><path d="m142.21 576.76-16.41-1.2-8.31-14.19-6.21 15.23-16.06 3.52 12.56 10.61-1.61 16.37 13.97-8.67 15.07 6.59-3.93-15.97 10.93-12.29zm-.37 65.48-16.4-1.2-8.31-14.19-6.21 15.23-16.07 3.53 12.57 10.6-1.61 16.37 13.97-8.67 15.07 6.59-3.93-15.97 10.92-12.29zm57.48-25.3-16.4-1.2-8.32-14.19-6.2 15.24-16.07 3.52 12.57 10.61-1.61 16.37 13.97-8.68 15.07 6.59-3.93-15.97 10.92-12.29zm-2.1 68.16-16.4-1.2-8.32-14.19-6.2 15.23-16.07 3.52 12.57 10.61-1.62 16.37 13.98-8.67 15.07 6.59-3.94-15.97 10.93-12.29zm-61.93 27.81-16.4-1.19-8.32-14.19-6.2 15.23-16.07 3.52 12.57 10.61-1.61 16.37 13.97-8.68 15.07 6.6-3.93-15.97 10.92-12.3zm126.72-131.6-16.4-1.2-8.32-14.19-6.2 15.24-16.07 3.52 12.57 10.61-1.62 16.37 13.98-8.68 15.07 6.59-3.93-15.97 10.92-12.29zm-.36 65.48-16.41-1.19-8.31-14.2-6.21 15.24-16.06 3.52 12.57 10.61-1.62 16.37 13.98-8.68 15.06 6.6-3.93-15.98 10.93-12.29zm57.48-25.3-16.41-1.19-8.31-14.19-6.21 15.23-16.06 3.52 12.56 10.61-1.61 16.37 13.97-8.67 15.07 6.59-3.93-15.97 10.93-12.3zm-2.1 68.16-16.41-1.2-8.31-14.19-6.21 15.24-16.07 3.52 12.57 10.61-1.61 16.37 13.97-8.68 15.07 6.59-3.93-15.97 10.93-12.29zm54.82-106.71-16.4-1.2-8.31-14.19-6.21 15.23-16.07 3.53 12.57 10.61-1.61 16.37 13.97-8.68 15.07 6.59-3.93-15.97 10.92-12.29zm3.18 66.17-16.4-1.19-8.32-14.19-6.2 15.23-16.07 3.52 12.57 10.61-1.62 16.37 13.98-8.67 15.07 6.59-3.93-15.97 10.92-12.3zm-1.46 71.41-16.41-1.2-8.31-14.19-6.21 15.23-16.06 3.52 12.57 10.61-1.62 16.37 13.98-8.67 15.06 6.59-3.93-15.97 10.93-12.29zm-118.47-3.05-16.41-1.2-8.31-14.19-6.21 15.23-16.06 3.53 12.57 10.6-1.62 16.37 13.98-8.67 15.06 6.59-3.93-15.97 10.93-12.29z" style="fill:#f4f5fb"/></g><circle cx="396.88" cy="752.08" r="200.28" class="cls-2"/></svg>
