<svg width="50" height="50" viewBox="0 0 50 50" fill="none" xmlns="http://www.w3.org/2000/svg"><path d="M5 17h40v31H5V17z" fill="#fff" stroke="#192754" stroke-width="2"/><path d="M47 13H3a1 1 0 00-1 1v5a1 1 0 001 1h44a1 1 0 001-1v-5a1 1 0 00-1-1z" fill="#EAECF5"/><path d="M37.65 6h-25.3a1 1 0 00-.624.22l-7.5 6c-.738.59-.32 1.78.625 1.78h40.298c.945 0 1.363-1.19.625-1.78l-7.5-6a1 1 0 00-.625-.22z" fill="#D7D8E0"/><path d="M9.414 7h31.172L48 14.414V20.5H2v-6.086L9.414 7z" stroke="#192754" stroke-width="2"/><path d="M15.293 10.04a.1.1 0 01.08-.04h18.814a.1.1 0 01.08.04l1.173 1.56a.1.1 0 01-.08.16H14.2a.1.1 0 01-.08-.16l1.173-1.56z" fill="#17234C"/><path stroke="#192754" stroke-width="2" d="M2 14.5h45"/><path d="M12.858 28.478a.2.2 0 01.372 0l1.2 3.075a.2.2 0 00.175.127l3.295.19a.2.2 0 01.115.355l-2.553 2.092a.2.2 0 00-.067.205l.837 3.193a.2.2 0 01-.302.22l-2.778-1.783a.2.2 0 00-.216 0l-2.778 1.782a.2.2 0 01-.302-.219l.837-3.193a.2.2 0 00-.067-.205l-2.553-2.092a.2.2 0 01.115-.354l3.295-.191a.2.2 0 00.174-.127l1.2-3.075z" fill="#EE5C4A"/><path d="M24.564 28.477a.2.2 0 01.372 0l1.2 3.075a.2.2 0 00.175.127l3.295.191a.2.2 0 01.115.355l-2.553 2.091a.2.2 0 00-.067.206l.837 3.193a.2.2 0 01-.302.219l-2.778-1.782a.2.2 0 00-.216 0l-2.778 1.782a.2.2 0 01-.302-.22l.837-3.192a.2.2 0 00-.067-.206l-2.553-2.091a.2.2 0 01.115-.355l3.295-.191a.2.2 0 00.174-.127l1.2-3.075z" fill="#004CB2"/><path d="M36.258 28.477a.2.2 0 01.372 0l1.2 3.075a.2.2 0 00.175.127l3.295.191a.2.2 0 01.116.355l-2.554 2.091a.2.2 0 00-.067.206l.837 3.193a.2.2 0 01-.302.219l-2.778-1.782a.2.2 0 00-.216 0l-2.778 1.782a.2.2 0 01-.302-.22l.837-3.192a.2.2 0 00-.067-.206l-2.553-2.091a.2.2 0 01.115-.355l3.295-.191a.2.2 0 00.175-.127l1.2-3.075z" fill="#EE5C4A"/><path d="M19 11V2.3a.3.3 0 01.3-.3h11.4a.3.3 0 01.3.3V11" stroke="#17234C" stroke-width="2"/><path fill="#fff" d="M20 3h10v7H20z"/></svg>