<svg width="50" height="51" viewBox="0 0 50 51" fill="none" xmlns="http://www.w3.org/2000/svg"><path d="M12.633 45.786v-21.52h4.43v21.52a2.214 2.214 0 01-4.43 0z" fill="#FF8374" stroke="#192754" stroke-width="2"/><path d="M19.584 10.333L40.06 1.52v37.065L19.584 29.77V10.333z" fill="#F4F6FF" stroke="#192754" stroke-width="2"/><mask id="a" fill="#fff"><rect x="8.878" y="9.07" width="11.939" height="22.058" rx="1"/></mask><rect x="8.878" y="9.07" width="11.939" height="22.058" rx="1" fill="#D7D8E0" stroke="#192754" stroke-width="4" mask="url(#a)"/><mask id="b" fill="#fff"><rect x="5.205" y="11.827" width="5.51" height="16.544" rx="1"/></mask><rect x="5.205" y="11.827" width="5.51" height="16.544" rx="1" fill="#D7D8E0" stroke="#192754" stroke-width="4" mask="url(#b)"/><path d="M4.949 16.487H6.04v7.224H4.949a3.612 3.612 0 010-7.224z" fill="#55D5F1" stroke="#192754" stroke-width="2"/><path d="M43.1 21.018h6.36m-6.444-3.56l5.887-2.813m-5.887 9.93l5.887 2.813" stroke="#004CB3" stroke-width="2"/></svg>