<svg xmlns="http://www.w3.org/2000/svg" width="50" height="51" fill="none" viewBox="0 0 50 51"><path fill="#FF8374" stroke="#192754" stroke-width="2" d="M12.633 45.786v-21.52h4.43v21.52a2.214 2.214 0 0 1-4.43 0z"/><path fill="#F4F6FF" stroke="#192754" stroke-width="2" d="M19.584 10.333 40.06 1.52v37.065L19.584 29.77V10.333z"/><mask id="a" fill="#fff"><rect width="11.939" height="22.058" x="8.878" y="9.07" rx="1"/></mask><rect width="11.939" height="22.058" x="8.878" y="9.07" fill="#D7D8E0" stroke="#192754" stroke-width="4" mask="url(#a)" rx="1"/><mask id="b" fill="#fff"><rect width="5.51" height="16.544" x="5.205" y="11.827" rx="1"/></mask><rect width="5.51" height="16.544" x="5.205" y="11.827" fill="#D7D8E0" stroke="#192754" stroke-width="4" mask="url(#b)" rx="1"/><path fill="#55D5F1" stroke="#192754" stroke-width="2" d="M4.949 16.487H6.04v7.224H4.949a3.612 3.612 0 0 1 0-7.224z"/><path stroke="#004CB3" stroke-width="2" d="M43.1 21.018h6.36m-6.444-3.56 5.887-2.813m-5.887 9.93 5.887 2.813"/></svg>