<svg xmlns="http://www.w3.org/2000/svg" width="50" height="50" fill="none" viewBox="0 0 50 50"><path fill="#fff" stroke="#192754" stroke-width="2" d="M7 49V1h27.73l.707-.707L34.73 1l9.823 9.83V49H7z"/><path fill="#D7D8E0" d="M35.1 2.775v7.751h7.752L35.1 2.776z"/><path stroke="#192754" stroke-width="2" d="M34.103 1.042v9.416a1 1 0 0 0 1 1h9.409"/><path fill="#F4F6FF" stroke="#004CB3" stroke-width="2" d="M33.849 25.373c0 5.983-4.846 10.831-10.822 10.831-5.977 0-10.823-4.848-10.823-10.83 0-5.984 4.846-10.832 10.822-10.832 5.977 0 10.823 4.848 10.823 10.831z"/><path stroke="#004CB3" stroke-linecap="round" stroke-width="2" d="m30.546 33.984 8.137 8.137"/><path fill="#EE5C4A" d="m21.078 30.833-4.418-4.38 1.783-1.764 2.635 2.603 6.532-6.47 1.782 1.765-8.314 8.246z"/></svg>