<svg xmlns="http://www.w3.org/2000/svg" id="Layer_1" width="50" height="50" viewBox="0 0 1250 1250"><defs><style>.cls-2{stroke:#1c2854}.cls-2,.cls-4{stroke-width:45.31px}.cls-2{fill:#fff}.cls-4{stroke:#17244c;fill:#d8d8e0}</style></defs><circle cx="472.11" cy="281.26" r="127.23" class="cls-4"/><path d="M472.11 455.57c-64.75 0-194.52 37.51-194.52 112.22v202.65c0 7.89 6.39 14.28 14.28 14.28h360.47c7.89 0 14.28-6.39 14.28-14.28V567.79c0-74.71-129.77-112.22-194.52-112.22Z" class="cls-4"/><path d="M128.65 713.48h992.69v449.46H128.65V713.48Z" class="cls-2"/><path d="M1046.44 571.42v131.64H798.91V571.42h247.53Z" style="stroke-width:45.31px;stroke:#1c2854;fill:#63cbe8"/><path d="M625.21 1062.81c69.06 0 124.39-55.66 124.39-124.6s-55.33-124.6-124.39-124.6-124.81 55.66-124.81 124.6 55.75 124.6 124.81 124.6Z" style="stroke:#17244c;fill:#ef5d4b;stroke-width:45.31px"/><circle cx="625" cy="937.76" r="48.25" class="cls-2"/></svg>