<svg xmlns="http://www.w3.org/2000/svg" id="Layer_1" width="50" height="50" viewBox="0 0 1250 1250"><defs><style>.cls-3{stroke-width:46.29px;fill:#d8d8e0;stroke:#17244c}</style></defs><path d="M881.54 93.06c-151.02 0-273.45 102.52-273.45 228.99 0 43.39 14.68 83.81 39.71 118.38l-21.36 114.26L736.5 515.9c42.08 22.13 91.69 35.12 145.04 35.12 151.02 0 273.45-102.52 273.45-228.98S1032.56 93.05 881.54 93.05Z" style="fill:#fff;stroke-width:46.29px;stroke:#1c2854"/><circle cx="881.54" cy="229.17" r="51.98" class="cls-3"/><path d="M881.54 323.88c-29.03 0-87.22 16.82-87.22 50.32v90.86a6.4 6.4 0 0 0 6.4 6.4h161.63a6.4 6.4 0 0 0 6.4-6.4V374.2c0-33.5-58.18-50.32-87.22-50.32Z" class="cls-3"/><path d="M331.21 351.37C365.65 413.68 400.08 476 434.52 538.3c-12.61 3.34-81.71 22.63-93.04 71.42-5.71 24.59 5.58 46.59 12.6 59.4 52.81 96.42 203.34 292.42 284.39 257.39 4.63-2 14.49-8.54 34.2-21.6 31.25-20.71 55.73-39.32 72-52.2 50.08 37.81 100.15 75.63 150.23 113.44-7.84 29.04-24.4 72.21-62.03 107.94-96.85 91.98-249.45 55.18-291.59 45.01-129.64-31.26-206.39-115.64-250.19-163.79-48.55-53.38-138.61-171.02-153-334.8-5.68-64.62-12.15-138.33 37.8-197.98 51.29-61.25 130.14-69.54 155.33-71.16Z" style="stroke-width:46.29px;stroke:#1c2854;fill:#63cbe8"/></svg>
