<svg width="50" height="50" viewBox="0 0 50 50" fill="none" xmlns="http://www.w3.org/2000/svg"><path d="M4 7.333h35v41H4v-41z" fill="#D7D8E0" stroke="#192754" stroke-width="2"/><path d="M7 4.333h35v41H7v-41z" fill="#D7D8E0" stroke="#192754" stroke-width="2"/><path d="M10 1h35v41H10V1z" fill="#fff" stroke="#192754" stroke-width="2"/><path fill="#004CB3" d="M26.275 8.187h13.562v2H26.275zm0 3.62h13.562v2H26.275zm0 7.143h13.562v2H26.275zm0 10.763h13.562v2H26.275zm0-7.143h13.562v2H26.275zm0 10.763h13.562v2H26.275z"/><path fill="#EE5C4A" stroke="#192754" stroke-width="2" d="M15.617 8.282h6.137v6.144h-6.137z"/><path fill="#D7D8E0" stroke="#192754" stroke-width="2" d="M15.617 19.045h6.137v6.144h-6.137zm0 10.763h6.137v6.144h-6.137z"/><path fill="#004CB3" d="M26.275 11.807h13.562v2H26.275z"/></svg>