<svg xmlns="http://www.w3.org/2000/svg" width="50" height="50" fill="none" viewBox="0 0 50 50"><path fill="#D7D8E0" stroke="#17234C" stroke-width="2" d="M40.51 23A5.482 5.482 0 0 0 46 17.5c0-3.043-2.442-5.5-5.49-5.5A5.497 5.497 0 0 0 35 17.5c0 3.043 2.46 5.5 5.51 5.5zm-32 0A5.482 5.482 0 0 0 14 17.5c0-3.043-2.442-5.5-5.49-5.5A5.497 5.497 0 0 0 3 17.5C3 20.543 5.46 23 8.51 23zm29.88 2.61c-3.35 0-10.067 1.825-10.067 5.458v8.776h19.133a1 1 0 0 0 1-1v-7.776c0-3.633-6.716-5.457-10.066-5.457zm-26.78 0c-3.35 0-10.066 1.825-10.066 5.458v7.776a1 1 0 0 0 1 1h18.133a1 1 0 0 0 1-1v-7.776c0-3.633-6.716-5.457-10.067-5.457z"/><path fill="#F4F6FF" stroke="#17234C" stroke-width="2" d="M24.613 20.08c4.441 0 8-3.582 8-8.02a7.99 7.99 0 0 0-8-8.018 8.012 8.012 0 0 0-8.026 8.019 8.012 8.012 0 0 0 8.026 8.019zm-.013 3.207c-4.535 0-13.623 2.627-13.623 7.859v14.191a1 1 0 0 0 1 1h25.244a1 1 0 0 0 1-1V31.146c0-5.232-9.088-7.859-13.622-7.859z"/><path fill="#EE5C4A" stroke="#17234C" stroke-width="2" d="m26.988 32.912 3.843.539-2.738 2.665-.381.37.094.523.698 3.88-3.484-1.86-.47-.25-.472.25-3.392 1.81.69-3.83.093-.523-.38-.37-2.75-2.675 3.77-.529.527-.073.234-.478 1.68-3.438 1.678 3.438.234.478.526.073z"/></svg>