<svg xmlns="http://www.w3.org/2000/svg" id="Layer_1" width="50" height="50" viewBox="0 0 1250 1250"><defs><style>.cls-2{stroke-width:33.71px;fill:#d8d8e0;stroke:#17244c}</style></defs><path d="M210.33 478.25c36.06 0 64.94-29.06 64.94-65.05s-28.89-65.05-64.94-65.05-65.16 29.06-65.16 65.05 29.11 65.05 65.16 65.05Zm1.19 47.74c-39.63 0-119.07 21.58-119.07 64.54v91.98c0 6.53 5.3 11.83 11.83 11.83h214.47c6.53 0 11.83-5.3 11.83-11.83v-91.98c0-42.97-79.43-64.54-119.06-64.54Z" class="cls-2"/><path d="M632.04 406.43c55.28 0 99.56-44.58 99.56-99.81s-44.29-99.81-99.56-99.81-99.9 44.58-99.9 99.81 44.62 99.81 99.9 99.81Zm-.17 39.92c-56.43 0-169.54 32.7-169.54 97.81v176.63c0 6.87 5.57 12.45 12.45 12.45h314.19c6.87 0 12.45-5.57 12.45-12.45V544.16c0-65.11-113.11-97.81-169.54-97.81Z" style="fill:#63cbe8;stroke:#000;stroke-width:33.71px"/><path d="M329.39 899.58c36.06 0 64.94-29.06 64.94-65.05s-28.89-65.05-64.94-65.05-65.16 29.06-65.16 65.05 29.11 65.05 65.16 65.05Zm1.2 47.73c-39.63 0-119.07 21.58-119.07 64.54v91.98c0 6.53 5.3 11.83 11.83 11.83h214.47c6.53 0 11.83-5.3 11.83-11.83v-91.98c0-42.97-79.43-64.54-119.06-64.54Zm706.69-465.38c36.06 0 64.94-29.06 64.94-65.05s-28.89-65.05-64.94-65.05-65.16 29.06-65.16 65.05 29.11 65.05 65.16 65.05Zm1.2 47.74c-39.63 0-119.07 21.58-119.07 64.54v91.98c0 6.53 5.3 11.83 11.83 11.83h214.47c6.53 0 11.83-5.3 11.83-11.83v-91.98c0-42.97-79.43-64.54-119.06-64.54ZM896.37 903.26c36.06 0 64.94-29.06 64.94-65.05s-28.89-65.05-64.94-65.05-65.16 29.06-65.16 65.05 29.11 65.05 65.16 65.05Zm1.19 47.74c-39.63 0-119.07 21.58-119.07 64.54v91.98c0 6.53 5.3 11.83 11.83 11.83h214.47c6.53 0 11.83-5.3 11.83-11.83v-91.98c0-42.97-79.43-64.54-119.06-64.54Z" class="cls-2"/></svg>
