<svg xmlns="http://www.w3.org/2000/svg" width="50" height="50" viewBox="0 0 1250 1250"><path d="M1072.26 44.26v1133.69c-272.57 2.19-545.15 4.39-817.72 6.58-8.57-.41-24.11-2.33-37.7-12.64-24.06-18.26-27.76-52.04-28.86-72.05-3.29-59.88-7.93-446.71-10.23-974.52 1.27-18.64 6.41-43.12 24.63-60.24 20.01-18.82 46.86-20.82 58.66-20.82h811.22Z" style="fill:#d8d8e0;stroke:#17244c;stroke-width:40.55px"/><path d="M1072.25 1184.53v-164.4H273.09s-75.35 13.7-73.07 82.2c2.28 68.49 61.65 82.2 61.65 82.2h810.58Z" style="fill:#fff;stroke-width:40.55px;stroke:#16244c"/><path d="M187.98 1102.33h884.27" style="stroke-width:40.55px;fill:none;stroke-miterlimit:10;stroke:#16244c"/><path d="m692.03 257.44 71.75 102.33-154.41 108.26-71.75-102.33 154.41-108.26Zm59.592-57.093 85.77 120.466a1.276 1.276 0 0 1-.301 1.785l-63.158 44.967-87.323-122.65 63.06-44.897a1.404 1.404 0 0 1 1.952.329ZM508.781 368.75l87.324 122.65-63.158 44.966a1.276 1.276 0 0 1-1.785-.3l-85.769-120.467a1.404 1.404 0 0 1 .329-1.952l63.06-44.897Zm209.394 28.831 231.243 324.79a.78.78 0 0 1-.183 1.088l-57.512 40.947a.781.781 0 0 1-1.088-.183l-231.243-324.79 58.783-41.852Z" style="fill:#63cbe8;stroke-width:40.55px;stroke:#1c2854"/><path d="M438.85 782.68h218.7v73.5h-218.7z" style="fill:#ef5d4b;stroke:#1b2954;stroke-width:40.55px"/><path d="m319.24 39.87 3.3 965.26" style="fill:#63cbe8;stroke:#16244c;stroke-width:40.68px"/></svg>
