<svg xmlns="http://www.w3.org/2000/svg" id="Layer_1" width="50" height="50" viewBox="0 0 1250 1250"><defs><style>.cls-3{stroke-width:34.12px;stroke-miterlimit:10;stroke:#17244c;fill:none}</style></defs><path d="M1010.65 249.82v906.6H225.02v-906.6h785.63Z" style="stroke:#1c2854;stroke-width:34.12px;fill:#fff"/><path d="M1010.65 249.83v105.33H225.02V249.83h785.63Z" style="stroke:#17244c;stroke-miterlimit:10;fill:#ef5d4b;stroke-width:34.12px"/><path d="M348.64 880.25h538.44M348.64 989.72h538.44" class="cls-3"/><path d="m929.06 240.54-71.69 77.17-114.61-106.47 71.69-77.17 114.61 106.47Zm92.62-61.59-71.69 77.17-150.81-140.1 71.69-77.17 150.81 140.1ZM892.15 352.53l-71.69 77.17-187.27-173.96 71.69-77.17 187.27 173.96Z" style="fill:#64cbe7;stroke-width:29.88px;stroke:#1c2854;stroke-miterlimit:10"/><path d="m641.04 460.79-23.19-21.54 91.77-98.8 23.19 21.54-91.77 98.8Z" style="fill:#1c2854"/><path d="M348.64 670.52h538.44M348.64 780h538.44M348.64 563.21h538.44" class="cls-3"/></svg>