<svg xmlns="http://www.w3.org/2000/svg" id="Layer_1" width="50" height="50" viewBox="0 0 1250 1250"><defs><style>.cls-4,.cls-6{stroke:#16244c}.cls-6,.cls-7{stroke-linejoin:round}.cls-6{fill:#d8d8e0;stroke-linecap:round}.cls-9{fill:#f4f5fb}.cls-6{stroke-width:25.93px}.cls-7{fill:#16244c;stroke:#63cbe8;stroke-width:33.69px}.cls-4{fill:#63cbe8;stroke-width:23.37px}.cls-11{fill:#ef5d4b;stroke:#17244c;stroke-miterlimit:10;stroke-width:25.7px}</style></defs><circle cx="292.93" cy="967.2" r="52.4" style="stroke:#1c2854;fill:#63cbe8;stroke-width:37.9px;stroke-linejoin:round"/><ellipse cx="292.93" cy="966.93" class="cls-4" rx="107.77" ry="110.03"/><ellipse cx="1007.16" cy="966.93" class="cls-4" rx="107.77" ry="110.03"/><circle cx="292.93" cy="967.2" r="68.09" class="cls-7"/><circle cx="1007.16" cy="967.2" r="68.09" class="cls-7"/><path d="M1178.3 241.28v705.45H70.98V624.66c41.71-46.53 83.42-93.05 125.13-139.58 32.26-80.03 64.52-160.05 96.77-240.08l885.42-3.72Z" class="cls-6"/><path d="M332.78 909.3h60.96v-89.88h-60.96" style="stroke-width:21.5px;stroke:#1c2854;fill:#fff"/><path d="M246.3 946.73v-83.62c-.45-32.72-.89-65.46-1.34-98.18 62.71 8.7 154.83 12.37 253.24-22.78 151.57-54.13 195.25-156.49 346.98-250.45 70.06-43.39 177.32-93.76 333.12-113.99v569.02h-932Z" style="fill:#2b60aa;stroke-width:24.84px;stroke:#16244c"/><path d="M653.71 794.6c94.95-58.06 129.67-123.16 250.86-186.99 104.96-55.28 205.17-72.94 273.72-79.19v418.32H246.3v-76.87c202.23 19.94 328.58-27.07 407.41-75.27Z" class="cls-11"/><path d="M794.49 841.8c67.15-52.95 130.4-96.2 159.35-114.19 46.79-29.07 119.24-64.07 225.18-81.74l-.72 300.86c-203.85.3-407.7.59-611.55.89 39.8-4.76 96.56-16.87 154.6-51.32 25.66-15.23 38-26.77 73.15-54.49Z" style="stroke-width:23.68px;fill:#2b60aa;stroke:#16244c"/><path d="m996.13 545.76-31.95-5.44-22.6 23.24-4.7-32.07-29.08-14.31 29.04-14.38 4.62-32.08 22.66 23.18 31.93-5.52-15.04 28.71 15.12 28.67zm120.38-42.78-31.52-7.54-24.08 21.7-2.57-32.31-28.08-16.19 29.94-12.44 6.72-31.7 21.08 24.62 32.23-3.39-16.91 27.65 13.19 29.6zM879.1 601.67l-32.4-.62-18.88 26.35-9.43-31.01-30.89-9.81 26.58-18.55-.22-32.41 25.86 19.54 30.76-10.22-10.6 30.63 19.22 26.1zm-99.13 71.51-30 6.81-11.4 28.58-15.75-26.43-30.7-2 20.26-23.15-7.58-29.82 28.28 12.12 26.02-16.42-2.79 30.64 23.66 19.67zm-106.09 89.09-30.22 2.1-15.39 26.09-11.34-28.09-29.57-6.58 23.21-19.46-2.88-30.16 25.69 16.06 27.79-12.06-7.34 29.39 20.05 22.71zm-116.71 61.92-28.79-6.26-21.49 20.16-2.94-29.32-25.82-14.2 26.98-11.85 5.53-28.94 19.61 21.99 29.23-3.69-14.85 25.45 12.54 26.66zm-132.95 33.39-26.77-12.31-25.32 15.07 3.44-29.27-22.16-19.42 28.89-5.77 11.63-27.08 14.42 25.7 29.34 2.69-19.98 21.65 6.51 28.74z" class="cls-9"/><path d="M961.59 860.34a529.223 529.223 0 0 1 72.75-44.68c54.12-27.48 104.59-41.36 143.92-48.69.01 59.92.03 119.84.04 179.76h-345l128.28-86.39Z" class="cls-11"/><path d="m1145.79 752.18-30.76-6.74-22.99 21.52-3.1-31.33-27.57-15.21 28.84-12.63 5.95-30.92 20.92 23.53 31.25-3.91-15.91 27.18 13.37 28.51zm-131.39 53.33-29.86 1.38-15.79 25.38-10.54-27.97-29.01-7.17 23.34-18.67-2.15-29.81 24.97 16.43 27.69-11.25-7.91 28.82 19.26 22.86zm-124.25 84.64-29.36 2.05-14.96 25.34-11.01-27.29-28.73-6.39 22.55-18.91-2.8-29.3 24.96 15.6 26.99-11.71-7.12 28.55 19.48 22.06z" class="cls-9"/><path d="M263.02 325.02h227.66v210.6L144.1 543.1l52-58.02 66.92-160.06z" style="stroke-width:25.93px;fill:#fff;stroke:#16244c"/><path d="M490.68 941.73V535.62" style="fill:#d8d8e0;stroke-linecap:round;stroke-linejoin:round;stroke:#16244c;stroke-width:25.74px"/><path d="M437.69 662.22h-66.32" class="cls-6"/></svg>