<svg xmlns="http://www.w3.org/2000/svg" width="50" height="50" fill="none" viewBox="0 0 50 50"><path fill="#fff" stroke="#192754" stroke-width="2" d="M10.175 42.025v.333l-.2.267-2.818 3.758.303 1.817H43a4 4 0 0 0 4-4V1H10.175v41.025z"/><path fill="#D7D8E0" stroke="#192754" stroke-width="2" d="M3 44.61a3.59 3.59 0 0 0 7.18 0v-8.76H3v8.76z"/><path fill="#004CB3" d="M16 33h26v-2H16zm10-12h16v-2H26zM16 39h26v-2H16zm10-12h16v-2H26z"/><path fill="#EE5C4A" stroke="#192754" stroke-width="2" d="M16 20h6v6h-6z"/><path fill="#55D5F1" stroke="#192754" stroke-width="2" d="M16 7h25v7H16z"/></svg>