<svg xmlns="http://www.w3.org/2000/svg" width="50" height="50" fill="none" viewBox="0 0 50 50"><path fill="#D7D8E0" stroke="#192754" stroke-width="2" d="M6 49V4.846h25.488l9.022 9.03V49H6z"/><path fill="#fff" stroke="#192754" stroke-width="2" d="M9.843 45.154V1h25.488l9.022 9.03v35.124H9.843z"/><path fill="#EE5C4A" d="M20.276 15.806a3.563 3.563 0 0 0 3.568-3.576 3.563 3.563 0 0 0-3.568-3.576 3.573 3.573 0 0 0-3.579 3.576 3.573 3.573 0 0 0 3.58 3.576zm.097 1.449c-1.92 0-5.765 1.088-5.765 3.253v2.132h11.53v-2.132c0-2.165-3.847-3.253-5.765-3.253zm-.097 16.573a3.563 3.563 0 0 0 3.568-3.577 3.563 3.563 0 0 0-3.568-3.576 3.573 3.573 0 0 0-3.579 3.576 3.573 3.573 0 0 0 3.58 3.577zm.097 1.448c-1.92 0-5.765 1.088-5.765 3.253v2.132h11.53V38.53c0-2.165-3.847-3.253-5.765-3.253z"/><path fill="#D7D8E0" d="m35.688 2.266-.204 7.265h7.103l-6.899-7.265z"/><path stroke="#192754" stroke-width="2" d="M34.785.962v8.615a1 1 0 0 0 1 1h8.608"/><path fill="#004CB3" d="M29.02 32.692h10.569v1.923H29.02zm0-17.307h10.569v1.923H29.02zm0 13.461h10.569v1.923H29.02zm0 7.692h10.569v1.923H29.02zm0-17.307h10.569v1.923H29.02z"/></svg>