<svg width="47" height="49" viewBox="0 0 47 49" fill="none" xmlns="http://www.w3.org/2000/svg"><path d="M38.512 19.771c0 10.368-8.398 18.772-18.756 18.772S1 30.139 1 19.772C1 9.403 9.398 1 19.756 1s18.756 8.404 18.756 18.771z" fill="#F4F6FF" stroke="#17234C" stroke-width="2"/><path d="M27.418 17.052c0 .842-.309 2.02-.882 3.434-.565 1.393-1.347 2.923-2.208 4.44-1.705 3.006-3.678 5.887-4.76 7.414-1.082-1.527-3.055-4.408-4.76-7.413-.861-1.518-1.643-3.048-2.207-4.44-.574-1.416-.883-2.593-.883-3.435 0-4.578 3.553-8.219 7.85-8.219s7.85 3.641 7.85 8.22z" fill="#EE5C4A" stroke="#17234C" stroke-width="2"/><path d="M22.108 16.871a2.72 2.72 0 01-2.719 2.722 2.72 2.72 0 01-2.718-2.722 2.72 2.72 0 012.718-2.721 2.72 2.72 0 012.719 2.721z" fill="#B7BCCE" stroke="#17234C" stroke-width="2"/><path d="M32.179 33.944L45.224 47" stroke="#17234C" stroke-width="4"/></svg>