<svg xmlns="http://www.w3.org/2000/svg" id="Layer_1" width="50" height="50" viewBox="0 0 1250 1250"><defs><style>.cls-4,.cls-5{stroke-width:39.59px;stroke:#1b2954}.cls-5{fill:#d8d8e0}.cls-4{fill:#ef5d4b}</style></defs><circle cx="631.06" cy="246.98" r="158.7" class="cls-5"/><path d="M631.06 464.4c-80.76 0-242.62 46.79-242.62 139.97v252.76c0 9.84 7.97 17.81 17.81 17.81h449.62c9.84 0 17.81-7.97 17.81-17.81V604.37c0-93.19-161.86-139.97-242.62-139.97Z" class="cls-5"/><path d="M633.62 833.23c-60.93-23.04-197.98-64.3-349.64-15.48-38.24 12.31-71.16 28.34-98.81 44.91l-84.87 275.3a971.651 971.651 0 0 1 99.85-20.79c172.12-26.49 322.86-2.19 433.48 28.88 84.21-27.02 210.73-54.83 362.26-40.67 58.56 5.47 110.87 16.28 155.97 28.88-32.79-99.52-65.57-199.02-98.36-298.54-32.09-14.15-71.23-27.64-116.78-35.93-133.84-24.36-245.37 10.26-303.1 33.45Z" style="fill:#fff;stroke:#1c2854;stroke-width:39.59px"/><path d="M631.06 851.21v267.16" style="fill:#d8d8e0;stroke:#1b2954;stroke-width:39.59px;stroke-linecap:round;stroke-linejoin:round"/><path d="M686.12 610.82v134.81H576V610.82h110.12Z" class="cls-4"/><path d="M263 915.07h241.87M263 988.81h241.87m247.88-73.74h241.87m-241.87 73.74h241.87" style="fill:none;stroke:#1566af;stroke-miterlimit:10;stroke-width:39.59px"/><path d="M576 610.82V464.4m110.12 146.42V469.83" class="cls-4"/></svg>