<svg xmlns="http://www.w3.org/2000/svg" width="50" height="50" fill="none" viewBox="0 0 50 50"><path fill="#55D5F1" d="M9.5 29.5 41 29l7 15H2l7.5-14.5z"/><path fill="#D7D8E0" d="M2 45h46v4H2z"/><path fill="#fff" d="M17 29h14.5l8 16H9l8-16z"/><path stroke="#17234C" stroke-width="2" d="M10.038 28.506h29.924L49 45.678V49H1v-3.322l9.038-17.172z"/><path fill="#EE5C4A" stroke="#17234C" stroke-width="2" d="M36 13.657c0 1.273-.478 3.017-1.32 5.055-.832 2.013-1.977 4.215-3.217 6.372-2.465 4.286-5.265 8.318-6.613 10.206-1.35-1.888-4.149-5.92-6.613-10.206-1.24-2.157-2.385-4.359-3.217-6.372-.842-2.038-1.32-3.782-1.32-5.055C13.7 7.18 18.73 2 24.85 2S36 7.18 36 13.657z"/><path fill="#fff" stroke="#17234C" stroke-width="2" d="M28.71 13.408c0 2.27-1.84 4.11-4.106 4.11a4.107 4.107 0 0 1-4.105-4.11 4.107 4.107 0 0 1 4.105-4.109 4.107 4.107 0 0 1 4.105 4.11z"/><path stroke="#17234C" stroke-width="2" d="M1 45h48m-39 0 8-16m22 16-8-16"/></svg>