<svg xmlns="http://www.w3.org/2000/svg" id="Layer_1" width="50" height="50" viewBox="0 0 1250 1250"><defs><style>.cls-3{fill:none;stroke:#17244c;stroke-width:50.11px}</style></defs><path d="M92.4 277.48v791.81l392.53-59.09c122.37 19.69 244.74 39.4 367.12 59.09 99.97-12.8 199.94-25.61 299.91-38.41V206.57c-94.32 27.58-188.65 55.15-282.97 82.73l-389.71-67.95c-128.96 18.71-257.92 37.43-386.88 56.14Z" style="fill:#d8d8e0"/><path d="M92.4 277.48v791.81l392.53-59.09c122.37 19.69 244.74 39.4 367.12 59.09 99.97-12.8 199.94-25.61 299.91-38.41V206.57c-94.32 27.58-188.65 55.15-282.97 82.73l-389.71-67.95c-128.96 18.71-257.92 37.43-386.88 56.14Z" class="cls-3"/><path d="m648.15 247.69-29.79 194.96L472.69 573.2l171.89 248.34 245.31-205.52h262.07l-9.42-405.51-263.94 76.61-230.45-39.43z" style="stroke:#17244c;fill:#ef5d4b;stroke-width:45.41px"/><path d="m92.4 1062.96 380.29-57.25 55.51 5.11 107.79-189.83-163.3-240.87L92.4 676.59v386.37z" style="fill:#63cbe8;stroke:#16244c;stroke-width:45.57px"/><path d="M114.37 423.72 301.1 355l122.71 68.72 179.15 125.16 164.43 289.59 142.34 66.27 206.15-54 41.72-22.08" style="stroke-width:45.57px;fill:none;stroke:#fff;stroke-dasharray:0 77.87;stroke-miterlimit:10"/><path d="M92.4 277.48v791.81l392.53-59.09c122.37 19.69 244.74 39.4 367.12 59.09 99.97-12.8 199.94-25.61 299.91-38.41V206.57c-94.32 27.58-188.65 55.15-282.97 82.73l-389.71-67.95c-128.96 18.71-257.92 37.43-386.88 56.14Z" class="cls-3"/></svg>
