<svg width="51" height="50" viewBox="0 0 51 50" fill="none" xmlns="http://www.w3.org/2000/svg"><path d="M9.417 8.971v-.333l-.2-.267-2.623-3.499.27-1.624h28.222a4 4 0 014 4v40.1H9.416V8.971z" fill="#fff" stroke="#192754" stroke-width="2"/><path d="M17.505 42.586l-3.33-3.362 1.344-1.354 1.986 1.998 4.923-4.966 1.344 1.355-6.267 6.329z" fill="#004CB3"/><path d="M9.39 6.643v8.051H2.6v-8.05a3.395 3.395 0 116.79 0z" fill="#D7D8E0" stroke="#192754" stroke-width="2"/><path fill="#004CB3" d="M25.691 38.744h8.637v1.921h-8.637zm-11.516-8.643h20.153v1.921H14.175zm0-4.803h20.153v1.921H14.175zm0-4.802h20.153v1.921H14.175zm0-4.802h20.153v1.921H14.175zm0-4.802h20.153v1.921H14.175z"/><path fill="#55D5F1" stroke="#192754" stroke-width="2" d="M44.925 10.932h4.718v25.852h-4.718z"/><path d="M44.925 36.863h4.718v4.42l-2.36 3.035-2.358-3.036v-4.42z" fill="#fff" stroke="#192754" stroke-width="2"/><path d="M49.642 8.488v3.325h-4.717V8.488a2.359 2.359 0 014.718 0z" fill="#EE5C4A" stroke="#192754" stroke-width="2"/></svg>