<svg xmlns="http://www.w3.org/2000/svg" width="50" height="50" viewBox="0 0 1250 1250"><path d="M159.95 76.36h930.1V1165.9h-930.1V76.36Z" style="stroke:#1c2854;stroke-width:46.07px;fill:#fff"/><path d="M333.3 269.88h163.09v163.27H333.3V269.88Zm0 286.01h163.09v163.27H333.3V555.89Zm0 286.02h163.09v163.27H333.3V841.91Zm391.15-575.59h163.09v163.27H724.45V266.32Zm0 286.02h163.09v163.27H724.45V552.34Zm0 286.02h163.09v163.27H724.45V838.36Z" style="stroke:#1c2854;stroke-width:46.07px;fill:#d8d8e0"/><path d="m421.46 399.4-69.64-69.04 28.1-27.81 41.54 41.03L524.41 241.6l28.1 27.81L421.46 399.4Zm0 286.02-69.64-69.04 28.1-27.81 41.54 41.03 102.95-101.98 28.1 27.81-131.05 129.99Zm0 286.02-69.64-69.04 28.1-27.81 41.54 41.03 102.95-101.98 28.1 27.81-131.05 129.99Z" style="fill:#ef5d4b"/></svg>