<svg width="50" height="49" viewBox="0 0 50 49" fill="none" xmlns="http://www.w3.org/2000/svg"><path d="M48.944 17.183v29.819H2.041v-29.82L25.492 1.21l23.451 15.973z" fill="#55D5F1" stroke="#192754" stroke-width="2"/><path d="M7.91 6.878h35.165v14.689L25.493 32.14 7.91 21.567V6.877z" fill="#fff" stroke="#192754" stroke-width="2"/><path fill="#004CB3" d="M21.7 10.776h16.627v1.959H21.7zm0 4.898h16.627v1.959H21.7zm0 4.898h16.627v1.959H21.7zm0 4.898h12.943l-3.274 1.96H21.7v-1.96z"/><path fill="#EE5C4A" stroke="#EE5C4A" stroke-width="2" d="M12.8 11.776h4.846v4.857H12.8z"/><path d="M12.8 21.572h4.846v5.858H12.8v-5.858z" fill="#D8DAE2" stroke="#192754" stroke-width="2"/><path d="M24.977 32.205l.516.31.515-.31 22.936-13.784v26.58a2 2 0 01-2 2H2.041v-28.58l22.935 13.784z" fill="#F4F6FF" stroke="#192754" stroke-width="2"/><path d="M48.965 18.123L2.51 46.533m45.967 0L1.531 18.122" stroke="#192754" stroke-width="2"/></svg>