<svg xmlns="http://www.w3.org/2000/svg" id="Layer_1" width="50" height="50" viewBox="0 0 1250 1250"><defs><style>.cls-2,.cls-3{stroke-miterlimit:10}.cls-2,.cls-3,.cls-5{stroke-width:47.53px}.cls-2,.cls-3{fill:none}.cls-2{stroke:#0298ba}.cls-3{stroke:#ef392f;stroke-linecap:square}.cls-5{fill:#d8d8e0;stroke:#17244c}</style></defs><circle cx="950.04" cy="752.29" r="78.61" class="cls-5"/><path d="M950.04 875.61c-40 0-120.18 23.18-120.18 69.34v125.21c0 4.87 3.95 8.82 8.82 8.82h222.72c4.87 0 8.82-3.95 8.82-8.82V944.95c0-46.16-80.18-69.34-120.18-69.34Z" class="cls-5"/><path d="M194.38 680.04c45.44 26.56 90.88 53.12 136.31 79.67l216.28-307.26 198.25 44.69c82.27-97.69 164.53-195.39 246.8-293.08" style="stroke:#ef5d4b;stroke-linecap:square;fill:none;stroke-width:47.53px;stroke-miterlimit:10"/><circle cx="549.74" cy="452.45" r="17.01" class="cls-3"/><circle cx="751.37" cy="493.39" r="17.01" class="cls-3"/><circle cx="992.02" cy="204.06" r="17.01" class="cls-3"/><circle cx="329.36" cy="759.71" r="17.01" class="cls-3"/><path d="m297.41 600.55 293.04 186.47 79.92-115.82 126.54 9.84 163.17-245.61" style="fill:none;stroke-width:47.53px;stroke-miterlimit:10;stroke:#00ace1"/><circle cx="295.34" cy="603.86" r="17.01" class="cls-2"/><circle cx="588.25" cy="793.73" r="17.01" class="cls-2"/><circle cx="673.26" cy="674.43" r="17.01" class="cls-2"/><circle cx="960.08" cy="435.44" r="17.01" class="cls-2"/><path d="M71.6 81.41h1105.26v1105.26H71.6V81.41Z" style="stroke:#1c2854;stroke-width:50.58px;fill:none"/><circle cx="177.37" cy="674.43" r="17.01" class="cls-3"/><circle cx="467.15" cy="714.09" r="17.01" class="cls-2"/></svg>
