<svg width="48" height="57" viewBox="0 0 48 57" fill="none" xmlns="http://www.w3.org/2000/svg"><path d="M12.162 43.56l-6.95 1.772 8.235-16.898L24.443 33.8l-8.236 16.898-2.883-6.572-.34-.777-.822.21z" fill="#55D5F1" stroke="#192754" stroke-width="2"/><path d="M36.205 43.56l6.95 1.772-8.235-16.898L23.924 33.8l8.235 16.898 2.884-6.572.34-.777.822.21z" fill="#55D5F1" stroke="#192754" stroke-width="2"/><path d="M40.024 17.92c0 8.992-7.284 16.28-16.267 16.28-8.982 0-16.266-7.288-16.266-16.28S14.775 1.64 23.758 1.64c8.982 0 16.266 7.288 16.266 16.28z" fill="#FF8374" stroke="#192754" stroke-width="2"/><path d="M35.911 17.92c0 6.72-5.442 12.165-12.155 12.165-6.712 0-12.155-5.446-12.155-12.165 0-6.72 5.443-12.166 12.155-12.166 6.713 0 12.155 5.446 12.155 12.166z" fill="#F4F6FF" stroke="#192754" stroke-width="2"/><path d="M21.113 23.893l-5.03-5.226 2.03-2.106 3 3.106 7.436-7.72 2.03 2.105-9.466 9.841z" fill="#004CB3"/></svg>