<svg width="40" height="50" viewBox="0 0 40 50" fill="none" xmlns="http://www.w3.org/2000/svg"><path d="M1.2 48.245V5.144h27.26l3.448 3.019 2.97 2.972v37.112H1.199z" fill="#D7D8E0" stroke="#192754" stroke-width="2"/><path d="M4.955 44.487V1.384H29.83l8.804 8.81v34.293H4.955z" fill="#fff" stroke="#192754" stroke-width="2"/><path fill="#004CB3" d="M13 31h18v2H13zm0 4h18v2H13z"/><path d="M30 3v6.745h6.942L30 3z" fill="#D7D8E0"/><path d="M29.306 1.324V9.72a1 1 0 001 1h8.389" stroke="#192754" stroke-width="2"/><path d="M24.669 13.808a3.012 3.012 0 01-3.017 3.027 3.023 3.023 0 01-3.03-3.027 3.023 3.023 0 013.03-3.027 3.012 3.012 0 013.017 3.027zm-2.923 6.476c-2.578 0-7.746 1.296-7.746 3.877v2.768h15.492v-2.768c0-2.58-5.168-3.877-7.746-3.877z" fill="#55D5F1" stroke="#004CB3" stroke-width="2"/></svg>