<svg width="62" height="49" viewBox="0 0 62 49" fill="none" xmlns="http://www.w3.org/2000/svg"><path d="M49.646 23.551a7.49 7.49 0 007.499-7.517 7.49 7.49 0 00-7.5-7.517 7.51 7.51 0 00-7.523 7.517 7.51 7.51 0 007.524 7.517zm-37.434 0a7.49 7.49 0 007.499-7.517 7.49 7.49 0 00-7.5-7.517 7.51 7.51 0 00-7.523 7.517 7.51 7.51 0 007.524 7.517zm35.544 2.819c-4.376 0-13.145 2.382-13.145 7.126v8.848H59.9a1 1 0 001-1v-7.848c0-4.744-8.77-7.126-13.145-7.126zm-32.74 0c-4.375 0-13.145 2.382-13.145 7.126v7.848a1 1 0 001 1h24.29a1 1 0 001-1v-7.848c0-4.744-8.77-7.126-13.145-7.126z" fill="#D7D8E0" stroke="#192754" stroke-width="2"/><path d="M30.932 19.793c5.204 0 9.373-4.197 9.373-9.397 0-5.199-4.17-9.396-9.373-9.396a9.388 9.388 0 00-9.405 9.396c0 5.2 4.2 9.397 9.405 9.397zm-.016 3.758c-5.313 0-15.961 2.932-15.961 8.77v13.721a1 1 0 001 1h29.923a1 1 0 001-1v-13.72c0-5.839-10.649-8.77-15.962-8.77z" fill="#F4F6FF" stroke="#192754" stroke-width="2"/><path d="M38.24 33.58l.001.002v-.002zm-4.61-.558l4.6.645-3.281 3.192-.381.37.094.524.835 4.642-4.169-2.225-.47-.251-.471.251-4.065 2.17.825-4.587.094-.523-.38-.371-3.293-3.204 4.518-.633.526-.074.234-.477 2.012-4.12 2.012 4.12.233.477.526.074zm1.84 9.389h.002-.002z" fill="#EE5C4A" stroke="#192754" stroke-width="2"/></svg>