<svg width="48" height="48" viewBox="0 0 48 48" fill="none" xmlns="http://www.w3.org/2000/svg"><mask id="a" fill="#fff"><rect x=".441" y="4.952" width="46.946" height="42.188" rx="1"/></mask><rect x=".441" y="4.952" width="46.946" height="42.188" rx="1" fill="#fff" stroke="#192754" stroke-width="4" mask="url(#a)"/><path d="M1.441 5.952h44.946v7.588H1.441V5.952z" fill="#55D5F1" stroke="#192754" stroke-width="2"/><path fill="#D7D8E0" stroke="#192754" stroke-width="2" d="M5.273 17.458h5.665v5.671H5.273z"/><path fill="#F4F6FF" stroke="#192754" stroke-width="2" d="M5.273 27.045h5.665v5.671H5.273z"/><path fill="#D7D8E0" stroke="#192754" stroke-width="2" d="M5.273 36.633h5.665v5.671H5.273z"/><path fill="#F4F6FF" stroke="#192754" stroke-width="2" d="M15.813 17.458h5.665v5.671h-5.665z"/><path fill="#fff" stroke="#192754" stroke-width="2" d="M15.813 27.045h5.665v5.671h-5.665z"/><path fill="#EE5C4A" stroke="#192754" stroke-width="2" d="M15.813 36.633h5.665v5.671h-5.665z"/><path fill="#F4F6FF" stroke="#192754" stroke-width="2" d="M26.352 17.458h5.665v5.671h-5.665z"/><path fill="#D7D8E0" stroke="#192754" stroke-width="2" d="M26.352 27.045h5.665v5.671h-5.665zm10.537-9.587h5.665v5.671h-5.665z"/><path fill="#F4F6FF" stroke="#192754" stroke-width="2" d="M36.889 27.045h5.665v5.671h-5.665z"/><rect x="8.148" y="1.158" width="3.748" height="8.547" rx="1.874" fill="#F4F6FF" stroke="#192754" stroke-width="2"/><rect x="34.975" y="1.158" width="3.748" height="8.547" rx="1.874" fill="#F4F6FF" stroke="#192754" stroke-width="2"/></svg>