<svg width="40" height="49" viewBox="0 0 40 49" fill="none" xmlns="http://www.w3.org/2000/svg"><path d="M1.394 47.861V4.76h27.26l3.448 3.019 2.97 2.972v37.111H1.394z" fill="#D7D8E0" stroke="#192754" stroke-width="2"/><path d="M5.15 44.103V1h24.874l8.804 8.81v34.293H5.149z" fill="#fff" stroke="#192754" stroke-width="2"/><path fill="#004CB3" d="M13.863 24.248V13.912h1.878v10.336zm3.755-.001V13.911h1.878v10.336zm3.756 0V13.91h1.878v10.336zm3.756.001V13.912h1.878v10.336z"/><path d="M14.5 22l10.643-8.1 1.357 1.882-10.777 8.468L14.5 22zm-.637 16.342V28.006h1.878v10.336zm3.756 0V28.006h1.878v10.336zm3.755 0V28.006h1.878v10.336z" fill="#004CB3"/><path d="M30.394 2.782l-.2 6.745h6.942l-6.742-6.745z" fill="#D7D8E0"/><path d="M29.5.94v8.396a1 1 0 001 1h8.39" stroke="#192754" stroke-width="2"/></svg>