<svg width="51" height="53" viewBox="0 0 51 53" fill="none" xmlns="http://www.w3.org/2000/svg"><path d="M41.915 21.599c0 11.237-9.102 20.345-20.329 20.345-11.226 0-20.328-9.108-20.328-20.345 0-11.237 9.102-20.345 20.328-20.345 11.227 0 20.329 9.108 20.329 20.345z" fill="#F4F6FF" stroke="#192754" stroke-width="2"/><path d="M29.937 18.663c0 .933-.344 2.232-.975 3.78-.621 1.524-1.48 3.198-2.423 4.852-1.866 3.276-4.014 6.402-5.156 8.01-1.142-1.608-3.29-4.734-5.156-8.01-.942-1.654-1.801-3.328-2.422-4.852-.631-1.549-.976-2.847-.976-3.78 0-4.983 3.868-8.952 8.554-8.952s8.554 3.969 8.554 8.952z" fill="#EE5C4A" stroke="#192754" stroke-width="2"/><path d="M24.205 18.468a3.016 3.016 0 01-3.015 3.017 3.016 3.016 0 01-3.014-3.017 3.016 3.016 0 013.014-3.018 3.016 3.016 0 013.015 3.018z" fill="#D7D8E0" stroke="#192754" stroke-width="2"/><path d="M34.998 36.9L49.08 50.995" stroke="#192754" stroke-width="4"/></svg>