<svg width="40" height="53" viewBox="0 0 40 53" fill="none" xmlns="http://www.w3.org/2000/svg"><path d="M1.49 8.831h37.435v43.103H1.491V8.831z" stroke="#192754" stroke-width="2"/><path fill="#004CB3" d="M17.391 31.322h16.901v1.879H17.391zm0 9.397h16.901v1.879H17.391zm0-5.638h16.901v1.879H17.391z"/><path fill="#EE5C4A" stroke="#192754" stroke-width="2" d="M7.124 31.383h5.511V36.9H7.124z"/><path fill="#D7D8E0" stroke="#192754" stroke-width="2" d="M7.124 40.779h5.511v5.517H7.124z"/><path fill="#004CB3" d="M17.391 44.477h16.901v1.879H17.391z"/><mask id="a" fill="#fff"><path fill-rule="evenodd" clip-rule="evenodd" d="M20.208.314a4.59 4.59 0 00-4.59 4.59v.108h-1.8a3 3 0 00-3 3v4.518h18.78V8.012a3 3 0 00-3-3h-1.8v-.108a4.59 4.59 0 00-4.59-4.59z"/></mask><path fill-rule="evenodd" clip-rule="evenodd" d="M20.208.314a4.59 4.59 0 00-4.59 4.59v.108h-1.8a3 3 0 00-3 3v4.518h18.78V8.012a3 3 0 00-3-3h-1.8v-.108a4.59 4.59 0 00-4.59-4.59z" fill="#D7D8E0"/><path d="M15.618 5.012v2h2v-2h-2zm-4.8 7.518h-2v2h2v-2zm18.78 0v2h2v-2h-2zm-4.8-7.518h-2v2h2v-2zm-7.18-.108a2.59 2.59 0 012.59-2.59v-4a6.59 6.59 0 00-6.59 6.59h4zm0 .108v-.108h-4v.108h4zm-3.8 2h1.8v-4h-1.8v4zm-1 1a1 1 0 011-1v-4a5 5 0 00-5 5h4zm0 4.518V8.012h-4v4.518h4zm16.78-2h-18.78v4h18.78v-4zm-2-2.518v4.518h4V8.012h-4zm-1-1a1 1 0 011 1h4a5 5 0 00-5-5v4zm-1.8 0h1.8v-4h-1.8v4zm-2-2.108v.108h4v-.108h-4zm-2.59-2.59a2.59 2.59 0 012.59 2.59h4a6.59 6.59 0 00-6.59-6.59v4z" fill="#192754" mask="url(#a)"/><path d="M12.24 21.838a12.381 12.381 0 01-.24-.36 15.403 15.403 0 012.025-2.349c1.531-1.444 3.636-2.78 6.152-2.78 2.515 0 4.62 1.336 6.152 2.78a15.397 15.397 0 012.041 2.373 11.953 11.953 0 01-1.792 2.3c-1.406 1.405-3.506 2.762-6.401 2.762-2.705 0-4.808-1.347-6.278-2.772a13.545 13.545 0 01-1.658-1.954z" fill="#F4F6FF" stroke="#192754" stroke-width="2"/><path d="M22.025 21.456a1.85 1.85 0 11-1.848-1.85 1.85 1.85 0 011.848 1.85z" fill="#004CB3" stroke="#0043AE" stroke-width="2"/></svg>