<svg width="36" height="51" viewBox="0 0 36 51" fill="none" xmlns="http://www.w3.org/2000/svg"><path d="M1.271 12.276h33.68V49.74H1.27V12.276z" fill="#F4F6FF" stroke="#192754" stroke-width="2"/><path fill="#55D5F1" stroke="#192754" stroke-width="2" d="M15.355 37.646h6.45v12.095h-6.45z"/><path d="M18.172 1h7.572l2.236 2.289-2.236 2.289h-7.572V1z" fill="#EE5C4A" stroke="#192754" stroke-width="2"/><path d="M18.171 1.746v10" stroke="#192754" stroke-width="2"/><path fill="#D7D8E0" stroke="#192754" stroke-width="2" d="M6.905 17.914h4.572v4.578H6.905zm0 10.336h4.572v4.578H6.905zm0 9.396h4.572v4.578H6.905zm9.389-19.732h4.572v4.578h-4.572zm9.389 0h4.572v4.578h-4.572zm0 10.336h4.572v4.578h-4.572zm0 9.396h4.572v4.578h-4.572zm-9.389-9.396h4.572v4.578h-4.572z"/></svg>