<svg width="50" height="50" viewBox="0 0 50 50" fill="none" xmlns="http://www.w3.org/2000/svg"><path d="M6.2 49V4.846h27.927l3.536 3.096 3.046 3.049v38.01H6.2z" fill="#D7D8E0" stroke="#192754" stroke-width="2"/><path d="M10.042 45.154V1H35.53l9.022 9.03v35.124h-34.51z" fill="#fff" stroke="#192754" stroke-width="2"/><path fill="#004CB3" d="M18.298 31.329h18.419v2.047H18.298zm0 4.094h18.419v2.047H18.298z"/><path d="M35.694 2.55v7.03h7.104l-7.104-7.03z" fill="#D7D8E0"/><path d="M34.984.962v8.615a1 1 0 001 1h8.608" stroke="#192754" stroke-width="2"/><path d="M30.263 13.736a3.106 3.106 0 01-3.111 3.121 3.117 3.117 0 01-3.125-3.12 3.117 3.117 0 013.125-3.121 3.105 3.105 0 013.11 3.12zm-3.015 6.628c-2.638 0-7.927 1.326-7.927 3.966v2.834h15.854V24.33c0-2.64-5.288-3.966-7.927-3.966z" fill="#55D5F1" stroke="#004CB3" stroke-width="2"/></svg>