<svg width="50" height="50" viewBox="0 0 50 50" fill="none" xmlns="http://www.w3.org/2000/svg"><path d="M45 11.705v12.898a21 21 0 01-10.146 17.978L24.5 48.83l-10.354-6.25A21 21 0 014 24.603V11.705l20.5-10.58L45 11.705z" fill="#55D5F1" stroke="#192754" stroke-width="2"/><path d="M41 14.676v9.12a18 18 0 01-8.814 15.48L24.5 43.837l-7.686-4.56A18 18 0 018 23.796v-9.121l16.5-8.842L41 14.676z" fill="#F4F6FF" stroke="#192754" stroke-width="2"/><path d="M32.992 22.117a1.28 1.28 0 00-.022-.11l-.02-.002-5.308-.735-.525-.073-.234-.475-2.33-4.714-.003-.001a.269.269 0 00-.127 0l-2.33 4.715-.234.475-.525.073-5.236.725a.278.278 0 00-.077.045c.009.014.021.03.037.046l3.815 3.67.387.372-.096.528-.956 5.253-.005.033-.002.004 13.791-9.83zm0 0l-3.783 3.64-.386.371.096.528.955 5.253.005.03 3.113-9.822z" fill="#EE5C4A" stroke="#192754" stroke-width="2"/></svg>