<svg width="40" height="49" viewBox="0 0 40 49" fill="none" xmlns="http://www.w3.org/2000/svg"><path d="M1.21 47.861V4.76h24.876l8.803 8.81v34.292H1.21z" fill="#D7D8E0" stroke="#192754" stroke-width="2"/><path d="M4.966 44.103V1h24.875l8.804 8.81v34.293H4.966z" fill="#fff" stroke="#192754" stroke-width="2"/><path d="M15.139 15.446a3.482 3.482 0 003.486-3.495 3.482 3.482 0 00-3.486-3.494 3.492 3.492 0 00-3.498 3.494 3.492 3.492 0 003.498 3.495zm.094 1.416c-1.875 0-5.633 1.063-5.633 3.18v2.082h11.267v-2.083c0-2.116-3.759-3.179-5.634-3.179zm-.094 16.195a3.482 3.482 0 003.486-3.495 3.482 3.482 0 00-3.486-3.494 3.492 3.492 0 00-3.498 3.494 3.492 3.492 0 003.498 3.495zm.094 1.416c-1.875 0-5.633 1.063-5.633 3.18v2.082h11.267v-2.083c0-2.116-3.759-3.179-5.634-3.179z" fill="#EE5C4A"/><path d="M30.2 2.214l-.2 7.1h6.942l-6.742-7.1z" fill="#D7D8E0"/><path d="M29.317.94v8.396a1 1 0 001 1h8.389" stroke="#192754" stroke-width="2"/><path fill="#004CB3" d="M23.683 31.948h10.328v1.879H23.683zm0-16.914h10.328v1.879H23.683zm0 13.155h10.328v1.879H23.683zm0 7.517h10.328v1.879H23.683zm0-16.913h10.328v1.879H23.683z"/></svg>