<svg width="51" height="49" viewBox="0 0 51 49" fill="none" xmlns="http://www.w3.org/2000/svg"><path fill-rule="evenodd" clip-rule="evenodd" d="M25.64 2.94c-4.851.363-15.498 3.345-19.281 12.36-3.784 9.017-4.487 19.753-4.366 23.995 1.577 1.09 5.894 3.344 10.55 3.635 4.657.291 10.671.121 13.097 0 2.425.121 8.44.291 13.096 0 4.657-.29 8.974-2.545 10.55-3.635.121-4.242-.582-14.978-4.365-23.994C41.137 6.285 30.49 3.303 25.64 2.94z" fill="#EE5C4A"/><path d="M6.359 15.3l-.923-.386.923.387zm19.28-12.36l.075-.997-.074-.006-.075.006.075.997zM1.994 39.295l-1 .028.015.506.416.288.57-.822zm10.55 3.635l.062-.998-.062.998zm13.097 0l.05-.998-.05-.003-.05.002.05 1zm13.096 0l-.062-.998.062.998zm10.55-3.635l.57.822.415-.288.015-.506-1-.028zM44.921 15.3l.922-.387-.922.387zm-37.64.386c1.772-4.224 5.168-7.073 8.774-8.922 3.611-1.85 7.354-2.655 9.66-2.828l-.15-1.994C23.02 2.133 19.014 3 15.143 4.986c-3.876 1.987-7.696 5.136-9.707 9.928l1.845.774zm-4.288 23.58c-.12-4.158.578-14.74 4.288-23.58l-1.845-.773C1.58 24.106.87 34.998.993 39.324l2-.058zm9.612 2.665c-4.42-.276-8.563-2.436-10.043-3.46l-1.138 1.645c1.673 1.158 6.163 3.506 11.057 3.811l.124-1.996zm12.985 0c-2.411.12-8.383.288-12.985 0l-.124 1.996c4.711.295 10.769.123 13.208.001l-.1-1.998zm0 1.997c2.44.122 8.497.294 13.208 0l-.124-1.997c-4.602.288-10.574.12-12.985 0l-.1 1.997zm13.208 0c4.894-.306 9.384-2.654 11.057-3.812l-1.138-1.645c-1.48 1.024-5.624 3.184-10.043 3.46l.124 1.996zm11.488-4.606c.123-4.325-.586-15.217-4.443-24.41l-1.845.774c3.71 8.84 4.407 19.422 4.289 23.58l1.999.056zm-4.443-24.41c-2.011-4.791-5.83-7.94-9.707-9.927C32.267 3 28.26 2.133 25.714 1.943l-.15 1.994c2.306.173 6.05.977 9.66 2.828 3.606 1.849 7.002 4.698 8.775 8.922l1.844-.773z" fill="#17234C"/><mask id="a" fill="#fff"><path fill-rule="evenodd" clip-rule="evenodd" d="M41.608 32.023c-1.64 9.148-8.335 15.997-16.345 15.997-8.009 0-14.704-6.849-16.345-15.996h-.021c-2.009 0-3.273-2.442-3.273-5.453 0-3.012.727-5.454 3.637-5.454.036 0 .082.024.136.07 2.223-8.07 8.487-13.885 15.866-13.885 7.376 0 13.637 5.808 15.863 13.87a.47.47 0 01.173-.055c2.91 0 3.637 2.442 3.637 5.453 0 3.012-1.265 5.454-3.273 5.454l-.055-.001z"/></mask><path fill-rule="evenodd" clip-rule="evenodd" d="M41.608 32.023c-1.64 9.148-8.335 15.997-16.345 15.997-8.009 0-14.704-6.849-16.345-15.996h-.021c-2.009 0-3.273-2.442-3.273-5.453 0-3.012.727-5.454 3.637-5.454.036 0 .082.024.136.07 2.223-8.07 8.487-13.885 15.866-13.885 7.376 0 13.637 5.808 15.863 13.87a.47.47 0 01.173-.055c2.91 0 3.637 2.442 3.637 5.453 0 3.012-1.265 5.454-3.273 5.454l-.055-.001z" fill="#C6E4F9"/><path d="M41.608 32.023l.055-2-1.72-.046-.303 1.693 1.968.353zm-32.69 0l1.969-.353-.297-1.654-1.68.008.008 2zm-.021 0v2h.009l-.009-2zm.5-10.836l-1.286 1.531 2.387 2.005.827-3.005-1.928-.531zm31.729-.014l-1.928.532.635 2.3 2.153-1.027-.86-1.805zM25.263 50.02c9.257 0 16.556-7.846 18.314-17.644l-3.937-.706c-1.525 8.498-7.614 14.35-14.377 14.35v4zM6.95 32.377c1.757 9.797 9.057 17.643 18.313 17.643v-4c-6.762 0-12.852-5.852-14.376-14.35l-3.937.707zm1.956 1.647h.021l-.018-4h-.02l.017 4zM3.624 26.57c0 1.752.363 3.484 1.15 4.852.795 1.385 2.179 2.6 4.123 2.6v-4c-.064 0-.317-.004-.656-.593-.348-.606-.617-1.6-.617-2.86h-4zm5.637-7.454c-1.012 0-1.962.215-2.797.697-.838.485-1.443 1.172-1.863 1.933-.8 1.446-.977 3.233-.977 4.824h4c0-1.422.186-2.361.478-2.889.124-.226.248-.337.364-.405.12-.069.352-.16.795-.16v-4zm1.422.538c-.106-.09-.63-.538-1.422-.538v4c-.407 0-.706-.128-.846-.2a1.6 1.6 0 01-.304-.199l2.572-3.063zm14.58-14.353c-8.522 0-15.404 6.675-17.794 15.354l3.856 1.062c2.055-7.461 7.701-12.416 13.938-12.416v-4zm17.79 15.339c-2.393-8.67-9.272-15.338-17.79-15.338v4c6.233 0 11.877 4.95 13.935 12.403l3.855-1.064zM41.3 19.117c-.526 0-.942.207-1.034.25l1.721 3.611a1.112 1.112 0 01-.15.059 1.84 1.84 0 01-.537.08v-4zm5.637 7.453c0-1.59-.178-3.377-.977-4.823-.42-.761-1.025-1.448-1.863-1.933-.835-.482-1.785-.697-2.797-.697v4c.443 0 .675.091.795.16.116.068.24.18.364.405.292.528.478 1.467.478 2.889h4zm-5.273 7.454c1.944 0 3.328-1.216 4.123-2.6.787-1.369 1.15-3.1 1.15-4.854h-4c0 1.26-.27 2.254-.617 2.86-.339.589-.592.594-.656.594v4zm-.11-.002l.11.002v-4l-.11 3.998z" fill="#17234C" mask="url(#a)"/><mask id="b" fill="#fff"><path d="M41.993 29.843c-.363 8.725-7.49 18.177-16.73 18.177-7.134 0-13.226-5.435-15.631-13.088-.71-2.258-1.099-2.528-1.099-5.09l13.74-3.88a11 11 0 015.98 0l13.74 3.88z"/></mask><path d="M41.993 29.843c-.363 8.725-7.49 18.177-16.73 18.177-7.134 0-13.226-5.435-15.631-13.088-.71-2.258-1.099-2.528-1.099-5.09l13.74-3.88a11 11 0 015.98 0l13.74 3.88z" fill="#F5F6FA"/><path d="M41.993 29.843l1.998.083.066-1.579-1.52-.43-.544 1.925zm-33.46 0l-.543-1.925-1.457.411v1.514h2zm1.099 5.09l1.908-.6-1.908.6zm12.641-8.972l.544 1.925-.544-1.925zm5.98 0l-.543 1.925.544-1.925zm11.742 3.798c-.162 3.881-1.844 8.001-4.552 11.137-2.7 3.128-6.277 5.124-10.18 5.124v4c5.337 0 9.944-2.73 13.208-6.51 3.256-3.771 5.319-8.74 5.52-13.584l-3.996-.167zM9.077 31.767l13.74-3.881-1.088-3.85-13.74 3.882 1.088 3.85zm18.633-3.881l13.74 3.881 1.087-3.85-13.74-3.88-1.087 3.849zM25.263 46.02c-6.032 0-11.504-4.627-13.723-11.688l-3.816 1.2c2.591 8.245 9.302 14.488 17.54 14.488v-4zM11.54 34.332c-.19-.604-.359-1.076-.495-1.458a13.62 13.62 0 01-.301-.908c-.123-.441-.21-.957-.21-2.123h-4c0 1.394.106 2.295.355 3.193.115.415.255.806.388 1.18.136.383.282.791.447 1.316l3.816-1.2zm11.277-6.446a9 9 0 014.893 0l1.087-3.85a13 13 0 00-7.068 0l1.088 3.85z" fill="#17234C" mask="url(#b)"/><path d="M11.443 29.479L9.26 21.117m29.824 8.362l2.182-8.362" stroke="#17234C" stroke-width="2"/><ellipse cx="18.907" cy="21.56" rx="1.961" ry="1.96" fill="#004CB3"/><ellipse cx="31.652" cy="21.56" rx="1.961" ry="1.96" fill="#004CB3"/><path fill="#17234C" d="M24.299 26.46h1.961v20.58h-1.961z"/><path d="M39.495 15.68c-14.51 1.176-21.405-4.41-23.04-7.35L28.22 6.37c9.804 2.613 18.138 8.754 11.275 9.31z" fill="#EE5C4A"/><path d="M17.436 9.8c1.634 2.94 8.333 7.84 21.569 6.86" stroke="#17234C" stroke-width="2"/></svg>