<svg width="50" height="50" viewBox="0 0 50 50" fill="none" xmlns="http://www.w3.org/2000/svg"><mask id="a" fill="#fff"><rect x="1" y="1" width="48" height="35" rx="1"/></mask><rect x="1" y="1" width="48" height="35" rx="1" fill="#fff" stroke="#192754" stroke-width="4" mask="url(#a)"/><path d="M23.503 18.584c0 4.235-3.43 7.667-7.66 7.667s-7.661-3.432-7.661-7.667c0-4.236 3.43-7.668 7.66-7.668s7.661 3.432 7.661 7.668z" fill="#55D5F1" stroke="#192754" stroke-width="2"/><path fill="#004CB3" d="M27.751 18.584h3.248v8.668h-3.248zM34 14.25h3.248v13.002H34zm6-4.334h3.248v17.335H40z"/><path d="M23.22 15.343c.945 2.208.621 4.839.306 6.33-.13.62-.82.889-1.369.57l-5.815-3.374a1 1 0 01-.498-.865v-7.092c0-.552.451-1.005.993-.895 2.485.508 5.291 2.777 6.383 5.326z" fill="#EE5C4A"/><path d="M8.823 16.076c-.939 2.191-.627 4.057-.314 5.059.146.467.652.666 1.113.503l5.91-2.09a1 1 0 00.667-.943v-6.96c0-.553-.452-1.005-.993-.895-2.485.508-5.292 2.776-6.383 5.326z" fill="#D7D8E0"/><path d="M23.505 18.58c0 4.235-3.43 7.667-7.66 7.667a7.665 7.665 0 01-7.662-7.668 7.664 7.664 0 017.661-7.667 7.664 7.664 0 017.661 7.667z" stroke="#192754" stroke-width="2"/><path d="M15.842 11v6.99a1 1 0 00.521.878l5.434 2.966m-5.955-3.25l-7.037 2.708m14.992 18.902l-8.15 8.157m8.151-12.995v5.059l8.63 7.936" stroke="#192754" stroke-width="2"/></svg>