<svg width="41" height="49" viewBox="0 0 41 49" fill="none" xmlns="http://www.w3.org/2000/svg"><path d="M1.735 47.861V4.76h27.261l3.448 3.019 2.97 2.972v37.111H1.735z" fill="#D7D8E0" stroke="#192754" stroke-width="2"/><path d="M5.491 44.103V1h24.875l8.804 8.81v34.293H5.49z" fill="#fff" stroke="#192754" stroke-width="2"/><path d="M22.33 30.129c4.702 0 8.512-3.814 8.512-8.517 0-4.703-3.81-8.517-8.512-8.517-4.701 0-8.51 3.814-8.51 8.517 0 4.703 3.809 8.517 8.51 8.517z" fill="#55D5F1" stroke="#192754" stroke-width="2"/><path fill="#192754" d="M23.334 20.121v5.843h-2.19v-5.843zm0-3.652v2.19h-2.19v-2.19z"/><path fill="#004CB3" d="M12.002 32.888h20.656v1.879H12.002zm0 3.758h20.656v1.879H12.002z"/><path d="M30.835 2.837l-.1 6.908h6.942l-6.842-6.908z" fill="#D7D8E0"/><path d="M29.842.94v8.396a1 1 0 001 1h8.389" stroke="#192754" stroke-width="2"/></svg>