<svg width="48" height="58" viewBox="0 0 48 58" fill="none" xmlns="http://www.w3.org/2000/svg"><path d="M2 16.503L24.473 1.21l22.473 15.293v28.54H2v-28.54z" fill="#55D5F1" stroke="#192754" stroke-width="2"/><path d="M7.634 6.638h33.678v14.025l-16.84 10.118L7.635 20.663V6.638z" fill="#fff" stroke="#192754" stroke-width="2"/><path fill="#004CB3" d="M20.717 10.336h15.961v1.879H20.717zm0 4.698h15.961v1.879H20.717zm0 4.698h15.961v1.879H20.717zm0 4.698h12.425L30 26.31h-9.283v-1.88z"/><path fill="#EE5C4A" stroke="#EE5C4A" stroke-width="2" d="M12.328 11.336H16.9v4.577h-4.572z"/><path d="M12.328 20.732h4.573v4.578h-4.573v-4.578z" fill="#D8DAE2" stroke="#192754" stroke-width="2"/><path d="M23.958 30.926l.515.309.515-.31 21.958-13.184v25.301a2 2 0 01-2 2H2V17.741l21.958 13.185z" fill="#F4F6FF" stroke="#192754" stroke-width="2"/><path d="M47.007 17.383L2.408 44.633m44.129 0L1.469 17.383" stroke="#192754" stroke-width="2"/></svg>