<svg width="50" height="50" viewBox="0 0 50 50" fill="none" xmlns="http://www.w3.org/2000/svg"><path d="M7 49V1h27.73l.707-.707L34.73 1l9.823 9.83V49H7z" fill="#fff" stroke="#192754" stroke-width="2"/><path d="M35.1 2.775v7.751h7.752L35.1 2.776z" fill="#D7D8E0"/><path d="M34.103 1.042v9.416a1 1 0 001 1h9.409" stroke="#192754" stroke-width="2"/><path d="M33.849 25.373c0 5.983-4.846 10.831-10.822 10.831-5.977 0-10.823-4.848-10.823-10.83 0-5.984 4.846-10.832 10.822-10.832 5.977 0 10.823 4.848 10.823 10.831z" fill="#F4F6FF" stroke="#008881" stroke-width="2"/><path d="M30.546 33.984l8.137 8.137" stroke="#008881" stroke-width="2" stroke-linecap="round"/><path d="M21.078 30.833l-4.418-4.38 1.783-1.764 2.635 2.603 6.532-6.47 1.782 1.765-8.314 8.246z" fill="#FF6D2F"/></svg>