<svg width="36" height="46" viewBox="0 0 36 46" fill="none" xmlns="http://www.w3.org/2000/svg"><path d="M1.258 44.103V1h24.875l8.804 8.81v34.293H1.257z" fill="#fff" stroke="#192754" stroke-width="2"/><path d="M26.558 2.75v6.745H33.5L26.558 2.75z" fill="#D7D8E0"/><path d="M25.608.94v8.396a1 1 0 001 1h8.39" stroke="#17234C" stroke-width="2"/><path d="M25.28 22.888c0 5.343-4.327 9.672-9.663 9.672-5.337 0-9.665-4.33-9.665-9.672 0-5.343 4.328-9.673 9.665-9.673 5.336 0 9.664 4.33 9.664 9.673z" fill="#F5F6FA" stroke="#00948C" stroke-width="2"/><path d="M22.4 30.655l7.34 7.34" stroke="#00948C" stroke-width="2" stroke-linecap="round"/><path d="M13.86 27.814l-3.986-3.951 1.608-1.592 2.377 2.348 5.892-5.836 1.608 1.592-7.5 7.439z" fill="#FF6D2F"/></svg>