<svg width="50" height="50" viewBox="0 0 50 50" fill="none" xmlns="http://www.w3.org/2000/svg"><mask id="a" fill="#fff"><rect x="1" y="5.898" width="47.963" height="43.102" rx="1"/></mask><rect x="1" y="5.898" width="47.963" height="43.102" rx="1" fill="#fff" stroke="#192754" stroke-width="4" mask="url(#a)"/><path d="M2 6.898h45.963v7.796H2V6.898v0z" fill="#67DACC" stroke="#192754" stroke-width="2"/><path fill="#D7D8E0" stroke="#192754" stroke-width="2" d="M5.915 18.653h5.831v5.837H5.915z"/><path fill="#F4F6FF" stroke="#192754" stroke-width="2" d="M5.915 28.448h5.831v5.837H5.915z"/><path fill="#D7D8E0" stroke="#192754" stroke-width="2" d="M5.915 38.244h5.831v5.837H5.915z"/><path fill="#F4F6FF" stroke="#192754" stroke-width="2" d="M16.683 18.653h5.831v5.837h-5.831z"/><path fill="#fff" stroke="#192754" stroke-width="2" d="M16.683 28.448h5.831v5.837h-5.831z"/><path fill="#FF6D2F" stroke="#192754" stroke-width="2" d="M16.683 38.244h5.831v5.837h-5.831z"/><path fill="#F4F6FF" stroke="#192754" stroke-width="2" d="M27.45 18.653h5.831v5.837H27.45z"/><path fill="#D7D8E0" stroke="#192754" stroke-width="2" d="M27.45 28.448h5.831v5.837H27.45zm10.766-9.795h5.831v5.837h-5.831z"/><path fill="#F4F6FF" stroke="#192754" stroke-width="2" d="M38.216 28.448h5.831v5.837h-5.831z"/><rect x="8.852" y="2" width="3.873" height="8.775" rx="1.936" fill="#F4F6FF" stroke="#192754" stroke-width="2"/><rect x="36.26" y="2" width="3.873" height="8.775" rx="1.936" fill="#F4F6FF" stroke="#192754" stroke-width="2"/></svg>