<svg width="50" height="50" viewBox="0 0 50 50" fill="none" xmlns="http://www.w3.org/2000/svg"><path d="M45 11.705v12.898a21 21 0 01-10.146 17.978L24.5 48.83l-10.354-6.25A21 21 0 014 24.603V11.705l20.5-10.58L45 11.705z" fill="#67DACC" stroke="#192754" stroke-width="2"/><path d="M41 14.676v9.12a18 18 0 01-8.814 15.48L24.5 43.837l-7.686-4.56A18 18 0 018 23.796v-9.121l16.5-8.842L41 14.676z" fill="#F4F6FF" stroke="#192754" stroke-width="2"/><path d="M33.724 22.8l-3.822 3.677.956 5.253c.106.42-.106.84-.425 1.05-.212.105-.424.21-.637.21-.212 0-.318 0-.53-.105l-4.778-2.52-4.777 2.52c-.319.21-.743.105-1.062-.105-.318-.21-.53-.63-.424-1.05l.955-5.253-3.822-3.677c-.318-.315-.424-.735-.318-1.05.106-.315.425-.63.85-.736l5.307-.735 2.336-4.727c.318-.736 1.592-.736 1.91 0l2.336 4.727 5.308.735c.425 0 .743.316.85.736.106.42.106.84-.213 1.05z" fill="#FF6D2F"/><path fill-rule="evenodd" clip-rule="evenodd" d="M30.91 22.732l-4.455-.617-1.967-3.982-1.967 3.982-4.362.604 3.18 3.06-.801 4.409 3.95-2.085 4.068 2.146-.813-4.47 3.168-3.047zm-1.645 10.154l-4.777-2.522-4.777 2.521c-.319.21-.743.105-1.062-.105-.318-.21-.53-.63-.424-1.05l.955-5.253-3.822-3.677c-.318-.315-.424-.735-.318-1.05.106-.315.425-.63.85-.736l5.307-.735 2.336-4.727c.318-.736 1.592-.736 1.91 0l2.336 4.727 5.308.735c.425 0 .743.316.85.736.106.42.106.84-.213 1.05l-3.822 3.677.956 5.253c.106.42-.106.84-.425 1.05-.212.105-.424.21-.637.21-.212 0-.318 0-.53-.105z" fill="#17234C"/></svg>