<svg width="44" height="55" viewBox="0 0 44 55" fill="none" xmlns="http://www.w3.org/2000/svg"><path d="M1.565 11.617L22.16 1.122l20.595 10.495v16.846a21 21 0 01-9.49 17.566L22.16 53.304l-11.103-7.275a21 21 0 01-9.492-17.566V11.617z" fill="#67DACC" stroke="#17234C" stroke-width="2"/><path d="M5.321 14.418l16.84-8.597L39 14.418v11.798a21 21 0 01-9.477 17.556l-7.363 4.833-7.362-4.833A21 21 0 015.32 26.216V14.418z" fill="#F5F6FA" stroke="#17234C" stroke-width="2"/><path d="M28.127 33.865l-.544-.815-.005-.008.001.009-.002-.01-.155.04.015.007h-.003l-.003-.002.005.003-.471.882m1.162-.106c-.211.106-.423.212-.634.212-.211 0-.317 0-.528-.106m1.162-.106c.317-.211.528-.634.422-1.057l-.975.221a.042.042 0 00.003-.007c.001-.001.001-.002 0 0l.102-.05.025.048.423.845zm-1.162.106l-4.753-2.537m4.753 2.537l.446-.89-5.2-1.647m0 0l-4.752 2.537c-.317.212-.74.106-1.057-.106-.317-.211-.528-.634-.422-1.057l.95-5.285-3.802-3.7c-.317-.317-.423-.74-.317-1.057.105-.317.422-.634.845-.74l8.556 9.408zm8.434-8.416c.011.047.02.088.024.122l-3.768 3.666-.38.37.093.524.951 5.285.006.033.002.006-.03.014a1.13 1.13 0 01-.084.037l-.007.002h-.039l-4.73-2.525-.471-.252-.471.252-4.718 2.518a.44.44 0 01-.064-.036.04.04 0 01-.004-.005l.003-.01.006-.034.95-5.285.095-.523-.381-.37-3.796-3.694a.278.278 0 01-.044-.057.265.265 0 01.08-.05l5.208-.73.526-.073.234-.478 2.317-4.744h.001a.247.247 0 01.115 0h.001l2.318 4.744.233.477.526.074 5.282.74.016.003z" fill="#FF6D2F" stroke="#17234C" stroke-width="2"/></svg>