<svg width="142" height="180" viewBox="0 0 142 180" fill="none" xmlns="http://www.w3.org/2000/svg"><path d="M0 1v178a1 1 0 001 1h139.081a1 1 0 001-1V38.5a1 1 0 00-1-1h-36.127V1a1 1 0 00-1-1H1a1 1 0 00-1 1z" fill="#EBECF0"/><path d="M0 1v178a1 1 0 001 1h139.081a1 1 0 001-1V37.911a1 1 0 00-.289-.703L104.248.296a1.001 1.001 0 00-.711-.296H1a1 1 0 00-1 1z" fill="#EBECF0"/><path fill="#00948C" fill-opacity=".17" d="M15.885 71.942h109.314v7.474H15.885zm0 16.818h109.314v7.474H15.885zm0 16.817h109.314v7.474H15.885zm0 16.818h109.314v7.474H15.885z"/><path d="M103.898 98.893c0 20.682-16.82 37.466-37.588 37.466-20.769 0-37.587-16.784-37.587-37.466 0-20.682 16.818-37.466 37.587-37.466 20.769 0 37.588 16.784 37.588 37.466z" fill="#FAFCFF" stroke="#00948C" stroke-width="7"/><path d="M92.148 128.259l27.131 27.05" stroke="#00948C" stroke-width="12"/><path d="M66.215 120.743a4.486 4.486 0 100-8.973 4.486 4.486 0 000 8.973zm.007-42.721c-7.358 0-13.345 5.987-13.345 13.346 0 .268.217.485.485.485h7.255a.485.485 0 00.486-.485 5.128 5.128 0 015.118-5.124 5.128 5.128 0 015.12 5.124 5.084 5.084 0 01-1.507 3.623c-.114.12-.39.344-.658.559l-.154.124c-2.416 1.958-6.912 5.602-6.912 13.461 0 .267.217.484.485.484h7.25a.485.485 0 00.486-.484c0-3.944 1.966-5.529 3.904-7.092.506-.414.985-.804 1.42-1.24a13.256 13.256 0 003.91-9.434c.001-7.36-5.985-13.347-13.343-13.347z" fill="#61CFC1"/><path d="M103.709 37.373h37.372L103.709 0v37.373z" fill="#17234C" fill-opacity=".2"/></svg>