<svg width="50" height="50" viewBox="0 0 50 50" fill="none" xmlns="http://www.w3.org/2000/svg"><path d="M6 49V4.846v0h25.488l9.022 9.03V49H6z" fill="#D7D8E0" stroke="#192754" stroke-width="2"/><path d="M9.843 45.154V1v0h25.488l9.022 9.03v35.124H9.843z" fill="#fff" stroke="#192754" stroke-width="2"/><path d="M20.276 15.806a3.563 3.563 0 003.568-3.576 3.563 3.563 0 00-3.568-3.576 3.573 3.573 0 00-3.579 3.576 3.573 3.573 0 003.58 3.576zm.097 1.449c-1.92 0-5.765 1.088-5.765 3.253v2.132h11.53v-2.132c0-2.165-3.847-3.253-5.765-3.253zm-.097 16.573a3.563 3.563 0 003.568-3.577 3.563 3.563 0 00-3.568-3.576 3.573 3.573 0 00-3.579 3.576 3.573 3.573 0 003.58 3.577zm.097 1.448c-1.92 0-5.765 1.088-5.765 3.253v2.132h11.53V38.53c0-2.165-3.847-3.253-5.765-3.253z" fill="#FF6D2F"/><path d="M35.688 2.266l-.204 7.265h7.103l-6.899-7.265z" fill="#D7D8E0"/><path d="M34.785.962v8.615a1 1 0 001 1h8.608" stroke="#192754" stroke-width="2"/><path fill="#008881" d="M29.02 32.692h10.569v1.923H29.02zm0-17.307h10.569v1.923H29.02zm0 13.461h10.569v1.923H29.02zm0 7.692h10.569v1.923H29.02zm0-17.307h10.569v1.923H29.02z"/></svg>