<svg width="50" height="46" viewBox="0 0 50 46" fill="none" xmlns="http://www.w3.org/2000/svg"><path d="M25 1C20.058 1 11.305 3.415 7.466 12.621c-3.7 8.87-6.383 19.371-6.464 24a.852.852 0 00.429.768c1.862 1.046 5.924 2.173 10.279 2.447 4.725.297 10.829 1.124 13.29 1V1z" fill="#67DACC"/><path d="M25 1c4.708 0 13.695 2.415 17.534 11.621 3.7 8.87 6.383 19.371 6.464 24a.852.852 0 01-.429.768c-1.863 1.046-5.924 2.173-10.279 2.447-4.725.297-10.829 1.124-13.29 1V1z" fill="#67DACC"/><path d="M25 1C20.058 1 11.305 3.415 7.466 12.621c-3.7 8.87-6.383 19.371-6.464 24a.852.852 0 00.429.768c1.862 1.046 5.924 2.173 10.279 2.447 4.725.297 10.829 1.124 13.29 1M25 1v39.836M25 1c4.708 0 13.695 2.415 17.534 11.621 3.7 8.87 6.383 19.371 6.464 24a.852.852 0 01-.429.768c-1.863 1.046-5.924 2.173-10.279 2.447-4.725.297-10.829 1.124-13.29 1" stroke="#17234C" stroke-width="2"/><mask id="a" fill="#fff"><path fill-rule="evenodd" clip-rule="evenodd" d="M24.99 46c8 0 14.686-6.989 16.325-16.323h.054c2.006 0 3.269-2.49 3.269-5.564 0-3.073-.727-5.565-3.633-5.565a.465.465 0 00-.173.057c-.797-2.949-2.111-5.602-3.81-7.793L38.715 14c-13.22 1-19.582-4-21.214-7h15.515c-2.382-1.625-5.117-2.548-8.026-2.548-7.37 0-13.626 5.933-15.846 14.167-.054-.046-.1-.07-.136-.07-2.906 0-3.633 2.49-3.633 5.564 0 3.073 1.263 5.564 3.27 5.564h.02C10.305 39.011 16.99 46 24.99 46z"/></mask><path fill-rule="evenodd" clip-rule="evenodd" d="M24.99 46c8 0 14.686-6.989 16.325-16.323h.054c2.006 0 3.269-2.49 3.269-5.564 0-3.073-.727-5.565-3.633-5.565a.465.465 0 00-.173.057c-.797-2.949-2.111-5.602-3.81-7.793L38.715 14c-13.22 1-19.582-4-21.214-7h15.515c-2.382-1.625-5.117-2.548-8.026-2.548-7.37 0-13.626 5.933-15.846 14.167-.054-.046-.1-.07-.136-.07-2.906 0-3.633 2.49-3.633 5.564 0 3.073 1.263 5.564 3.27 5.564h.02C10.305 39.011 16.99 46 24.99 46z" fill="#C89E8D"/><path d="M41.315 29.677l.056-2-1.728-.048-.298 1.702 1.97.346zm-.483-11.072l-1.93.522.63 2.335 2.176-1.059-.876-1.798zm-3.81-7.793l1.581-1.225-3.347 2.162 1.767-.937zM38.715 14l.15 1.994 3.05-.23-1.433-2.701-1.767.937zM17.5 7V5h-3.365l1.608 2.956L17.5 7zm15.515 0v2h6.481l-5.355-3.652L33.016 7zM9.143 18.62l-1.302 1.517 2.407 2.066.826-3.063-1.931-.52zm-.5 11.057v2h.01l-.01-2zm.022 0l1.97-.346-.292-1.661-1.687.007.009 2zm30.68-.346C37.815 38.046 31.71 44 24.99 44v4c9.277 0 16.547-8.024 18.294-17.977l-3.94-.692zm2.024-1.654h.002l-.113 3.999.11.001v-4zm1.269-3.564c0 1.296-.271 2.325-.625 2.954-.348.618-.603.61-.644.61v4c1.965 0 3.345-1.253 4.13-2.649.779-1.384 1.139-3.138 1.139-4.915h-4zm-1.633-3.565c.435 0 .66.091.777.16.115.067.241.183.37.422.3.553.486 1.527.486 2.983h4c0-1.618-.177-3.426-.968-4.887-.415-.768-1.015-1.467-1.854-1.962-.837-.495-1.792-.716-2.81-.716v4zm.703-.145c-.017.008-.07.034-.154.061a1.84 1.84 0 01-.549.084v-4c-.535 0-.958.215-1.048.259l1.751 3.596zm-6.266-8.366c1.527 1.97 2.728 4.381 3.46 7.09l3.861-1.044c-.862-3.19-2.29-6.085-4.16-8.496l-3.161 2.45zm-.186-.288l1.691 3.188 3.534-1.874-1.692-3.188-3.533 1.874zm3.307.257c-12.732.963-18.175-3.882-19.306-5.962l-3.514 1.912c2.133 3.92 9.416 9.075 23.122 8.038l-.302-3.988zM17.5 9h15.515V5H17.5v4zm7.49-2.548c2.47 0 4.818.782 6.898 2.2l2.253-3.304c-2.683-1.83-5.806-2.896-9.151-2.896v4zM11.073 19.14c2.062-7.65 7.716-12.688 13.915-12.688v-4c-8.541 0-15.4 6.827-17.777 15.647l3.862 1.04zm-2.067 1.408c-.417 0-.72-.134-.862-.207a1.603 1.603 0 01-.304-.204l2.604-3.036c-.102-.087-.63-.553-1.438-.553v4zm-1.633 3.565c0-1.456.186-2.43.486-2.983.129-.239.256-.355.37-.422.117-.069.342-.16.777-.16v-4c-1.018 0-1.974.221-2.81.716-.84.495-1.44 1.194-1.855 1.962-.79 1.461-.968 3.27-.968 4.887h4zm1.27 3.564c-.042 0-.297.008-.644-.61-.354-.63-.626-1.658-.626-2.954h-4c0 1.777.36 3.53 1.14 4.915.785 1.396 2.164 2.65 4.13 2.65v-4zm.012 0h-.022l.019 4h.02l-.017-4zM24.99 44c-6.722 0-12.825-5.953-14.355-14.669l-3.94.692C8.443 39.976 15.713 48 24.989 48v-4z" fill="#17234C" mask="url(#a)"/><mask id="b" fill="#fff"><path d="M41.699 27.451C41.336 36.355 34.218 46 24.989 46c-7.125 0-13.21-5.546-15.612-13.355-.708-2.304-1.097-2.58-1.097-5.194l13.66-3.942a11 11 0 016.1 0l13.659 3.942z"/></mask><path d="M41.699 27.451C41.336 36.355 34.218 46 24.989 46c-7.125 0-13.21-5.546-15.612-13.355-.708-2.304-1.097-2.58-1.097-5.194l13.66-3.942a11 11 0 016.1 0l13.659 3.942z" fill="#F5F6FA"/><path d="M41.699 27.451l1.998.082.064-1.568-1.508-.435-.554 1.921zm-33.419 0l-.554-1.921-1.446.417v1.505h2zm1.097 5.194l1.912-.588-1.912.588zm12.562-9.136l-.554-1.921.554 1.921zm6.1 0l-.554 1.922.555-1.922zM39.7 27.37c-.162 3.982-1.85 8.2-4.559 11.404C32.438 41.972 28.87 44 24.99 44v4c5.348 0 9.953-2.795 13.206-6.645 3.248-3.843 5.3-8.9 5.501-13.822L39.7 27.37zM8.835 29.374l13.659-3.942-1.11-3.843L7.727 25.53l1.109 3.843zm18.65-3.942l13.66 3.942 1.108-3.843-13.659-3.942-1.109 3.843zM24.99 44c-5.996 0-11.474-4.705-13.701-11.943l-3.823 1.176C10.044 41.613 16.734 48 24.99 48v-4zM11.288 32.057a41.19 41.19 0 00-.493-1.486c-.14-.4-.231-.668-.303-.93-.125-.46-.213-.994-.213-2.19h-4c0 1.419.106 2.33.353 3.238.114.42.253.817.385 1.198.137.391.283.81.448 1.346l3.823-1.176zm11.205-6.626a9 9 0 014.991 0l1.11-3.843a12.999 12.999 0 00-7.21 0l1.109 3.843z" fill="#17234C" mask="url(#b)"/><path d="M11.186 27.08l-2.18-8.532m29.787 8.532l2.18-8.532" stroke="#17234C" stroke-width="2"/><circle cx="18.682" cy="20" r="2" fill="#17234C"/><circle cx="31.412" cy="20" r="2" fill="#17234C"/><path fill="#17234C" d="M24.026 24h1.958v21h-1.958z"/><path d="M39.5 14C25.797 16 18.632 9.5 17 6.5L22.5 3 24 2h2.5c9.792 2.667 14.784 11.74 13 12z" fill="#67DACC"/></svg>