<svg width="50" height="50" viewBox="0 0 50 50" fill="none" xmlns="http://www.w3.org/2000/svg"><path d="M6 49V4.846h27.928l3.536 3.096 3.046 3.049V49H6z" fill="#D7D8E0" stroke="#192754" stroke-width="2"/><path d="M9.843 45.154V1v0h25.488l9.022 9.03v35.124H9.843z" fill="#fff" stroke="#192754" stroke-width="2"/><path fill="#008881" d="M18.783 24.812V14.235h1.922v10.577zm3.844 0V14.235h1.922v10.577zm3.843 0V14.235h1.922v10.577zm3.843.001V14.236h1.922v10.577z"/><path d="M19.435 22.513l10.892-8.29 1.388 1.927-11.028 8.665-1.252-2.302zm-.651 16.722V28.658h1.922v10.577zm3.843.001V28.659h1.922v10.577zm3.843 0V28.659h1.922v10.577z" fill="#008881"/><path d="M35.5 2.5l-.005 7.25h7.186L35.5 2.5z" fill="#D7D8E0"/><path d="M34.784.962v8.615a1 1 0 001 1h8.608" stroke="#192754" stroke-width="2"/></svg>