<svg width="51" height="53" viewBox="0 0 51 53" fill="none" xmlns="http://www.w3.org/2000/svg"><path d="M41.915 21.345c0 11.237-9.102 20.345-20.329 20.345-11.226 0-20.328-9.108-20.328-20.345C1.258 10.108 10.36 1 21.586 1c11.227 0 20.329 9.108 20.329 20.345z" fill="#F4F6FF" stroke="#17234C" stroke-width="2"/><path d="M29.938 18.41c0 .933-.345 2.23-.976 3.779-.621 1.524-1.48 3.198-2.422 4.852-1.866 3.277-4.014 6.402-5.156 8.01-1.143-1.608-3.29-4.733-5.157-8.01-.942-1.654-1.801-3.328-2.422-4.852-.631-1.548-.976-2.846-.976-3.78 0-4.983 3.868-8.952 8.555-8.952 4.686 0 8.554 3.97 8.554 8.952z" fill="#FF6D2F" stroke="#17234C" stroke-width="2"/><path d="M24.205 18.214a3.016 3.016 0 01-3.014 3.018 3.016 3.016 0 01-3.015-3.018 3.016 3.016 0 013.015-3.018 3.016 3.016 0 013.014 3.018z" fill="#B7BCCE" stroke="#17234C" stroke-width="2"/><path d="M34.998 36.646L49.08 50.741" stroke="#17234C" stroke-width="4"/></svg>