<svg width="50" height="50" viewBox="0 0 50 50" fill="none" xmlns="http://www.w3.org/2000/svg"><path d="M20.178 37.948h9.644l1.225 8.4H18.953l1.225-8.4z" fill="#D7D8E0" stroke="#192754" stroke-width="2"/><mask id="a" fill="#fff"><rect y="3" width="50" height="35.621" rx="1"/></mask><rect y="3" width="50" height="35.621" rx="1" fill="#D7D8E0" stroke="#192754" stroke-width="4" mask="url(#a)"/><mask id="b" fill="#fff"><rect y="3" width="50" height="28.836" rx="1"/></mask><rect y="3" width="50" height="28.836" rx="1" fill="#fff" stroke="#192754" stroke-width="4" mask="url(#b)"/><path d="M22.729 17.842a7.902 7.902 0 01-7.899 7.905c-4.361 0-7.898-3.538-7.898-7.905 0-4.367 3.537-7.905 7.898-7.905a7.902 7.902 0 017.899 7.905z" fill="#F4F6FF" stroke="#008881" stroke-width="2"/><path d="M13.36 21.945l-3.323-3.295 1.341-1.327 1.983 1.958 4.913-4.867 1.34 1.327-6.253 6.204z" fill="#FF6D2F"/><path fill="#008881" d="M27.119 13.178h16.102v2H27.119zm0 4.24h16.102v2H27.119zm0 4.24h16.102v2H27.119z"/><path d="M15.254 46.5c0-.468.38-.848.848-.848h17.796a.848.848 0 010 1.696H16.102a.848.848 0 01-.848-.848zm7.627-12.968h4.237v1.696h-4.237z" fill="#192754"/></svg>