<svg width="48" height="46" viewBox="0 0 48 46" fill="none" xmlns="http://www.w3.org/2000/svg"><path d="M7.572 6.577v-.333l-.2-.266-2.56-3.417L5.072 1h27.485a4 4 0 014 4v39.103H7.572V6.577z" fill="#fff" stroke="#17234C" stroke-width="2"/><path d="M15.464 39.465l-3.258-3.289 1.314-1.325 1.944 1.955 4.816-4.858 1.315 1.325-6.131 6.192z" fill="#00948C"/><path d="M1 4.3a3.3 3.3 0 116.6 0v7.855H1V4.3z" fill="#E5F0F8" stroke="#17234C" stroke-width="2"/><path fill="#00948C" d="M23.473 35.706h8.45v1.879h-8.45zM12.206 27.25h19.717v1.879H12.206zm0-4.698h19.717v1.879H12.206zm0-4.699h19.717v1.879H12.206zm0-4.698h19.717v1.879H12.206zm0-4.698h19.717v1.879H12.206z"/><path fill="#67DACC" stroke="#17234C" stroke-width="2" d="M42.312 8.517h4.572v25.25h-4.572z"/><path d="M42.312 33.888h4.573v4.294l-2.286 2.942-2.287-2.942v-4.294z" fill="#fff" stroke="#17234C" stroke-width="2"/><path d="M42.312 6.105a2.286 2.286 0 114.573 0v3.231h-4.573V6.105z" fill="#FF6D2F" stroke="#17234C" stroke-width="2"/></svg>