<svg width="48" height="49" viewBox="0 0 48 49" fill="none" xmlns="http://www.w3.org/2000/svg"><mask id="a" fill="#fff"><rect x=".375" y=".752" width="47" height="35" rx="1"/></mask><rect x=".375" y=".752" width="47" height="35" rx="1" fill="#fff" stroke="#17234C" stroke-width="4" mask="url(#a)"/><path d="M21.879 18.335c0 4.236-3.43 7.668-7.66 7.668a7.665 7.665 0 01-7.662-7.668 7.664 7.664 0 017.661-7.667 7.664 7.664 0 017.661 7.667z" fill="#67DACC" stroke="#192754" stroke-width="2"/><path fill="#00948C" d="M26.127 18.335h3.248v8.668h-3.248zM32 14.002h3.248v13.002H32zm6-4.334h3.248v17.335H38z"/><path d="M21.595 15.095c.946 2.207.622 4.838.307 6.33-.131.62-.82.888-1.37.57l-5.815-3.375a1 1 0 01-.498-.865v-7.091c0-.553.452-1.005.993-.895 2.485.507 5.291 2.776 6.383 5.326z" fill="#FF6D2F"/><path d="M7.198 15.828c-.938 2.191-.626 4.057-.313 5.058.146.467.652.666 1.113.503l5.91-2.09a1 1 0 00.666-.942v-6.96c0-.553-.451-1.005-.992-.895-2.486.507-5.292 2.776-6.384 5.326z" fill="#D7D8E0"/><path d="M21.88 18.331c0 4.236-3.43 7.668-7.66 7.668s-7.661-3.432-7.661-7.668c0-4.235 3.43-7.667 7.66-7.667s7.662 3.432 7.662 7.667z" stroke="#17234C" stroke-width="2"/><path d="M14.218 10.751v6.991a1 1 0 00.52.878l5.434 2.966m-5.954-3.251l-7.037 2.71m15.992 18.901l-8.15 8.157m8.15-12.996v5.06l8.63 7.936" stroke="#17234C" stroke-width="2"/></svg>