<svg width="50" height="50" viewBox="0 0 50 50" fill="none" xmlns="http://www.w3.org/2000/svg"><path d="M9.436 6.48v-.333l-.2-.266L6.719 2.52 6.97 1h31.506a4 4 0 014 4v33.438a5 5 0 01-5 5H9.437V6.481z" fill="#fff" stroke="#192754" stroke-width="2"/><path fill="#008881" d="M14.596 16.374h22.563v2H14.596zm0 10.839h22.563v2H14.596zm0 5.419h22.563v2H14.596zm0-21.677h22.563v2H14.596zm0 10.838h22.563v2H14.596z"/><path d="M9.44 4.24v7.721H2.96V4.24a3.24 3.24 0 016.48 0z" fill="#D7D8E0" stroke="#192754" stroke-width="2"/><path d="M33.764 47.582V32.308h9.733v15.274l-4.342-2.674-.525-.323-.524.323-4.342 2.674z" fill="#67DACC" stroke="#192754" stroke-width="2"/><path d="M46.139 30.529c0 4.364-3.535 7.901-7.894 7.901-4.36 0-7.894-3.537-7.894-7.901s3.535-7.901 7.894-7.901 7.894 3.537 7.894 7.9z" fill="#F4F6FF" stroke="#192754" stroke-width="2"/><path d="M42.005 30.47a3.821 3.821 0 01-3.819 3.823 3.821 3.821 0 01-3.82-3.823 3.821 3.821 0 013.82-3.823 3.822 3.822 0 013.82 3.823z" fill="#FF6D2F" stroke="#192754" stroke-width="2"/></svg>