<svg width="50" height="50" viewBox="0 0 50 50" fill="none" xmlns="http://www.w3.org/2000/svg"><path d="M6 49V4.846v0h27.928l3.536 3.096 3.046 3.049V49H6z" fill="#D7D8E0" stroke="#192754" stroke-width="2"/><path d="M9.843 45.154V1v0h25.488l9.022 9.03v35.124H9.843z" fill="#fff" stroke="#192754" stroke-width="2"/><path d="M27.098 30.808c4.798 0 8.687-3.893 8.687-8.693s-3.889-8.692-8.687-8.692-8.686 3.893-8.686 8.692c0 4.8 3.888 8.693 8.686 8.693z" fill="#67DACC" stroke="#192754" stroke-width="2"/><path fill="#192754" d="M28.125 20.59v5.979h-2.241V20.59zm0-3.738v2.242h-2.24v-2.242z"/><path fill="#008881" d="M16.529 33.654h21.137v2H16.529zm0 3.846h21.137v2H16.529z"/><path d="M35.801 2.903l-.102 7.07L43 10l-7.199-7.097z" fill="#D7D8E0"/><path d="M34.785.962v8.615a1 1 0 001 1h8.608" stroke="#192754" stroke-width="2"/></svg>