<svg width="54" height="56" viewBox="0 0 54 56" fill="none" xmlns="http://www.w3.org/2000/svg">
<circle cx="22.7162" cy="22.7162" r="21.7162" fill="white" stroke="black" stroke-width="2"/>
<path d="M31.6757 19.5919C31.6757 20.6054 31.2995 22.0086 30.618 23.6728C29.9465 25.313 29.0189 27.1119 28.0055 28.8849C25.9971 32.3988 23.6936 35.7382 22.5 37.4149C21.3064 35.7382 19.0029 32.3988 16.9945 28.8849C15.9811 27.1119 15.0535 25.313 14.382 23.6728C13.7005 22.0086 13.3243 20.6054 13.3243 19.5919C13.3243 14.2563 17.4698 10 22.5 10C27.5302 10 31.6757 14.2563 31.6757 19.5919Z" fill="white" stroke="black" stroke-width="2"/>
<circle cx="22.2944" cy="19.3838" r="3.27568" stroke="black" stroke-width="2"/>
<path d="M37 39L52 54" stroke="black" stroke-width="4"/>
</svg>
