<svg width="40" height="59" viewBox="0 0 40 59" fill="none" xmlns="http://www.w3.org/2000/svg"><path d="M1.075 8.605h37.434v43.103H1.075V8.605z" stroke="#192754" stroke-width="2"/><mask id="a" fill="#fff"><path fill-rule="evenodd" clip-rule="evenodd" d="M19.792.088a4.59 4.59 0 00-4.59 4.59v.108h-1.8a3 3 0 00-3 3v4.517h18.78V7.786a3 3 0 00-3-3h-1.8v-.108a4.59 4.59 0 00-4.59-4.59z"/></mask><path fill-rule="evenodd" clip-rule="evenodd" d="M19.792.088a4.59 4.59 0 00-4.59 4.59v.108h-1.8a3 3 0 00-3 3v4.517h18.78V7.786a3 3 0 00-3-3h-1.8v-.108a4.59 4.59 0 00-4.59-4.59z" fill="#D7D8E0"/><path d="M15.202 4.786v2h2v-2h-2zm-4.8 7.517h-2v2h2v-2zm18.78 0v2h2v-2h-2zm-4.8-7.517h-2v2h2v-2zm-7.18-.108a2.59 2.59 0 012.59-2.59v-4a6.59 6.59 0 00-6.59 6.59h4zm0 .108v-.108h-4v.108h4zm-3.8 2h1.8v-4h-1.8v4zm-1 1a1 1 0 011-1v-4a5 5 0 00-5 5h4zm0 4.517V7.786h-4v4.517h4zm16.78-2h-18.78v4h18.78v-4zm-2-2.517v4.517h4V7.786h-4zm-1-1a1 1 0 011 1h4a5 5 0 00-5-5v4zm-1.8 0h1.8v-4h-1.8v4zm-2-2.108v.108h4v-.108h-4zm-2.59-2.59a2.59 2.59 0 012.59 2.59h4a6.59 6.59 0 00-6.59-6.59v4z" fill="#192754" mask="url(#a)"/><path d="M27.242 49.889a7.454 7.454 0 01-7.45 7.457 7.454 7.454 0 01-7.45-7.457 7.454 7.454 0 017.45-7.457 7.454 7.454 0 017.45 7.457z" fill="#EE5C4A" stroke="#192754" stroke-width="2"/><path fill="#fff" d="M14.907 49.074h9.77v1.63h-9.77z"/><path fill="#fff" d="M20.606 45v9.778h-1.628V45z"/><path fill="#004CB3" d="M17.914 17.001h15.023v1.879H17.914zM17.914 30.156h15.023v1.879H17.914zM17.914 20.76h15.023v1.879H17.914zM17.914 33.915h15.023v1.879H17.914z"/><path fill="#EE5C4A" stroke="#192754" stroke-width="2" d="M6.708 17.062h6.45v6.457h-6.45z"/><path fill="#D7D8E0" stroke="#192754" stroke-width="2" d="M6.708 30.217h6.45v6.457h-6.45z"/></svg>