<svg width="50" height="60" viewBox="0 0 50 60" fill="none" xmlns="http://www.w3.org/2000/svg"><path d="M10.6 48.081l-8.755 2.231L12.001 29.49l13.55 6.61L15.396 56.92l-3.633-8.273-.34-.776-.822.21z" fill="#fff" stroke="#000" stroke-width="2"/><path d="M39.346 48.081l8.756 2.231L37.946 29.49l-13.55 6.61L34.552 56.92l3.632-8.273.34-.776.822.21z" fill="#fff" stroke="#000" stroke-width="2"/><path d="M42.591 19.071c0 9.98-8.09 18.071-18.071 18.071-9.98 0-18.071-8.09-18.071-18.07C6.449 9.09 14.539 1 24.519 1 34.5 1 42.592 9.09 42.592 19.071z" fill="#fff" stroke="#000" stroke-width="2"/><circle cx="24.519" cy="19.071" r="13.53" fill="#fff" stroke="#000" stroke-width="2"/><path d="M21.703 25.428l-5.357-5.562 2.162-2.24 3.195 3.305 7.92-8.217 2.162 2.241-10.082 10.473z" fill="#000"/></svg>