<svg width="48" height="57" viewBox="0 0 48 57" fill="none" xmlns="http://www.w3.org/2000/svg"><path d="M12.162 42.919l-6.95 1.772 8.235-16.898 10.996 5.367-8.236 16.898-2.883-6.572-.34-.777-.822.21z" fill="#55D5F1" stroke="#192754" stroke-width="2"/><path d="M36.205 42.919l6.95 1.772-8.235-16.898-10.996 5.367 8.235 16.898 2.883-6.572.341-.777.822.21z" fill="#55D5F1" stroke="#192754" stroke-width="2"/><path d="M40.023 17.28c0 8.991-7.283 16.279-16.266 16.279-8.983 0-16.266-7.288-16.266-16.28C7.491 8.288 14.775 1 23.757 1c8.983 0 16.266 7.288 16.266 16.28z" fill="#FF8374" stroke="#192754" stroke-width="2"/><path d="M35.911 17.28c0 6.719-5.443 12.164-12.155 12.164S11.601 24 11.601 17.28 17.044 5.115 23.756 5.115s12.155 5.446 12.155 12.165z" fill="#F4F6FF" stroke="#192754" stroke-width="2"/><path d="M21.113 23.253l-5.03-5.227 2.03-2.105 3 3.106 7.436-7.72 2.03 2.105-9.466 9.841z" fill="#004CB3"/></svg>