<svg width="68" height="56" viewBox="0 0 68 56" fill="none" xmlns="http://www.w3.org/2000/svg"><path d="M21 55a3 3 0 01-3-3V29h6v23a3 3 0 01-3 3zM27 15.289L53 1.654v48.692L27 36.711V15.289z" fill="#fff" stroke="#000" stroke-width="2"/><mask id="a" fill="#fff"><rect x="14" y="14" width="14" height="24" rx="1"/></mask><rect x="14" y="14" width="14" height="24" rx="1" fill="#fff" stroke="#000" stroke-width="4" mask="url(#a)"/><mask id="b" fill="#fff"><rect x="8.473" y="17.333" width="7.298" height="17.333" rx="1"/></mask><rect x="8.473" y="17.333" width="7.298" height="17.333" rx="1" fill="#fff" stroke="#000" stroke-width="4" mask="url(#b)"/><path d="M4 26a4.018 4.018 0 014.018-4.018h1.28v8.035h-1.28A4.018 4.018 0 014 26z" fill="#fff" stroke="#000" stroke-width="2"/><path d="M57.386 26.456h9.122M57.386 20.163l8.334-5.566M57.386 32.842l8.334 5.566" stroke="#000" stroke-width="2"/></svg>