<svg width="65" height="55" viewBox="0 0 65 55" fill="none" xmlns="http://www.w3.org/2000/svg"><path d="M21.18 53.5a2.286 2.286 0 01-2.286-2.287V29.19h4.572v22.024A2.286 2.286 0 0121.18 53.5z" fill="#FF8374" stroke="#192754" stroke-width="2"/><path d="M26 14.443l22-9.067v38.012l-22-9.067V14.443z" fill="#F4F6FF" stroke="#192754" stroke-width="2"/><mask id="a" fill="#fff"><rect x="15.077" y="13.155" width="12.206" height="22.551" rx="1"/></mask><rect x="15.077" y="13.155" width="12.206" height="22.551" rx="1" fill="#D7D8E0" stroke="#192754" stroke-width="4" mask="url(#a)"/><mask id="b" fill="#fff"><rect x="11.321" y="15.974" width="5.633" height="16.914" rx="1"/></mask><rect x="11.321" y="15.974" width="5.633" height="16.914" rx="1" fill="#D7D8E0" stroke="#192754" stroke-width="4" mask="url(#b)"/><path d="M7.345 24.43a3.715 3.715 0 013.714-3.714h1.138v7.43H11.06a3.715 3.715 0 01-3.714-3.716z" fill="#55D5F1" stroke="#192754" stroke-width="2"/><path d="M51.086 25.37h6.502M51 21.73l6.019-2.876M51 29.006l6.019 2.876" stroke="#004CB3" stroke-width="2"/></svg>