<svg width="36" height="46" viewBox="0 0 36 46" fill="none" xmlns="http://www.w3.org/2000/svg"><path d="M1.258 44.608V1.505h24.875l8.804 8.81v34.293H1.257z" fill="#fff" stroke="#192754" stroke-width="2"/><path d="M26.558 3.255V10H33.5l-6.942-6.745z" fill="#D7D8E0"/><path d="M25.608 1.444v8.397a1 1 0 001 1h8.39" stroke="#192754" stroke-width="2"/><path d="M25.28 23.393c0 5.342-4.327 9.672-9.664 9.672-5.336 0-9.664-4.33-9.664-9.672 0-5.343 4.328-9.673 9.664-9.673 5.337 0 9.665 4.33 9.665 9.673z" fill="#F4F6FF" stroke="#004CB3" stroke-width="2"/><path d="M22.4 31.16l7.34 7.34" stroke="#004CB3" stroke-width="2" stroke-linecap="round"/><path d="M13.86 28.318l-3.986-3.95 1.608-1.592 2.377 2.348 5.892-5.836 1.608 1.591-7.5 7.44z" fill="#EE5C4A"/></svg>