<svg width="44" height="55" viewBox="0 0 44 55" fill="none" xmlns="http://www.w3.org/2000/svg"><path d="M1.565 12.017L22.16 1.522l20.595 10.495v16.845a21 21 0 01-9.49 17.566L22.16 53.703l-11.103-7.275a21 21 0 01-9.492-17.566V12.017z" fill="#55D5F1" stroke="#192754" stroke-width="2"/><path d="M5.321 14.817l16.84-8.597L39 14.817v11.798a21 21 0 01-9.477 17.556l-7.362 4.833-7.363-4.833A21 21 0 015.32 26.615V14.817z" fill="#F4F6FF" stroke="#192754" stroke-width="2"/><path d="M28.127 34.265l-.544-.816-.005-.008.001.009-.002-.01-.155.04.015.008-.003-.002h-.003l.005.002-.47.882m1.161-.105c-.211.105-.422.211-.634.211-.21 0-.316 0-.528-.106m1.162-.105c.317-.212.528-.635.423-1.057l-.976.22a.05.05 0 00.004-.006v-.001l.102-.05.024.048.423.846zm-1.162.105l-4.753-2.537m4.753 2.537l.446-.89-5.199-1.647m0 0l-4.753 2.537c-.317.212-.74.106-1.057-.105-.316-.212-.528-.635-.422-1.057l.95-5.286-3.802-3.7c-.317-.317-.422-.74-.317-1.057.106-.317.423-.634.845-.74l8.556 9.408zm8.433-8.415c.012.047.02.087.024.121l-3.767 3.666-.381.37.094.524.95 5.286.006.032.002.006-.029.014a.96.96 0 01-.085.037l-.006.002h-.04l-4.73-2.525-.471-.251-.47.251-4.719 2.518a.457.457 0 01-.062-.034l-.002-.002a.076.076 0 01-.003-.005l.002-.01.006-.033.95-5.286.095-.523-.381-.37-3.796-3.694a.285.285 0 01-.044-.057.27.27 0 01.08-.05l5.208-.73.527-.073.233-.478 2.318-4.744s0 0 0 0a.246.246 0 01.116 0l2.318 4.744.233.478.527.073 5.281.74.016.003z" fill="#EE5C4A" stroke="#192754" stroke-width="2"/></svg>