<svg width="46" height="50" viewBox="0 0 46 50" fill="none" xmlns="http://www.w3.org/2000/svg"><path fill="#004CB3" d="M14 33h26v-2H14zm10-12h16v-2H24zM14 39h26v-2H14zm10-12h16v-2H24z"/><path d="M8.175 42.025v.333l-.2.267-2.818 3.758.303 1.817H41a4 4 0 004-4V1H8.175v41.025z" stroke="#192754" stroke-width="2"/><path d="M1 44.61a3.59 3.59 0 007.18 0v-8.76H1v8.76z" fill="#D7D8E0" stroke="#192754" stroke-width="2"/><path fill="#EE5C4A" stroke="#192754" stroke-width="2" d="M14 20h6v6h-6z"/><path fill="#55D5F1" stroke="#192754" stroke-width="2" d="M14 7h25v7H14z"/></svg>