<svg width="40" height="50" viewBox="0 0 40 50" fill="none" xmlns="http://www.w3.org/2000/svg"><path d="M1.394 48.08V4.977h27.26l3.448 3.019 2.97 2.972V48.08H1.394z" fill="#D7D8E0" stroke="#192754" stroke-width="2"/><path d="M5.15 44.321V1.218h24.875l8.803 8.81v34.293H5.15z" fill="#fff" stroke="#192754" stroke-width="2"/><path fill="#004CB3" d="M13.864 24.466V14.13h1.878v10.336zM17.62 24.466V14.13h1.877v10.336zM21.375 24.465V14.13h1.878v10.336zM25.13 24.466V14.13h1.879v10.336z"/><path d="M14.5 22.218l10.643-8.1L26.5 16l-10.777 8.468-1.223-2.25zM13.863 38.56V28.226h1.878V38.56zM17.619 38.56V28.224h1.878V38.56zM21.374 38.56V28.224h1.878V38.56z" fill="#004CB3"/><path d="M30.394 3l-.2 6.745h6.942L30.394 3z" fill="#D7D8E0"/><path d="M29.5 1.158v8.396a1 1 0 001 1h8.39" stroke="#192754" stroke-width="2"/></svg>