<svg width="49" height="46" viewBox="0 0 49 46" fill="none" xmlns="http://www.w3.org/2000/svg"><path d="M8.272 6.826v-.333l-.2-.267-2.56-3.416.26-1.562h27.484a4 4 0 014 4v39.103H8.272V6.826z" fill="#fff" stroke="#192754" stroke-width="2"/><path d="M16.163 39.713l-3.258-3.288L14.22 35.1l1.943 1.954 4.817-4.858 1.314 1.325-6.13 6.192z" fill="#004CB3"/><path d="M1.7 4.548a3.3 3.3 0 116.6 0v7.855H1.7V4.548z" fill="#D7D8E0" stroke="#192754" stroke-width="2"/><path fill="#004CB3" d="M24.172 35.955h8.45v1.879h-8.45zm-11.267-8.457h19.717v1.879H12.905zm0-4.698h19.717v1.879H12.905zm0-4.698h19.717v1.879H12.905zm0-4.699h19.717v1.879H12.905zm0-4.698h19.717v1.879H12.905z"/><path fill="#55D5F1" stroke="#192754" stroke-width="2" d="M43.011 8.765h4.572v25.25h-4.572z"/><path d="M43.011 34.136h4.573v4.295l-2.287 2.942-2.286-2.942v-4.295z" fill="#fff" stroke="#192754" stroke-width="2"/><path d="M43.011 6.353a2.286 2.286 0 014.573 0v3.231H43.01v-3.23z" fill="#EE5C4A" stroke="#192754" stroke-width="2"/></svg>