<svg width="51" height="48" viewBox="0 0 51 48" fill="none" xmlns="http://www.w3.org/2000/svg"><path d="M39 5v42H8V6.667L7.8 6.4 5.057 2.742 5.347 1H35a4 4 0 014 4z" stroke="#000" stroke-width="2"/><path d="M16.47 42L13 38.5l1.4-1.41 2.07 2.08L21.6 34l1.4 1.41L16.47 42z" fill="#000"/><path d="M1 4.5a3.5 3.5 0 117 0V13H1V4.5z" fill="#fff" stroke="#000" stroke-width="2"/><path fill="#000" d="M25 38h9v2h-9zM13 29h21v2H13zM13 24h21v2H13zM13 19h21v2H13zM13 14h21v2H13zM13 9h21v2H13z"/><path stroke="#000" stroke-width="2" d="M45 9h5v27h-5zM45 36h5v4.657l-2.5 3.214-2.5-3.214V36z"/><path d="M45 6.5a2.5 2.5 0 015 0V10h-5V6.5z" fill="#fff" stroke="#000" stroke-width="2"/></svg>