<svg width="52" height="46" viewBox="0 0 52 46" fill="none" xmlns="http://www.w3.org/2000/svg"><path d="M21.136 35.802h9.761l1.24 8.506H19.897l1.24-8.506z" fill="#D7D8E0" stroke="#192754" stroke-width="2"/><mask id="a" fill="#fff"><rect x=".76" y=".505" width="50.514" height="35.987" rx="1"/></mask><rect x=".76" y=".505" width="50.514" height="35.987" rx="1" fill="#D7D8E0" stroke="#192754" stroke-width="4" mask="url(#a)"/><mask id="b" fill="#fff"><rect x=".76" y=".505" width="50.514" height="29.132" rx="1"/></mask><rect x=".76" y=".505" width="50.514" height="29.132" rx="1" fill="#fff" stroke="#192754" stroke-width="4" mask="url(#b)"/><path d="M23.733 15.5c0 4.416-3.578 7.996-7.99 7.996-4.412 0-7.99-3.58-7.99-7.997s3.578-7.996 7.99-7.996c4.412 0 7.99 3.58 7.99 7.996z" fill="#F4F6FF" stroke="#004CB3" stroke-width="2"/><path d="M14.258 19.644l-3.357-3.329 1.354-1.34 2.003 1.978 4.964-4.918 1.355 1.341-6.319 6.268z" fill="#EE5C4A"/><path fill="#004CB3" d="M28.158 10.787h16.267v1.714H28.158zM28.158 15.071h16.267v1.714H28.158zM28.158 19.355h16.267v1.714H28.158z"/><path d="M16.171 44.451c0-.473.384-.856.857-.856h17.978a.857.857 0 110 1.713H17.028a.857.857 0 01-.857-.857zM23.877 31.351h4.281v1.714h-4.281z" fill="#192754"/></svg>