<svg width="51" height="62" viewBox="0 0 51 62" fill="none" xmlns="http://www.w3.org/2000/svg"><path d="M2 48V17.53L26 1.21l24 16.32V48H2z" fill="#fff" stroke="#000" stroke-width="2"/><path d="M8 22.027V7h36v15.027L26 32.834 8 22.027z" fill="#fff" stroke="#000" stroke-width="2"/><path fill="#000" d="M22 11h17v2H22zM22 16h17v2H22zM22 21h17v2H22zM22 26h15l-2 2H22v-2z"/><path fill="#000" stroke="#000" stroke-width="2" d="M13 12h5v5h-5z"/><path d="M13 22h5v5h-5v-5z" fill="#fff" stroke="#000" stroke-width="2"/><path d="M26.515 32.858L50 18.766V48H2V18.766l23.485 14.092.515.308.515-.308z" fill="#fff" stroke="#000" stroke-width="2"/><path d="M50 18.5l-47.5 29M49.5 47.5l-48-29" stroke="#000" stroke-width="2"/></svg>