<svg width="47" height="58" viewBox="0 0 47 58" fill="none" xmlns="http://www.w3.org/2000/svg"><path fill="#004CB3" d="M13.88 15.554h23.473v1.879H13.88zM13.88 26.83h23.473v1.879H13.88zM13.88 32.468h23.473v1.879H13.88zM13.88 9.916h23.473v1.879H13.88zM13.88 21.192h23.473v1.879H13.88z"/><path d="M8.472 7.262v-.333l-.2-.267-2.63-3.51.271-1.632h33.012a4 4 0 014 4v35.23a5 5 0 01-5 5H8.472V7.262z" stroke="#192754" stroke-width="2"/><path d="M1.735 4.88a3.36 3.36 0 116.72 0v8.124h-6.72V4.88z" fill="#D7D8E0" stroke="#192754" stroke-width="2"/><path d="M31.78 55.296V39.294h10.206v16.002l-4.578-2.82-.525-.322-.524.322-4.579 2.82z" fill="#55D5F1" stroke="#192754" stroke-width="2"/><path d="M45.88 36.483c0 5.195-4.209 9.405-9.398 9.405-5.188 0-9.396-4.21-9.396-9.405 0-5.195 4.208-9.405 9.397-9.405 5.188 0 9.396 4.21 9.396 9.405z" fill="#F4F6FF" stroke="#192754" stroke-width="2"/><path d="M41.047 36.414a4.636 4.636 0 01-4.633 4.638 4.636 4.636 0 01-4.634-4.638 4.636 4.636 0 014.634-4.637 4.636 4.636 0 014.633 4.637z" fill="#EE5C4A" stroke="#192754" stroke-width="2"/></svg>