<svg width="56" height="41" viewBox="0 0 56 41" fill="none" xmlns="http://www.w3.org/2000/svg"><path d="M1.98 1.143v0h43.212v30.266H1.979V1.143z" fill="#F4F6FF" stroke="#000" stroke-width="2"/><path fill-rule="evenodd" clip-rule="evenodd" d="M2.98 3.576v26.833h41.212V3.572L24.918 20.824a2 2 0 01-2.668 0L2.98 3.576zm39.81-1.433H4.377l19.207 17.19L42.79 2.144zm-41.81-1a1 1 0 011-1h43.212a1 1 0 011 1v30.266a1 1 0 01-1 1H1.979a1 1 0 01-1-1V1.143z" fill="#192754"/><path d="M1.85 31.43l15.215-15.644m27.823 15.156L28.803 15.786" stroke="#192754" stroke-width="2"/><path d="M54.357 29.773c0 5.603-4.538 10.144-10.136 10.144-5.596 0-10.135-4.54-10.135-10.144 0-5.603 4.538-10.144 10.136-10.144 5.596 0 10.135 4.54 10.135 10.144z" fill="#fff" stroke="#004CB3" stroke-width="2"/><path d="M42.387 34.916l-4.161-4.126 1.678-1.662 2.483 2.452 6.152-6.094 1.679 1.662-7.831 7.768z" fill="#EE5C4A"/></svg>