<svg width="51" height="50" viewBox="0 0 51 50" fill="none" xmlns="http://www.w3.org/2000/svg"><path d="M2.625 44.488h45.884v3.638H2.625v-3.638z" fill="#D7D8E0" stroke="#192754" stroke-width="2"/><path d="M10.679 28.514h29.776l8.337 15.854H2.342l8.337-15.854z" fill="#F4F6FF" stroke="#192754" stroke-width="2"/><path d="M17.244 28.514H33.89l4.876 15.854H12.368l4.876-15.854z" fill="#55D5F1" stroke="#192754" stroke-width="2"/><path d="M37.242 13.273c0 1.336-.527 3.17-1.454 5.315-.916 2.117-2.173 4.43-3.532 6.692-2.697 4.49-5.745 8.693-7.159 10.589-1.413-1.896-4.46-6.1-7.159-10.59-1.358-2.26-2.615-4.574-3.53-6.691-.928-2.144-1.455-3.979-1.455-5.315 0-6.714 5.438-12.155 12.144-12.155 6.707 0 12.145 5.441 12.145 12.155z" fill="#EE5C4A" stroke="#192754" stroke-width="2"/><ellipse cx="25.097" cy="13.273" rx="8.45" ry="8.457" fill="#fff"/><path d="M23.048 17.032l-3.584-3.29 1.446-1.324 2.138 1.954 5.298-4.858 1.446 1.325-6.744 6.193z" fill="#004CB3"/></svg>