<svg width="36" height="51" viewBox="0 0 36 51" fill="none" xmlns="http://www.w3.org/2000/svg"><path d="M1.271 12.53h33.68v37.465H1.27V12.53z" fill="#F4F6FF" stroke="#192754" stroke-width="2"/><path fill="#55D5F1" stroke="#192754" stroke-width="2" d="M15.355 37.9h6.45v12.095h-6.45z"/><path d="M18.172 1.254h7.572l2.236 2.289-2.236 2.288h-7.572V1.254z" fill="#EE5C4A" stroke="#192754" stroke-width="2"/><path d="M18.171 2v10" stroke="#192754" stroke-width="2"/><path fill="#D7D8E0" stroke="#192754" stroke-width="2" d="M6.905 18.167h4.572v4.578H6.905zM6.905 28.503h4.572v4.578H6.905zM6.905 37.9h4.572v4.578H6.905zM16.294 18.167h4.572v4.578h-4.572zM25.683 18.167h4.572v4.578h-4.572zM25.683 28.503h4.572v4.578h-4.572zM25.683 37.9h4.572v4.578h-4.572zM16.294 28.503h4.572v4.578h-4.572z"/></svg>