<svg width="42" height="56" viewBox="0 0 42 56" fill="none" xmlns="http://www.w3.org/2000/svg"><path d="M1 55V9h40v46H1z" stroke="#000" stroke-width="2"/><path fill="#000" d="M20 17h15v2H20zm0 4h15v2H20zm0 9h15v2H20zm0 13h15v2H20zm0-9h15v2H20zm0 13h15v2H20z"/><path fill="#000" stroke="#000" stroke-width="2" d="M7 17h7v7H7z"/><path stroke="#000" stroke-width="2" d="M7 30h7v7H7zm0 13h7v7H7z"/><mask id="a" fill="#fff"><path fill-rule="evenodd" clip-rule="evenodd" d="M21 0a4.889 4.889 0 00-4.889 4.889V5H14a3 3 0 00-3 3v5h20V8a3 3 0 00-3-3h-2.111v-.111A4.89 4.89 0 0020.999 0z"/></mask><path fill-rule="evenodd" clip-rule="evenodd" d="M21 0a4.889 4.889 0 00-4.889 4.889V5H14a3 3 0 00-3 3v5h20V8a3 3 0 00-3-3h-2.111v-.111A4.89 4.89 0 0020.999 0z" fill="#fff"/><path d="M16.111 5v2h2V5h-2zM11 13H9v2h2v-2zm20 0v2h2v-2h-2zm-5.111-8h-2v2h2V5zm-7.778-.111A2.889 2.889 0 0121 2v-4a6.889 6.889 0 00-6.889 6.889h4zm0 .111v-.111h-4V5h4zM14 7h2.111V3H14v4zm-1 1a1 1 0 011-1V3a5 5 0 00-5 5h4zm0 5V8H9v5h4zm18-2H11v4h20v-4zm-2-3v5h4V8h-4zm-1-1a1 1 0 011 1h4a5 5 0 00-5-5v4zm-2.111 0H28V3h-2.111v4zm-2-2.111V5h4v-.111h-4zM20.999 2a2.889 2.889 0 012.89 2.889h4A6.889 6.889 0 0020.999-2v4z" fill="#000" mask="url(#a)"/></svg>