<svg width="40" height="54" viewBox="0 0 40 54" fill="none" xmlns="http://www.w3.org/2000/svg"><path d="M1.2 9.007h37.434V52.11H1.199V9.007z" stroke="#192754" stroke-width="2"/><path fill="#004CB3" d="M18.977 16.464h14.084v1.879H18.977zm0 3.758h14.084v1.879H18.977zm0 8.457h14.084v1.879H18.977zm0 12.215h14.084v1.879H18.977zm0-8.456h14.084v1.879H18.977zm0 12.215h14.084v1.879H18.977z"/><path fill="#EE5C4A" stroke="#192754" stroke-width="2" d="M6.833 16.524h6.45v6.457h-6.45z"/><path fill="#D7D8E0" stroke="#192754" stroke-width="2" d="M6.833 28.739h6.45v6.457h-6.45zm0 12.216h6.45v6.457h-6.45z"/><mask id="a" fill="#fff"><path fill-rule="evenodd" clip-rule="evenodd" d="M19.916.49a4.59 4.59 0 00-4.59 4.59v.108h-1.799a3 3 0 00-3 3v4.517h18.779V8.188a3 3 0 00-3-3h-1.8V5.08a4.59 4.59 0 00-4.59-4.59z"/></mask><path fill-rule="evenodd" clip-rule="evenodd" d="M19.916.49a4.59 4.59 0 00-4.59 4.59v.108h-1.799a3 3 0 00-3 3v4.517h18.779V8.188a3 3 0 00-3-3h-1.8V5.08a4.59 4.59 0 00-4.59-4.59z" fill="#D7D8E0"/><path d="M15.326 5.188v2h2v-2h-2zm-4.799 7.517h-2v2h2v-2zm18.779 0v2h2v-2h-2zm-4.8-7.517h-2v2h2v-2zm-7.18-.108a2.59 2.59 0 012.59-2.59v-4a6.59 6.59 0 00-6.59 6.59h4zm0 .108V5.08h-4v.108h4zm-3.799 2h1.8v-4h-1.8v4zm-1 1a1 1 0 011-1v-4a5 5 0 00-5 5h4zm0 4.517V8.188h-4v4.517h4zm16.779-2H10.527v4h18.779v-4zm-2-2.517v4.517h4V8.188h-4zm-1-1a1 1 0 011 1h4a5 5 0 00-5-5v4zm-1.8 0h1.8v-4h-1.8v4zm-2-2.108v.108h4V5.08h-4zm-2.59-2.59a2.59 2.59 0 012.59 2.59h4a6.59 6.59 0 00-6.59-6.59v4z" fill="#192754" mask="url(#a)"/></svg>