<svg width="53" height="53" viewBox="0 0 53 53" fill="none" xmlns="http://www.w3.org/2000/svg"><path d="M2 47.156h49v4H2v-4z" stroke="#000" stroke-width="2"/><path d="M10.604 30.156h31.792l8.948 17H1.656l8.948-17z" fill="#fff" stroke="#000" stroke-width="2"/><path d="M17.587 30.156h17.826l5.233 17H12.354l5.233-17z" fill="#fff" stroke="#000" stroke-width="2"/><path d="M39 14c0 1.444-.573 3.421-1.572 5.72-.986 2.273-2.34 4.755-3.798 7.175-2.896 4.806-6.157 9.289-7.63 11.26-1.473-1.971-4.734-6.454-7.63-11.26-1.458-2.42-2.812-4.902-3.799-7.174C13.574 17.42 13 15.444 13 14c0-7.18 5.82-13 13-13s13 5.82 13 13z" fill="#fff" stroke="#000" stroke-width="2"/><path d="M24.205 22.156L19 16.906l2.1-2.115 3.105 3.12 7.695-7.755 2.1 2.115-9.795 9.885z" fill="#000"/></svg>