<svg xmlns="http://www.w3.org/2000/svg" width="50" height="50" fill="none" viewBox="0 0 50 50"><path fill="#fff" stroke="#192754" stroke-width="2" d="M8 8.018h33.21v35.719H8V8.017z"/><mask id="a" fill="#fff"><path fill-rule="evenodd" d="M24.296 0a4.027 4.027 0 0 0-4.027 4.027v.094h-1.21a3 3 0 0 0-3 3v3.594h16.473V7.121a3 3 0 0 0-3-3h-1.21v-.094A4.026 4.026 0 0 0 24.296 0z" clip-rule="evenodd"/></mask><path fill="#D7D8E0" fill-rule="evenodd" d="M24.296 0a4.027 4.027 0 0 0-4.027 4.027v.094h-1.21a3 3 0 0 0-3 3v3.594h16.473V7.121a3 3 0 0 0-3-3h-1.21v-.094A4.026 4.026 0 0 0 24.296 0z" clip-rule="evenodd"/><path fill="#192754" d="M20.27 4.121v2h2v-2h-2zm-4.21 6.594h-2v2h2v-2zm16.472 0v2h2v-2h-2zm-4.21-6.594h-2v2h2v-2zm-6.053-.094c0-1.12.908-2.027 2.027-2.027v-4a6.027 6.027 0 0 0-6.027 6.027h4zm0 .094v-.094h-4v.094h4zm-3.21 2h1.21v-4h-1.21v4zm-1 1a1 1 0 0 1 1-1v-4a5 5 0 0 0-5 5h4zm0 3.594V7.121h-4v3.594h4zm14.473-2H16.06v4h16.472v-4zm-2-1.594v3.594h4V7.121h-4zm-1-1a1 1 0 0 1 1 1h4a5 5 0 0 0-5-5v4zm-1.21 0h1.21v-4h-1.21v4zm-2-2.094v.094h4v-.094h-4zM24.296 2c1.12 0 2.026.907 2.026 2.027h4A6.027 6.027 0 0 0 24.296-2v4z" mask="url(#a)"/><path fill="#FF6D2F" stroke="#192754" stroke-width="2" d="M30.708 42.418a6.415 6.415 0 0 1-6.412 6.419 6.415 6.415 0 0 1-6.413-6.419A6.415 6.415 0 0 1 24.296 36a6.415 6.415 0 0 1 6.412 6.418z"/><path fill="#fff" d="M20.011 41.703h8.57v1.429h-8.57z"/><path fill="#fff" d="M25.01 38.13v8.577h-1.428V38.13z"/><path fill="#008881" d="M22.648 13.959h13.178v2H22.648zm0 11.54h13.178v2H22.648zm0-7.243h13.178v2H22.648zm0 11.54h13.178v2H22.648z"/><path fill="#FF6D2F" stroke="#192754" stroke-width="2" d="M12.942 14.135h5.412v5.418h-5.412z"/><path fill="#D7D8E0" stroke="#192754" stroke-width="2" d="M12.942 25.674h5.412v5.418h-5.412z"/></svg>