<svg xmlns="http://www.w3.org/2000/svg" id="Layer_1" width="50" height="50" viewBox="0 0 1250 1250"><defs><clipPath id="clippath"><circle cx="406.33" cy="757.25" r="186.32" class="cls-2"/></clipPath><style>.cls-2,.cls-3{fill:none}.cls-2{stroke-width:27.77px}.cls-2,.cls-3,.cls-4,.cls-5{stroke:#1c2854;stroke-miterlimit:10}.cls-3{stroke-width:39.61px}.cls-4,.cls-5{fill:#fff;stroke-width:11.41px}.cls-5{fill:#ee5c4a}</style></defs><path d="m157.35 287.13 505.38-177.12 430.42 89.28-1.55 856.94-400.55 125.44-535.03-158.9 1.33-735.64Z" style="fill:#67dacc"/><path d="m143.74 438.72 505.49.87 430.91 19.98.31-267.29-428.99-87.03-503.53 171.77-4.19 161.7z" style="fill:#d6d7e0"/><path d="m811.98 221.71 266.41 43.15" class="cls-3"/><path id="_Slice_" d="M676.02 1185.66h26.35v13.93h-26.35z" style="fill:none" transform="rotate(-88.52 689.142 1192.61)"/><path d="m796.47 305.88 254.86 31.32m-378.14 842.18L662.73 110.01m-2.45 344.1-507.24-.55m494.53 2.9 436.54 1.09M736.13 130.73l-.37 329.57m331.4-211.4-65.56 221.22m-168.97-256.2L735.76 460.3m92.01-234.01-91.66-85.07m339.84 128.07-89.84-84.52m-152.54 42.42 244.82 37.67" class="cls-3"/><path d="m1029.22 343.71-225.99-31.34 6.94-45.7 225.99 31.34-6.94 45.7z" style="fill:#1c2854"/><path d="m147.97 287.35 505.38-177.12 430.42 89.28-1.55 856.94-409.15 109.77c-175.48-47.74-350.95-95.49-526.43-143.23l1.33-735.64Z" class="cls-3"/><g style="clip-path:url(#clippath)"><path d="m106.42 600.118 583.935 15.087-1.102 42.626-583.935-15.087z" class="cls-4"/><path d="m105.309 642.755 583.935 15.087-1.101 42.626-583.935-15.087z" class="cls-5"/><path d="m104.208 685.383 583.935 15.086-1.101 42.626-583.935-15.087z" class="cls-4"/><path d="m103.108 728 583.935 15.087-1.101 42.625-583.936-15.087z" class="cls-5"/><path d="m102.007 770.627 583.935 15.087-1.101 42.626-583.935-15.087z" class="cls-4"/><path d="m100.906 813.264 583.936 15.087-1.102 42.626L99.805 855.89zm6.604-255.774 583.935 15.088-1.1 42.625-583.936-15.087z" class="cls-5"/><path d="M104.67 561.34h299.57v213.21H104.67z" style="fill:#2a60a9;stroke-width:11.41px;stroke:#1c2854;stroke-miterlimit:10" transform="rotate(1.48 254.893 669.62)"/><path d="m99.796 855.892 583.935 15.086-1.101 42.626-583.936-15.087z" class="cls-4"/><path d="m98.705 898.519 583.935 15.087-1.101 42.626-583.935-15.087z" class="cls-5"/><path d="m170.3 592.87-15.26-1.19-7.66-13.25-5.85 14.14-14.96 3.2 11.64 9.93-1.59 15.22 13.05-8 13.98 6.21-3.58-14.88 10.23-11.38zm-.67 60.91-15.25-1.19-7.67-13.25-5.85 14.14-14.96 3.2 11.64 9.93-1.58 15.22 13.04-8 13.98 6.21-3.57-14.88 10.22-11.38zm53.6-23.24-15.25-1.2-7.67-13.24-5.85 14.14-14.96 3.2 11.64 9.93-1.59 15.22 13.05-8 13.98 6.21-3.58-14.88 10.23-11.38zm-2.3 63.39-15.25-1.19-7.67-13.25-5.85 14.14-14.96 3.2 11.64 9.93-1.59 15.22 13.05-8 13.98 6.21-3.58-14.88 10.23-11.38zm-57.75 25.57-15.25-1.2-7.66-13.24-5.85 14.14-14.97 3.19 11.64 9.94-1.58 15.22 13.04-8 13.98 6.21-3.57-14.88 10.22-11.38zm118.55-121.79-15.26-1.2-7.66-13.24-5.85 14.14-14.97 3.2 11.64 9.93-1.58 15.22 13.04-8 13.99 6.21-3.58-14.88 10.23-11.38zm-.67 60.91-15.25-1.19-7.67-13.25-5.85 14.14-14.96 3.2 11.64 9.93-1.59 15.22 13.05-8 13.98 6.21-3.58-14.88 10.23-11.38zm53.6-23.24-15.26-1.2-7.66-13.24-5.85 14.14-14.96 3.19 11.63 9.94-1.58 15.22 13.04-8 13.99 6.21-3.58-14.88 10.23-11.38zm-2.3 63.39-15.26-1.19-7.66-13.25-5.85 14.14-14.96 3.2 11.64 9.93-1.59 15.22 13.05-8 13.98 6.21-3.58-14.88 10.23-11.38zm51.54-98.99-15.25-1.2-7.67-13.24-5.85 14.14-14.96 3.19 11.64 9.94-1.59 15.21 13.05-8 13.98 6.21-3.58-14.87 10.23-11.38zm2.63 61.57-15.26-1.19-7.66-13.25-5.85 14.14-14.97 3.2 11.64 9.93-1.58 15.22 13.04-8 13.99 6.21-3.58-14.88 10.23-11.38zm-1.72 66.42-15.26-1.2-7.66-13.24-5.85 14.14-14.97 3.2 11.64 9.93-1.58 15.22 13.04-8 13.99 6.21-3.58-14.88 10.23-11.38zm-110.2-3.43-15.25-1.2-7.67-13.24-5.85 14.14-14.96 3.19 11.64 9.94-1.59 15.22 13.05-8 13.98 6.2-3.58-14.87 10.23-11.38z" style="fill:#f3f4fa"/></g><circle cx="406.33" cy="757.25" r="186.32" class="cls-2"/></svg>