<svg xmlns="http://www.w3.org/2000/svg" width="50" height="50" fill="none" viewBox="0 0 50 50"><path fill="#fff" stroke="#192754" stroke-width="2" d="M5 17h40v31H5V17z"/><path fill="#EAECF5" d="M47 13H3a1 1 0 0 0-1 1v5a1 1 0 0 0 1 1h44a1 1 0 0 0 1-1v-5a1 1 0 0 0-1-1z"/><path fill="#D7D8E0" d="M37.65 6h-25.3a1 1 0 0 0-.624.22l-7.5 6c-.738.59-.32 1.78.625 1.78h40.298c.945 0 1.363-1.19.625-1.78l-7.5-6a1 1 0 0 0-.625-.22z"/><path stroke="#192754" stroke-width="2" d="M9.414 7h31.172L48 14.414V20.5H2v-6.086L9.414 7z"/><path fill="#17234C" d="M15.293 10.04a.1.1 0 0 1 .08-.04h18.814a.1.1 0 0 1 .08.04l1.173 1.56a.1.1 0 0 1-.08.16H14.2a.1.1 0 0 1-.08-.16l1.173-1.56z"/><path stroke="#192754" stroke-width="2" d="M2 14.5h45"/><path fill="#FF6D2F" d="M12.858 28.478a.2.2 0 0 1 .372 0l1.2 3.075a.2.2 0 0 0 .175.127l3.295.19a.2.2 0 0 1 .115.355l-2.553 2.092a.2.2 0 0 0-.067.205l.837 3.193a.2.2 0 0 1-.302.22l-2.778-1.783a.2.2 0 0 0-.216 0l-2.778 1.782a.2.2 0 0 1-.302-.219l.837-3.193a.2.2 0 0 0-.067-.205l-2.553-2.092a.2.2 0 0 1 .115-.354l3.295-.191a.2.2 0 0 0 .174-.127l1.2-3.075z"/><path fill="#008881" d="M24.564 28.477a.2.2 0 0 1 .372 0l1.2 3.075a.2.2 0 0 0 .175.127l3.295.191a.2.2 0 0 1 .115.355l-2.553 2.091a.2.2 0 0 0-.067.206l.837 3.193a.2.2 0 0 1-.302.219l-2.778-1.782a.2.2 0 0 0-.216 0l-2.778 1.782a.2.2 0 0 1-.302-.22l.837-3.192a.2.2 0 0 0-.067-.206l-2.553-2.091a.2.2 0 0 1 .115-.355l3.295-.191a.2.2 0 0 0 .174-.127l1.2-3.075z"/><path fill="#FF6D2F" d="M36.258 28.477a.2.2 0 0 1 .372 0l1.2 3.075a.2.2 0 0 0 .175.127l3.295.191a.2.2 0 0 1 .116.355l-2.554 2.091a.2.2 0 0 0-.067.206l.837 3.193a.2.2 0 0 1-.302.219l-2.778-1.782a.2.2 0 0 0-.216 0l-2.778 1.782a.2.2 0 0 1-.302-.22l.837-3.192a.2.2 0 0 0-.067-.206l-2.553-2.091a.2.2 0 0 1 .115-.355l3.295-.191a.2.2 0 0 0 .175-.127l1.2-3.075z"/><path stroke="#17234C" stroke-width="2" d="M19 11V2.3a.3.3 0 0 1 .3-.3h11.4a.3.3 0 0 1 .3.3V11"/><path fill="#fff" d="M20 3h10v7H20z"/></svg>