<svg xmlns="http://www.w3.org/2000/svg" width="50" height="50" fill="none" viewBox="0 0 50 50"><path fill="#D7D8E0" stroke="#192754" stroke-width="2" d="M6.2 49V4.846h27.927l3.536 3.096 3.046 3.049v38.01H6.2z"/><path fill="#fff" stroke="#192754" stroke-width="2" d="M10.042 45.154V1H35.53l9.022 9.03v35.124h-34.51z"/><path fill="#008881" d="M18.298 31.329h18.419v2H18.298zm0 4.094h18.419v2H18.298z"/><path fill="#D7D8E0" d="M35.694 2.55v7.03h7.104l-7.104-7.03z"/><path stroke="#192754" stroke-width="2" d="M34.984.962v8.615a1 1 0 0 0 1 1h8.608"/><path fill="#67DACC" stroke="#008881" stroke-width="2" d="M30.263 13.736a3.106 3.106 0 0 1-3.111 3.121 3.117 3.117 0 0 1-3.125-3.12 3.117 3.117 0 0 1 3.125-3.121 3.105 3.105 0 0 1 3.11 3.12zm-3.015 6.628c-2.638 0-7.927 1.326-7.927 3.966v2.834h15.854V24.33c0-2.64-5.288-3.966-7.927-3.966z"/></svg>