<svg xmlns="http://www.w3.org/2000/svg" width="50" height="50" fill="none" viewBox="0 0 50 50"><path fill="#67DACC" stroke="#192754" stroke-width="2" d="m13.813 39.947-6.615 1.687 7.879-16.167 10.522 5.136L17.72 46.77l-2.744-6.255-.341-.777-.822.21z"/><path fill="#67DACC" stroke="#192754" stroke-width="2" d="m36.985 39.947 6.614 1.687-7.878-16.167-10.522 5.136 7.878 16.167 2.745-6.255.34-.777.823.21z"/><path fill="#FF9162" stroke="#192754" stroke-width="2" d="M40.615 17.256c0 8.639-6.997 15.64-15.626 15.64-8.63 0-15.627-7.001-15.627-15.64 0-8.638 6.997-15.64 15.627-15.64s15.626 7.002 15.626 15.64z"/><path fill="#F4F6FF" stroke="#192754" stroke-width="2" d="M36.656 17.256c0 6.45-5.225 11.678-11.668 11.678-6.444 0-11.668-5.228-11.668-11.678 0-6.45 5.224-11.678 11.668-11.678 6.443 0 11.668 5.228 11.668 11.678z"/><path fill="#008881" d="m22.442 24.009-4.844-5.034 1.955-2.027 2.889 2.991 7.16-7.435 1.955 2.028-9.115 9.477z"/></svg>