<svg width="50" height="51" viewBox="0 0 50 51" fill="none" xmlns="http://www.w3.org/2000/svg"><path d="M12.633 46.668v-21.52h4.43v21.52a2.214 2.214 0 11-4.43 0z" fill="#FF6D2F" stroke="#192754" stroke-width="2"/><path d="M19.584 11.215L40.06 2.401v37.065l-20.476-8.814V11.215z" fill="#F4F6FF" stroke="#192754" stroke-width="2"/><mask id="a" fill="#fff"><rect x="8.878" y="9.952" width="11.939" height="22.058" rx="1"/></mask><rect x="8.878" y="9.952" width="11.939" height="22.058" rx="1" fill="#D7D8E0" stroke="#192754" stroke-width="4" mask="url(#a)"/><mask id="b" fill="#fff"><rect x="5.205" y="12.71" width="5.51" height="16.544" rx="1"/></mask><rect x="5.205" y="12.71" width="5.51" height="16.544" rx="1" fill="#D7D8E0" stroke="#192754" stroke-width="4" mask="url(#b)"/><path d="M4.949 17.37H6.04v7.223H4.949a3.612 3.612 0 010-7.224z" fill="#67DACC" stroke="#192754" stroke-width="2"/><path d="M43.1 21.9h6.36m-6.444-3.56l5.887-2.813m-5.887 9.929l5.887 2.814" stroke="#008881" stroke-width="2"/></svg>