<svg xmlns="http://www.w3.org/2000/svg" id="Layer_1" width="50" height="50" viewBox="0 0 1250 1250"><defs><style>.cls-2,.cls-4{stroke-width:44.8px;stroke:#1c2854}.cls-2{fill:#fff}.cls-4{fill:#d7d8e0}</style></defs><circle cx="477.17" cy="275.58" r="125.81" class="cls-4"/><path d="M477.17 447.96c-64.02 0-192.35 37.09-192.35 110.97v200.39c0 7.8 6.32 14.12 14.12 14.12h356.45c7.8 0 14.12-6.32 14.12-14.12V558.93c0-73.87-128.32-110.97-192.35-110.97Z" class="cls-4"/><path d="M137.55 702.99h981.62v444.45H137.55V702.99Z" class="cls-2"/><path d="M1045.09 562.51v130.17H800.33V562.51h244.76Z" style="stroke:#1c2854;stroke-width:44.8px;fill:#67dacc"/><path d="M628.57 1048.42c68.29 0 123-55.03 123-123.21S696.86 802 628.57 802s-123.41 55.03-123.41 123.21 55.13 123.21 123.41 123.21Z" style="fill:#ff6d2f;stroke:#17244c;stroke-width:44.8px"/><circle cx="628.36" cy="924.76" r="47.71" class="cls-2"/></svg>
