<svg xmlns="http://www.w3.org/2000/svg" id="Layer_1" width="50" height="50" viewBox="0 0 1250 1250"><defs><style>.cls-2{stroke-width:46.42px;fill:#d7d8e0;stroke:#17244c}</style></defs><path d="M855.16 122.17c-151.44 0-274.2 102.8-274.2 229.62 0 43.51 14.72 84.04 39.82 118.71l-21.41 114.58 110.36-38.89c42.19 22.19 91.95 35.21 145.44 35.21 151.44 0 274.2-102.8 274.2-229.61s-122.76-229.62-274.2-229.62Z" style="stroke:#1c2854;stroke-width:46.42px;fill:#fff"/><circle cx="855.16" cy="258.65" r="52.13" class="cls-2"/><path d="M855.16 353.62c-29.11 0-87.46 16.87-87.46 50.46v91.11a6.42 6.42 0 0 0 6.42 6.42h162.07c3.55 0 6.42-2.87 6.42-6.42v-91.11c0-33.59-58.35-50.46-87.46-50.46Z" class="cls-2"/><path d="M303.31 381.2c34.53 62.48 69.06 124.97 103.59 187.45-12.64 3.35-81.93 22.69-93.29 71.61-5.73 24.65 5.6 46.72 12.63 59.56 52.95 96.68 203.9 293.22 285.18 258.1 4.65-2 14.53-8.57 34.29-21.66 31.33-20.77 55.88-39.42 72.2-52.34 50.21 37.91 100.43 75.84 150.64 113.76-7.86 29.12-24.47 72.41-62.2 108.24-97.11 92.23-250.14 55.33-292.4 45.14-130-31.35-206.96-115.96-250.88-164.25-48.68-53.52-138.99-171.5-153.42-335.73-5.69-64.8-12.18-138.71 37.9-198.53 51.43-61.42 130.49-69.73 155.75-71.36Z" style="fill:#67dacc;stroke:#1c2854;stroke-width:46.42px"/></svg>