<svg xmlns="http://www.w3.org/2000/svg" width="50" height="50" fill="none" viewBox="0 0 50 50"><path fill="#D7D8E0" stroke="#192754" stroke-width="2" d="M4 7.333h35v41H4v-41z"/><path fill="#D7D8E0" stroke="#192754" stroke-width="2" d="M7 4.333h35v41H7v-41z"/><path fill="#fff" stroke="#192754" stroke-width="2" d="M10 1h35v41H10V1z"/><path fill="#008881" d="M26.275 8.187h13.562v2H26.275z"/><path fill="#004CB3" d="M26.275 11.807h13.562v2H26.275z"/><path fill="#008881" d="M26.275 18.95h13.562v2H26.275zm0 10.763h13.562v2H26.275zm0-7.143h13.562v2H26.275zm0 10.763h13.562v2H26.275z"/><path fill="#FF6D2F" stroke="#192754" stroke-width="2" d="M15.617 8.282h6.137v6.144h-6.137z"/><path fill="#D7D8E0" stroke="#192754" stroke-width="2" d="M15.617 19.045h6.137v6.144h-6.137zm0 10.763h6.137v6.144h-6.137z"/><path fill="#008881" d="M26.275 11.807h13.562v2H26.275z"/></svg>