<svg xmlns="http://www.w3.org/2000/svg" width="50" height="50" fill="none" viewBox="0 0 50 50"><mask id="a" fill="#fff"><rect width="47.963" height="43.102" x="1" y="5.898" rx="1"/></mask><rect width="47.963" height="43.102" x="1" y="5.898" fill="#fff" stroke="#192754" stroke-width="4" mask="url(#a)" rx="1"/><path fill="#67DACC" stroke="#192754" stroke-width="2" d="M2 6.898h45.963v7.796H2V6.898z"/><path fill="#D7D8E0" stroke="#192754" stroke-width="2" d="M5.915 18.653h5.831v5.837H5.915z"/><path fill="#F4F6FF" stroke="#192754" stroke-width="2" d="M5.915 28.448h5.831v5.837H5.915z"/><path fill="#D7D8E0" stroke="#192754" stroke-width="2" d="M5.915 38.244h5.831v5.837H5.915z"/><path fill="#F4F6FF" stroke="#192754" stroke-width="2" d="M16.683 18.653h5.831v5.837h-5.831z"/><path fill="#fff" stroke="#192754" stroke-width="2" d="M16.683 28.448h5.831v5.837h-5.831z"/><path fill="#FF6D2F" stroke="#192754" stroke-width="2" d="M16.683 38.244h5.831v5.837h-5.831z"/><path fill="#F4F6FF" stroke="#192754" stroke-width="2" d="M27.45 18.653h5.831v5.837H27.45z"/><path fill="#D7D8E0" stroke="#192754" stroke-width="2" d="M27.45 28.448h5.831v5.837H27.45zm10.766-9.795h5.831v5.837h-5.831z"/><path fill="#F4F6FF" stroke="#192754" stroke-width="2" d="M38.216 28.448h5.831v5.837h-5.831z"/><rect width="3.873" height="8.775" x="8.852" y="2" fill="#F4F6FF" stroke="#192754" stroke-width="2" rx="1.936"/><rect width="3.873" height="8.775" x="36.26" y="2" fill="#F4F6FF" stroke="#192754" stroke-width="2" rx="1.936"/></svg>