<svg xmlns="http://www.w3.org/2000/svg" id="Layer_1" width="50" height="50" viewBox="0 0 1250 1250"><defs><style>.cls-2{stroke:#1c2854;stroke-width:31.71px;fill:#d7d8e0}</style></defs><path d="M225.29 480.09c33.92 0 61.09-27.33 61.09-61.19s-27.17-61.19-61.09-61.19S164 385.04 164 418.9s27.38 61.19 61.29 61.19Zm1.12 44.9c-37.28 0-112 20.3-112 60.71v86.52c0 6.14 4.98 11.13 11.13 11.13h201.75c6.14 0 11.13-4.98 11.13-11.13V585.7c0-40.42-74.72-60.71-112-60.71Z" class="cls-2"/><path d="M621.97 412.52c52 0 93.66-41.94 93.66-93.88s-41.66-93.88-93.66-93.88S528 266.69 528 318.64s41.97 93.88 93.97 93.88Zm-.16 37.55c-53.08 0-159.48 30.76-159.48 92.01v166.15c0 6.47 5.24 11.71 11.71 11.71h295.54c6.47 0 11.71-5.24 11.71-11.71V542.08c0-61.25-106.39-92.01-159.48-92.01Z" style="fill:#67dacc;stroke:#1c2854;stroke-width:31.71px"/><path d="M337.29 876.41c33.92 0 61.09-27.33 61.09-61.19s-27.17-61.19-61.09-61.19S276 781.36 276 815.22s27.38 61.19 61.29 61.19Zm1.12 44.9c-37.28 0-112 20.3-112 60.71v86.52c0 6.14 4.98 11.13 11.13 11.13h201.75c6.14 0 11.13-4.98 11.13-11.13v-86.52c0-40.42-74.72-60.71-112-60.71Zm664.76-437.76c33.92 0 61.09-27.33 61.09-61.19s-27.17-61.19-61.09-61.19-61.29 27.33-61.29 61.19 27.38 61.19 61.29 61.19Zm1.12 44.9c-37.28 0-112 20.3-112 60.71v86.52c0 6.14 4.98 11.13 11.13 11.13h201.75c6.14 0 11.13-4.98 11.13-11.13v-86.52c0-40.42-74.72-60.71-112-60.71ZM870.61 879.87c33.92 0 61.09-27.33 61.09-61.19s-27.17-61.19-61.09-61.19-61.29 27.33-61.29 61.19 27.38 61.19 61.29 61.19Zm1.13 44.9c-37.28 0-112 20.3-112 60.71V1072c0 6.14 4.98 11.13 11.13 11.13h201.75c6.14 0 11.13-4.98 11.13-11.13v-86.52c0-40.42-74.72-60.71-112-60.71Z" class="cls-2"/></svg>
