<svg xmlns="http://www.w3.org/2000/svg" id="Layer_1" width="50" height="50" viewBox="0 0 1250 1250"><defs><style>.cls-5{stroke-miterlimit:10;stroke-width:33.84px;fill:none;stroke:#008881}</style></defs><path d="M1028.97 261.42v899.14H249.8V261.42h779.17Z" style="fill:#fff;stroke:#1c2854;stroke-width:33.84px"/><path d="M1028.97 261.43V365.9H249.8V261.43h779.17Z" style="stroke-width:33.84px;stroke-miterlimit:10;fill:#ff6d2f;stroke:#17244c"/><path d="M372.4 886.66h534.01M372.4 995.24h534.01" class="cls-5"/><path d="m948.04 252.22-71.1 76.54-113.67-105.59 71.1-76.54 113.67 105.59Zm91.86-61.08-71.1 76.54-149.57-138.94 71.1-76.54 149.57 138.94Z" style="stroke-width:29.64px;stroke:#1c2854;fill:#73c9c3;stroke-miterlimit:10"/><path d="m911.44 363.28-71.1 76.54-185.73-172.53 71.1-76.54 185.73 172.53Z" style="stroke:#1c2854;stroke-width:29.64px;fill:#67dacc;stroke-miterlimit:10"/><path d="m662.4 470.66-23-21.36 91.02-97.98 23 21.36-91.02 97.98Z" style="fill:#1c2854"/><path d="M372.4 678.66h534.01M372.4 787.24h534.01M372.4 572.23h534.01" class="cls-5"/></svg>