<svg xmlns="http://www.w3.org/2000/svg" width="50" height="50" viewBox="0 0 1250 1250"><path d="M1022.38 92.1v1058.95l-763.81 6.15c-8.01-.38-22.52-2.17-35.22-11.81-22.48-17.05-25.93-48.61-26.95-67.3-3.08-55.94-7.41-417.26-9.56-910.27 1.19-17.41 5.99-40.28 23.01-56.27 18.69-17.58 43.77-19.45 54.79-19.45h757.74Z" style="fill:#d7d8e0;stroke:#1c2854;stroke-width:37.88px"/><path d="M1022.38 1157.2v-153.56H275.9s-70.38 12.8-68.25 76.79c2.13 63.98 57.59 76.78 57.59 76.78h757.14Z" style="fill:#fff;stroke:#1c2854;stroke-width:37.88px"/><path d="M196.4 1080.41h825.98" style="fill:none;stroke-miterlimit:10;stroke:#1c2854;stroke-width:37.88px"/><path d="m667.22 291.23 67.02 95.59-144.23 101.12-67.02-95.59 144.23-101.12Zm55.72-53.257 80.016 112.386a1.276 1.276 0 0 1-.3 1.785l-58.93 41.956-81.57-114.568 58.832-41.887a1.404 1.404 0 0 1 1.953.328ZM496.05 395.2l81.57 114.57-58.93 41.956a1.276 1.276 0 0 1-1.784-.3L436.89 439.04a1.404 1.404 0 0 1 .329-1.952L496.05 395.2Zm195.596 26.924 215.966 303.333c.25.35.167.838-.183 1.088l-53.643 38.192a.781.781 0 0 1-1.088-.183L636.732 461.221l54.914-39.097Z" style="fill:#67dacc;stroke:#1c2854;stroke-width:37.88px"/><path d="M430.73 781.84h204.28v68.65H430.73z" style="fill:#ff6d2f;stroke:#1c2854;stroke-width:37.88px"/><path d="M319 88c1.03 298.68 2.05 597.37 3.08 896.05" style="fill:#62cae7;stroke:#1c2854;stroke-width:37.88px"/></svg>