<svg xmlns="http://www.w3.org/2000/svg" id="Layer_1" width="50" height="50" viewBox="0 0 1250 1250"><defs><style>.cls-3{stroke:#1c2854}.cls-7{stroke-linejoin:round}.cls-8{fill:#f3f4fa}.cls-3{fill:#67dacc;stroke-width:21.67px}.cls-7{fill:#1c2854;stroke:#67dacc;stroke-width:31.24px}</style></defs><circle cx="309.21" cy="1007.27" r="48.6" style="fill:#62cae7;stroke-width:35.15px;stroke-linejoin:round;stroke:#1c2854"/><ellipse cx="309.21" cy="1007.02" class="cls-3" rx="99.95" ry="102.04"/><ellipse cx="971.59" cy="1007.02" class="cls-3" rx="99.95" ry="102.04"/><circle cx="309.21" cy="1007.27" r="63.14" class="cls-7"/><circle cx="971.59" cy="1007.27" r="63.14" class="cls-7"/><path d="M1130.31 334.05v654.23H103.38V689.6l116.04-129.45c29.92-74.22 59.83-148.43 89.75-222.65l821.14-3.45Z" style="stroke-linejoin:round;stroke-width:24.04px;stroke:#1c2854;stroke-linecap:round;fill:#d7d8e0"/><path d="M346.18 953.57h56.53v-83.35h-56.53" style="stroke-width:19.94px;fill:#fff;stroke:#1c2854"/><path d="M265.97 988.29v-77.54c-.41-30.35-.83-60.7-1.24-91.05 58.16 8.07 143.59 11.47 234.85-21.13 140.56-50.2 181.08-145.13 321.79-232.27 64.97-40.24 164.44-86.95 308.93-105.71V988.3H265.97Z" style="fill:#008780;stroke:#1b2954;stroke-width:23.03px"/><path d="M643.81 847.2c88.05-53.84 120.25-114.21 232.65-173.41 97.34-51.27 190.28-67.65 253.85-73.44v387.94H265.97V917c187.54 18.49 304.72-25.1 377.83-69.8Z" style="fill:#ff6d2f;stroke:#17244c;stroke-miterlimit:10;stroke-width:23.83px"/><path d="M774.36 890.97c62.27-49.11 120.93-89.22 147.78-105.9 43.39-26.96 110.58-59.42 208.83-75.81-.22 93.01-.45 186.01-.67 279.01-189.05.28-378.1.55-567.15.82 36.91-4.41 89.55-15.64 143.37-47.59 23.79-14.12 35.24-24.83 67.84-50.54Z" style="stroke:#17244b;stroke-width:21.97px;fill:#008780"/><path d="m961.36 616.42-29.63-5.04-20.96 21.55-4.36-29.74-26.97-13.27 26.94-13.33 4.28-29.75 21.01 21.49 29.62-5.12-13.95 26.63 14.02 26.58zM1073 576.75l-29.23-6.99-22.33 20.12-2.39-29.96-26.03-15.02 27.76-11.53 6.24-29.4 19.54 22.84 29.89-3.16-15.68 25.65 12.23 27.45zm-220.17 91.52-30.05-.57-17.51 24.44-8.74-28.76-28.65-9.1 24.65-17.2-.2-30.06 23.98 18.13 28.52-9.48-9.83 28.4 17.83 24.2zm-91.94 66.32-27.82 6.32-10.57 26.51-14.61-24.51-28.47-1.86 18.8-21.47-7.03-27.66 26.22 11.25 24.13-15.24-2.59 28.42 21.94 18.24zm-98.38 82.62-28.02 1.96-14.28 24.19-10.52-26.05-27.42-6.1 21.52-18.05-2.66-27.97 23.82 14.89 25.77-11.18-6.81 27.26 18.6 21.05zm-108.24 57.43-26.7-5.81-19.92 18.7-2.73-27.19-23.94-13.17 25.01-10.99 5.13-26.84 18.19 20.39 27.11-3.42-13.78 23.6 11.63 24.73zm-123.3 30.96-24.82-11.41-23.49 13.97 3.19-27.14-20.55-18.01 26.8-5.35 10.78-25.11 13.37 23.83 27.22 2.49-18.53 20.08 6.03 26.65z" class="cls-8"/><path d="M929.33 908.17a491.384 491.384 0 0 1 67.47-41.44c50.19-25.49 97-38.36 133.47-45.16.01 55.57.02 111.14.04 166.71H810.36l118.97-80.12Z" style="stroke:#17244c;stroke-miterlimit:10;stroke-width:23.83px;fill:#f26d33"/><path d="m1100.15 807.85-28.52-6.24-21.32 19.96-2.87-29.06-25.57-14.1 26.74-11.72 5.52-28.67 19.4 21.81 28.98-3.61-14.75 25.2 12.39 26.43zm-121.84 49.47-27.7 1.28-14.64 23.54-9.77-25.94-26.91-6.65 21.65-17.32-1.99-27.65 23.15 15.24 25.68-10.43-7.34 26.73 17.87 21.2zm-115.23 78.49-27.23 1.9-13.87 23.5-10.22-25.31-26.64-5.92 20.91-17.54-2.59-27.17 23.14 14.47 25.04-10.86-6.61 26.48 18.07 20.45z" class="cls-8"/><path d="M281.48 411.71h211.13v195.31l-321.42 6.94 48.23-53.81 62.06-148.44z" style="fill:#fff;stroke-width:24.04px;stroke:#1c2854"/><path d="M492.61 989.1V607.02m-49.14 117.41h-61.51" style="fill:#d6d7df;stroke-linejoin:round;stroke-width:24.04px;stroke:#1c2854;stroke-linecap:round"/></svg>