<svg xmlns="http://www.w3.org/2000/svg" width="50" height="50" fill="none" viewBox="0 0 50 50"><path fill="#67DACC" d="M25 3.96c-4.745 0-13.147 2.318-16.833 11.157-3.546 8.502-6.12 18.566-6.205 23.02a.848.848 0 0 0 .43.766c1.795 1.002 5.683 2.078 9.85 2.34 4.536.285 10.395 1.078 12.758.96V3.96z"/><path fill="#67DACC" d="M25 3.96c4.52 0 13.147 2.318 16.833 11.157 3.546 8.502 6.12 18.566 6.205 23.02a.848.848 0 0 1-.43.766c-1.795 1.002-5.683 2.078-9.85 2.34-4.536.285-10.395 1.078-12.758.96V3.96z"/><path stroke="#17234C" stroke-width="2" d="M25 3.96c-4.745 0-13.147 2.318-16.833 11.157-3.546 8.502-6.12 18.566-6.205 23.02a.848.848 0 0 0 .43.766c1.795 1.002 5.683 2.078 9.85 2.34 4.536.285 10.395 1.078 12.758.96M25 3.96v38.242M25 3.96c4.52 0 13.147 2.318 16.833 11.157 3.546 8.502 6.12 18.566 6.205 23.02a.848.848 0 0 1-.43.766c-1.795 1.002-5.683 2.078-9.85 2.34-4.536.285-10.395 1.078-12.758.96"/><mask id="a" fill="#fff"><path fill-rule="evenodd" d="M24.99 47.16c7.68 0 14.099-6.71 15.672-15.67h.052c1.926 0 3.138-2.391 3.138-5.342 0-2.95-.697-5.342-3.487-5.342a.444.444 0 0 0-.166.055c-.765-2.831-2.027-5.379-3.658-7.482l1.624 3.06c-12.69.96-18.798-3.84-20.365-6.72h14.894c-2.287-1.559-4.912-2.446-7.704-2.446-7.076 0-13.082 5.696-15.213 13.601-.052-.044-.096-.068-.13-.068-2.79 0-3.488 2.392-3.488 5.342 0 2.95 1.213 5.342 3.139 5.342h.02c1.574 8.96 7.993 15.67 15.672 15.67z" clip-rule="evenodd"/></mask><path fill="#C89E8D" fill-rule="evenodd" d="M24.99 47.16c7.68 0 14.099-6.71 15.672-15.67h.052c1.926 0 3.138-2.391 3.138-5.342 0-2.95-.697-5.342-3.487-5.342a.444.444 0 0 0-.166.055c-.765-2.831-2.027-5.379-3.658-7.482l1.624 3.06c-12.69.96-18.798-3.84-20.365-6.72h14.894c-2.287-1.559-4.912-2.446-7.704-2.446-7.076 0-13.082 5.696-15.213 13.601-.052-.044-.096-.068-.13-.068-2.79 0-3.488 2.392-3.488 5.342 0 2.95 1.213 5.342 3.139 5.342h.02c1.574 8.96 7.993 15.67 15.672 15.67z" clip-rule="evenodd"/><path fill="#17234C" d="m40.662 31.49.056-2-1.727-.048-.3 1.701 1.97.346zm-.463-10.63-1.93.523.63 2.335 2.176-1.06-.876-1.797zm-3.658-7.48 1.581-1.226-3.347 2.163 1.766-.938zm1.624 3.06.151 1.994 3.05-.23-1.434-2.702-1.767.938zM17.8 9.72v-2h-3.365l1.608 2.956L17.8 9.72zm14.894 0v2h6.482L33.82 8.068 32.694 9.72zM9.777 20.874l-1.302 1.518 2.407 2.066.826-3.063-1.93-.52zm-.48 10.616v2h.01l-.01-2zm.021 0 1.97-.346-.292-1.662-1.687.008.009 2zm29.374-.346c-1.465 8.342-7.3 14.016-13.702 14.016v4c8.957 0 15.96-7.745 17.642-17.325l-3.94-.692zm2.022-1.654h.004l-.112 3.999.108.001v-4zm1.138-3.342c0 1.235-.258 2.208-.59 2.797-.325.578-.547.545-.548.545v4c1.925 0 3.272-1.228 4.034-2.584.757-1.344 1.104-3.042 1.104-4.758h-4zm-1.487-3.342c.406 0 .607.085.705.142.095.056.208.156.326.375.277.513.456 1.431.456 2.825h4c0-1.556-.17-3.309-.938-4.729-.405-.748-.99-1.43-1.81-1.915-.818-.483-1.75-.698-2.739-.698v4zm.71-.147a1.685 1.685 0 0 1-.348.112 1.847 1.847 0 0 1-.362.035v-4c-.534 0-.955.214-1.042.256l1.752 3.597zm-6.114-8.054c1.459 1.882 2.607 4.187 3.307 6.777l3.862-1.043c-.83-3.072-2.206-5.86-4.008-8.185l-3.161 2.45zm-.186-.288 1.623 3.06 3.534-1.874-1.624-3.061-3.533 1.875zm3.24.128c-12.204.924-17.392-3.721-18.458-5.68l-3.514 1.91c2.067 3.8 9.096 8.756 22.273 7.76l-.302-3.99zM17.8 11.72h14.894v-4H17.8v4zm7.19-2.447c2.355 0 4.592.745 6.577 2.1l2.254-3.305c-2.589-1.766-5.602-2.795-8.831-2.795v4zM11.708 21.395c1.974-7.32 7.377-12.122 13.282-12.122v-4c-8.247 0-14.855 6.59-17.144 15.08l3.862 1.042zm-2.062 1.411c-.417 0-.721-.134-.864-.208a1.617 1.617 0 0 1-.307-.206l2.604-3.036c-.1-.085-.626-.55-1.433-.55v4zM8.16 26.148c0-1.394.179-2.312.457-2.825.118-.219.23-.318.326-.375.097-.057.299-.142.704-.142v-4c-.989 0-1.92.215-2.739.698-.82.484-1.405 1.167-1.81 1.915-.768 1.42-.938 3.173-.938 4.73h4zm1.139 3.342c-.001 0-.224.033-.549-.545-.331-.589-.59-1.562-.59-2.797h-4c0 1.716.348 3.414 1.104 4.758.763 1.356 2.11 2.584 4.035 2.584v-4zm.01 0h-.02l.019 4h.02l-.018-4zM24.99 45.16c-6.402 0-12.237-5.674-13.702-14.016l-3.94.692C9.03 41.416 16.033 49.16 24.99 49.16v-4z" mask="url(#a)"/><mask id="b" fill="#fff"><path d="M41.03 29.354C40.683 37.9 33.85 47.16 24.99 47.16c-6.84 0-12.681-5.324-14.988-12.82-.68-2.213-1.053-2.477-1.053-4.987l12.99-3.749a11.001 11.001 0 0 1 6.101 0l12.99 3.75z"/></mask><path fill="#F5F6FA" d="M41.03 29.354C40.683 37.9 33.85 47.16 24.99 47.16c-6.84 0-12.681-5.324-14.988-12.82-.68-2.213-1.053-2.477-1.053-4.987l12.99-3.749a11.001 11.001 0 0 1 6.101 0l12.99 3.75z"/><path fill="#17234C" d="m41.03 29.354 2 .081.063-1.568-1.508-.435-.554 1.922zm-32.081 0-.555-1.922-1.445.417v1.505h2zm1.053 4.985 1.912-.588-1.912.588zm11.938-8.735-.555-1.921.555 1.921zm6.1 0 .555-1.921-.555 1.921zm10.992 3.668c-.155 3.803-1.768 7.835-4.358 10.899-2.584 3.058-5.988 4.989-9.684 4.989v4c5.163 0 9.605-2.698 12.74-6.407 3.128-3.703 5.106-8.574 5.3-13.318l-3.998-.163zM9.505 31.275l12.99-3.75-1.109-3.842-12.99 3.749 1.109 3.843zm17.982-3.75 12.99 3.75 1.11-3.843-12.991-3.75-1.11 3.844zM24.99 45.16c-5.71 0-10.945-4.482-13.076-11.409L8.09 34.927c2.482 8.068 8.928 14.233 16.899 14.233v-4zM11.914 33.751c-.182-.592-.344-1.054-.475-1.429a13.472 13.472 0 0 1-.289-.888c-.117-.432-.201-.937-.201-2.08h-4c0 1.366.102 2.248.341 3.128.11.407.245.791.372 1.156.13.376.27.776.429 1.29l3.823-1.177zm10.58-6.225a9 9 0 0 1 4.992 0l1.109-3.843a12.999 12.999 0 0 0-7.21 0l1.11 3.843z" mask="url(#b)"/><path stroke="#17234C" stroke-width="2" d="m11.739 28.997-2.093-8.19m28.595 8.19 2.093-8.19"/><circle cx="18.935" cy="22.2" r="1.92" fill="#17234C"/><circle cx="31.155" cy="22.2" r="1.92" fill="#17234C"/><path fill="#17234C" d="M24.065 26.04h1.88V46.2h-1.88z"/><path fill="#67DACC" d="M38.92 16.44c-13.155 1.92-20.033-4.32-21.6-7.2l5.28-3.36 1.44-.96h2.4c9.4 2.56 14.192 11.27 12.48 11.52z"/></svg>