<svg xmlns="http://www.w3.org/2000/svg" width="50" height="50" fill="none" viewBox="0 0 50 50"><path fill="#D7D8E0" stroke="#192754" stroke-width="2" d="M6 49V4.846h27.928l3.536 3.096 3.046 3.049V49H6z"/><path fill="#fff" stroke="#192754" stroke-width="2" d="M9.843 45.154V1h25.488l9.022 9.03v35.124H9.843z"/><path fill="#008881" d="M18.783 24.812V14.235h1.922v10.577zm3.844 0V14.235h1.922v10.577zm3.843 0V14.235h1.922v10.577zm3.843.001V14.236h1.922v10.577z"/><path fill="#008881" d="m19.435 22.513 10.892-8.29 1.388 1.927-11.028 8.665-1.252-2.302zm-.651 16.722V28.658h1.922v10.577zm3.843.001V28.659h1.922v10.577zm3.843 0V28.659h1.922v10.577z"/><path fill="#D7D8E0" d="m35.5 2.5-.005 7.25h7.186L35.5 2.5z"/><path stroke="#192754" stroke-width="2" d="M34.784.962v8.615a1 1 0 0 0 1 1h8.608"/></svg>