<svg xmlns="http://www.w3.org/2000/svg" id="Layer_1" width="50" height="50" viewBox="0 0 1250 1250"><defs><style>.cls-6{stroke-width:35.4px;stroke:#1c2854;fill:#d7d8e0}</style></defs><circle cx="627.9" cy="304.2" r="141.93" class="cls-6"/><path d="M627.9 498.66c-72.23 0-216.99 41.84-216.99 125.19v226.06c0 8.8 7.13 15.93 15.93 15.93h402.12c8.8 0 15.93-7.13 15.93-15.93V623.85c0-83.34-144.76-125.19-216.99-125.19Z" class="cls-6"/><path d="M630.19 828.52c-54.49-20.61-177.07-57.51-312.7-13.85-34.2 11.01-63.64 25.34-88.37 40.17-25.3 82.07-50.6 164.14-75.91 246.22a870.17 870.17 0 0 1 89.3-18.59c153.94-23.69 288.76-1.96 387.69 25.83 75.32-24.17 188.47-49.04 323.99-36.37 52.38 4.89 99.16 14.56 139.5 25.83-29.32-89-58.64-178-87.97-267-28.7-12.65-63.71-24.72-104.44-32.14-119.7-21.79-219.45 9.18-271.08 29.92Z" style="fill:#fff;stroke:#1c2854;stroke-width:35.4px"/><path d="M627.9 844.6v238.94" style="stroke-width:35.4px;fill:#d6d7df;stroke:#1b2954;stroke-linecap:round;stroke-linejoin:round"/><path d="M677.14 629.61v120.57h-98.49V629.61h98.49Z" style="stroke:#1c2854;fill:#ff6d2f;stroke-width:35.4px"/><path d="M298.72 901.72h216.32m-216.32 65.95h216.32m221.7-65.95h216.31m-216.31 65.95h216.31" style="fill:none;stroke:#008780;stroke-miterlimit:10;stroke-width:31.74px"/><path d="M578.66 629.61V498.66m98.48 130.95v-126.1" style="fill:#ee5c4a;stroke-width:35.4px;stroke:#1c2854"/></svg>