<svg width="50" height="50" viewBox="0 0 50 50" fill="none" xmlns="http://www.w3.org/2000/svg"><path d="M9 12.055h32.98v36.69H9v-36.69z" fill="#F4F6FF" stroke="#192754" stroke-width="2"/><path fill="#67DACC" stroke="#192754" stroke-width="2" d="M22.808 36.928h6.285v11.818h-6.285z"/><path d="M25 1h8.158l2.444 2.5L33.158 6H25V1z" fill="#FF6D2F" stroke="#192754" stroke-width="2"/><path fill="#D7D8E0" stroke="#192754" stroke-width="2" d="M14 17.582h4.444v4.449H14zm0 10.133h4.444v4.449H14zm0 9.213h4.444v4.449H14zm9.728-19.346h4.444v4.449h-4.444zm9.205 0h4.444v4.449h-4.444zm0 10.133h4.444v4.449h-4.444zm0 9.213h4.444v4.449h-4.444zm-9.205-9.213h4.444v4.449h-4.444z"/><path fill="#192754" d="M24 2h2v10h-2z"/></svg>