<svg xmlns="http://www.w3.org/2000/svg" id="Layer_1" width="50" height="50" viewBox="0 0 1070.49 1033.98"><defs><style>.cls-7{fill:#1c2854}</style></defs><path id="_Slice_" d="M579.67 1013.66h26.35v13.93h-26.35z" style="fill:none" transform="rotate(-88.52 592.804 1020.614)"/><path d="M24.17 100.66v763.85l378.67-57.01c118.05 19 236.1 38.01 354.16 57.01 96.44-12.35 192.88-24.71 289.32-37.06V32.25c-90.99 26.61-181.98 53.2-272.98 79.81L397.39 46.51C272.98 64.56 148.57 82.62 24.17 100.66Z" style="fill:#d6d7e0"/><path d="M0 892.58V79.74l20.7-3c62.2-9.02 124.41-18.05 186.61-27.08 62.2-9.03 124.41-18.05 186.61-27.08l3.82-.55 374.21 65.25 133.61-39.06L1070.49 0v848.72l-313.89 40.2-3.45-.55-177.08-28.5c-57.79-9.3-115.57-18.61-173.36-27.91L0 892.58Zm402.96-109.54 3.72.6 177.08 28.5c57.88 9.32 115.75 18.63 173.63 27.95l264.76-33.91V64.49L919.12 94.61c-46.33 13.54-92.67 27.09-139 40.64l-5.4 1.58-377.69-65.86-182.79 26.52c-55.31 8.03-110.61 16.05-165.91 24.07v714.86l354.63-53.39Z" style="fill:#17244c"/><path d="M560.3 74.06 531.56 261.4 391.03 386.85 556.86 625.5 793.5 428.01h252.82l-9.08-389.69-254.63 73.62L560.3 74.06z" style="fill:#ff6d2f"/><path d="M552.53 657.59 362.04 383.44l149.11-133.11 30.92-201.55 239.29 40.78 277.07-80.12 10.27 440.42H801.43L552.54 657.58ZM420.02 390.28l141.16 203.15 224.39-187.27h238.37l-7.9-338.95-232.17 67.12-205.34-34.99-26.56 173.14-131.95 117.79Z" class="cls-7"/><path d="m24.17 858.4 366.86-55.23 53.55 4.93 103.98-183.12-157.53-232.37-366.86 93.06V858.4z" style="fill:#67dacc"/><path d="M2.19 883.94V468.57l398.39-101.05 173.85 256.44L456.7 831.3l-65.02-5.99L2.19 883.94Zm43.96-381.17v330.09l344.25-51.82 42.08 3.88 90.23-158.91-141.21-208.3-335.35 85.06Z" class="cls-7"/><path d="m857.46 716.74-11.14-42.53 72.67-19.03 11.14 42.53-72.67 19.03Zm-85.42-5.64-68.11-31.71 18.55-39.86 68.11 31.71-18.55 39.86Zm230.76-32.43-11.14-42.53 11.81-3.09 38-20.12 20.57 38.85-42.5 22.5-16.74 4.38Zm-363.05-54.98-37.09-65.33 38.23-21.71 37.09 65.33-38.23 21.71Zm-74.19-130.66-37.09-65.33 38.23-21.71 37.09 65.33-38.23 21.71ZM493.8 373.27l-61.58-43.02 25.18-36.04 61.58 43.02-25.18 36.04Zm-123.17-86.05-38.46-26.87-22.71-12.72 21.48-38.36 24.62 13.79 40.25 28.12-25.18 36.04ZM52.95 262.34l-15.18-41.26 70.5-25.95 15.18 41.26-70.5 25.95Zm190.97-51.41-20.33-11.39-29.63 10.91-15.18-41.26 48.63-17.9 38 21.28-21.48 38.36Z" style="fill:#fff"/><path d="M0 892.58V79.74l20.7-3c62.2-9.02 124.41-18.05 186.61-27.08 62.2-9.03 124.41-18.05 186.61-27.08l3.82-.55 374.21 65.25 133.61-39.06L1070.49 0v848.72l-313.89 40.2-3.45-.55-177.08-28.5c-57.79-9.3-115.57-18.61-173.36-27.91L0 892.58Zm402.96-109.54 3.72.6 177.08 28.5c57.88 9.32 115.75 18.63 173.63 27.95l264.76-33.91V64.49L919.12 94.61c-46.33 13.54-92.67 27.09-139 40.64l-5.4 1.58-377.69-65.86-182.79 26.52c-55.31 8.03-110.61 16.05-165.91 24.07v714.86l354.63-53.39Z" class="cls-7"/></svg>