<svg xmlns="http://www.w3.org/2000/svg" width="50" height="50" fill="none" viewBox="0 0 50 50"><path fill="#D7D8E0" stroke="#192754" stroke-width="2" d="M20.178 37.948h9.644l1.225 8.4H18.953l1.225-8.4z"/><mask id="a" fill="#fff"><rect width="50" height="35.621" y="3" rx="1"/></mask><rect width="50" height="35.621" y="3" fill="#D7D8E0" stroke="#192754" stroke-width="4" mask="url(#a)" rx="1"/><mask id="b" fill="#fff"><rect width="50" height="28.836" y="3" rx="1"/></mask><rect width="50" height="28.836" y="3" fill="#fff" stroke="#192754" stroke-width="4" mask="url(#b)" rx="1"/><path fill="#F4F6FF" stroke="#008881" stroke-width="2" d="M22.729 17.842a7.902 7.902 0 0 1-7.899 7.905c-4.361 0-7.898-3.538-7.898-7.905 0-4.367 3.537-7.905 7.898-7.905a7.902 7.902 0 0 1 7.899 7.905z"/><path fill="#FF6D2F" d="m13.36 21.945-3.323-3.295 1.341-1.327 1.983 1.958 4.913-4.867 1.34 1.327-6.253 6.204z"/><path fill="#008881" d="M27.119 13.178h16.102v2H27.119zm0 4.24h16.102v2H27.119zm0 4.24h16.102v2H27.119z"/><path fill="#192754" d="M15.254 46.5c0-.468.38-.848.848-.848h17.796a.848.848 0 0 1 0 1.696H16.102a.848.848 0 0 1-.848-.848zm7.627-12.968h4.237v1.696h-4.237z"/></svg>