<svg xmlns="http://www.w3.org/2000/svg" width="53" height="50" fill="none" viewBox="0 0 53 50"><path fill="#F4F6FF" d="M3 8a1 1 0 0 1 1-1h42a1 1 0 0 1 1 1v29.401a1 1 0 0 1-1 1H4a1 1 0 0 1-1-1V8z"/><path fill="#192754" fill-rule="evenodd" d="M5 10.425v25.976h40v-25.98l-18.668 16.71a2 2 0 0 1-2.668 0L5 10.425zM43.59 9H6.406l18.59 16.64L43.59 9zM3 8a1 1 0 0 1 1-1h42a1 1 0 0 1 1 1v29.401a1 1 0 0 1-1 1H4a1 1 0 0 1-1-1V8z" clip-rule="evenodd"/><path stroke="#192754" stroke-width="2" d="m3.846 37.449 14.808-15.225m27.077 14.749-15.654-14.75"/><path fill="#fff" stroke="#008881" stroke-width="2" d="M52 34.999C52 40.523 47.526 45 42.008 45c-5.519 0-9.993-4.477-9.993-10.001 0-5.524 4.474-10.001 9.992-10.001 5.519 0 9.993 4.477 9.993 10z"/><path fill="#FF6D2F" d="m40.196 40.075-4.108-4.072 1.658-1.64 2.45 2.42 6.073-6.016 1.657 1.64-7.73 7.669z"/></svg>