<svg xmlns="http://www.w3.org/2000/svg" width="50" height="50" fill="none" viewBox="0 0 50 50"><path fill="#fff" stroke="#192754" stroke-width="2" d="M6 8.143h37.796V49H6V8.143z"/><path fill="#008881" d="M21.387 29.045h17.347v2.041H21.387zm0 9.111h17.347v2.041H21.387zm0-5.466h17.347v2.041H21.387z"/><path fill="#FF6D2F" stroke="#192754" stroke-width="2" d="M11.462 29.134h5.283v5.289h-5.283z"/><path fill="#D7D8E0" stroke="#192754" stroke-width="2" d="M11.462 38.245h5.283v5.289h-5.283z"/><path fill="#008881" d="M21.387 41.8h17.347v2.041H21.387z"/><mask id="a" fill="#fff"><path fill-rule="evenodd" d="M25.138 0a4.45 4.45 0 0 0-4.45 4.45v.105h-1.654a3 3 0 0 0-3 3v4.289h18.208V7.555a3 3 0 0 0-3-3h-1.653v-.104A4.45 4.45 0 0 0 25.139 0z" clip-rule="evenodd"/></mask><path fill="#D7D8E0" fill-rule="evenodd" d="M25.138 0a4.45 4.45 0 0 0-4.45 4.45v.105h-1.654a3 3 0 0 0-3 3v4.289h18.208V7.555a3 3 0 0 0-3-3h-1.653v-.104A4.45 4.45 0 0 0 25.139 0z" clip-rule="evenodd"/><path fill="#192754" d="M20.687 4.555v2h2v-2h-2zm-4.653 7.289h-2v2h2v-2zm18.208 0v2h2v-2h-2zm-4.653-7.289h-2v2h2v-2zm-6.902-.104A2.45 2.45 0 0 1 25.138 2v-4a6.45 6.45 0 0 0-6.45 6.45h4zm0 .104v-.104h-4v.104h4zm-3.653 2h1.653v-4h-1.653v4zm-1 1a1 1 0 0 1 1-1v-4a5 5 0 0 0-5 5h4zm0 4.289V7.555h-4v4.289h4zm16.208-2H16.034v4h18.208v-4zm-2-2.289v4.289h4V7.555h-4zm-1-1a1 1 0 0 1 1 1h4a5 5 0 0 0-5-5v4zm-1.653 0h1.653v-4h-1.653v4zm-2-2.104v.104h4v-.104h-4zM25.139 2a2.45 2.45 0 0 1 2.45 2.45h4A6.45 6.45 0 0 0 25.139-2v4z" mask="url(#a)"/><path fill="#F4F6FF" stroke="#192754" stroke-width="2" d="M17.438 20.852c-.084-.12-.158-.231-.223-.33a14.91 14.91 0 0 1 1.948-2.256c1.483-1.398 3.517-2.689 5.945-2.689 2.428 0 4.462 1.29 5.944 2.689a14.905 14.905 0 0 1 1.964 2.28 11.552 11.552 0 0 1-1.723 2.207c-1.36 1.357-3.389 2.668-6.185 2.668-2.612 0-4.644-1.3-6.066-2.679a13.109 13.109 0 0 1-1.604-1.89zm-.521-.823z"/><ellipse cx="25.108" cy="20.499" fill="#008881" rx="2.761" ry="2.764"/></svg>