<svg xmlns="http://www.w3.org/2000/svg" width="50" height="50" viewBox="0 0 1250 1250"><path d="M183.98 114.8h879.45v1030.21H183.98V114.8Z" style="stroke:#1c2854;stroke-width:43.56px;fill:#fff"/><path d="M347.89 297.78h154.2v154.38h-154.2V297.78Zm0 270.44h154.2V722.6h-154.2V568.22Zm0 270.44h154.2v154.38h-154.2V838.66Zm369.85-544.25h154.2v154.38h-154.2V294.41Zm0 270.45h154.2v154.38h-154.2V564.86Zm0 270.44h154.2v154.38h-154.2V835.3Z" style="stroke:#1c2854;stroke-width:43.56px;fill:#d7d8e0"/><path d="m431.25 420.25-65.84-65.28 26.57-26.3 39.28 38.79 97.35-96.43 26.57 26.3-123.91 122.91Zm0 270.44-65.84-65.28 26.57-26.3 39.28 38.79 97.35-96.43 26.57 26.3-123.91 122.91Zm0 270.44-65.84-65.28 26.57-26.3 39.28 38.79 97.35-96.43 26.57 26.3-123.91 122.91Z" style="fill:#ff6d2f"/></svg>
