<svg xmlns="http://www.w3.org/2000/svg" id="Layer_1" width="50" height="50" viewBox="0 0 1250 1250"><defs><style>.cls-1,.cls-2,.cls-4{stroke-width:43.08px}.cls-1,.cls-2{fill:none;stroke-miterlimit:10}.cls-1{stroke:#ff6d2f;stroke-linecap:square}.cls-2{stroke:#67dacc}.cls-4{fill:#d7d8e0;stroke:#1c2854}</style></defs><path d="M120.31 138.96h1001.97v1001.97H120.31V138.96Z" style="fill:#fff;stroke-width:45.85px;stroke:#1c2854"/><circle cx="916.66" cy="747.13" r="71.26" class="cls-4"/><path d="M916.66 858.93c-36.27 0-108.95 21.01-108.95 62.86v113.51c0 4.42 3.58 8 8 8h201.91c4.42 0 8-3.58 8-8V921.79c0-41.84-72.69-62.86-108.95-62.86Z" class="cls-4"/><path d="M231.62 681.64c41.19 24.07 82.38 48.15 123.57 72.23l196.07-278.54 179.73 40.51c74.58-88.56 149.15-177.13 223.73-265.69" style="opacity:.8;stroke:#ff6d2f;stroke-linecap:square;fill:none;stroke-miterlimit:10;stroke-width:43.08px"/><circle cx="553.76" cy="475.32" r="15.42" class="cls-1"/><circle cx="736.55" cy="512.44" r="15.42" class="cls-1"/><circle cx="954.71" cy="250.15" r="15.42" class="cls-1"/><circle cx="353.98" cy="753.86" r="15.42" class="cls-1"/><path d="m325.02 609.58 265.65 169.05 72.45-105 114.71 8.92L925.75 459.9" style="opacity:.8;stroke:#67dacc;fill:none;stroke-miterlimit:10;stroke-width:43.08px"/><circle cx="323.14" cy="612.58" r="15.42" class="cls-2"/><circle cx="588.68" cy="784.7" r="15.42" class="cls-2"/><circle cx="665.74" cy="676.55" r="15.42" class="cls-2"/><circle cx="925.76" cy="459.9" r="15.42" class="cls-2"/><circle cx="216.2" cy="676.55" r="15.42" class="cls-1"/><circle cx="478.89" cy="712.51" r="15.42" class="cls-2"/></svg>
