<svg width="159" height="212" viewBox="0 0 159 212" fill="none" xmlns="http://www.w3.org/2000/svg"><path d="M7.605 114.081h143.552V212H7.605v-97.919z" fill="#F4F6FF" fill-opacity=".93"/><path fill="#46B0C7" d="M0 101.723h158.762v13.309H0z"/><path d="M16.283 79.857H142.48l16.283 21.865H0l16.283-21.865z" fill="#55D5F1"/><path d="M37.597 87.462h83.567l3.373 6.655H34.224l3.373-6.655z" fill="#317C8C"/><path fill="#C4C4C4" fill-opacity=".62" d="M7.605 115.032h143.551v9.507H7.605z"/><path d="M56.206 144.154l-7.854 23.364H38.88l-7.854-23.364h7.788l4.818 16.071 4.785-16.071h7.788zm15.025 23.595c-2.2 0-4.224-.517-6.072-1.551a11.644 11.644 0 01-4.356-4.29c-1.078-1.826-1.617-3.883-1.617-6.171 0-2.288.539-4.345 1.617-6.171 1.078-1.826 2.53-3.245 4.356-4.257 1.848-1.034 3.872-1.551 6.072-1.551s4.213.517 6.039 1.551a11.163 11.163 0 014.323 4.257c1.078 1.826 1.617 3.883 1.617 6.171 0 2.288-.54 4.345-1.617 6.171a11.334 11.334 0 01-4.356 4.29c-1.826 1.034-3.828 1.551-6.006 1.551zm0-6.831c1.452 0 2.574-.462 3.366-1.386.792-.946 1.188-2.211 1.188-3.795 0-1.606-.396-2.871-1.188-3.795-.792-.946-1.914-1.419-3.366-1.419-1.474 0-2.607.473-3.4 1.419-.791.924-1.187 2.189-1.187 3.795 0 1.584.396 2.849 1.188 3.795.792.924 1.925 1.386 3.399 1.386zm34.97-16.764v5.808h-6.204v17.556H92.67v-17.556h-6.138v-5.808H106.2zm11.313 5.841v2.871h7.26v5.511h-7.26v3.3h8.25v5.841h-15.576v-23.364h15.576v5.841h-8.25z" fill="#E55947"/><path d="M34.868 178.525a.4.4 0 01.745 0l1.723 4.414a.4.4 0 00.35.254l4.73.275a.4.4 0 01.231.709l-3.666 3.003a.4.4 0 00-.133.411l1.2 4.584a.4.4 0 01-.602.438l-3.99-2.559a.402.402 0 00-.431 0l-3.99 2.559a.4.4 0 01-.602-.438l1.2-4.584a.4.4 0 00-.133-.411l-3.666-3.003a.4.4 0 01.23-.709l4.731-.275a.4.4 0 00.35-.254l1.723-4.414zm20.379-.001a.4.4 0 01.745 0l1.723 4.414a.4.4 0 00.35.254l4.73.275a.4.4 0 01.231.709l-3.666 3.003a.399.399 0 00-.133.41l1.2 4.585a.4.4 0 01-.603.438l-3.989-2.559a.402.402 0 00-.432 0l-3.989 2.559a.4.4 0 01-.602-.438l1.2-4.585a.399.399 0 00-.133-.41l-3.666-3.003a.4.4 0 01.23-.709l4.731-.275a.4.4 0 00.35-.254l1.723-4.414zm22.727 0a.4.4 0 01.746 0l1.723 4.414a.4.4 0 00.35.254l4.73.275a.4.4 0 01.23.709l-3.665 3.003a.399.399 0 00-.134.41l1.2 4.585a.4.4 0 01-.602.438l-3.99-2.559a.402.402 0 00-.431 0l-3.989 2.559a.4.4 0 01-.603-.438l1.2-4.585a.399.399 0 00-.133-.41l-3.666-3.003a.4.4 0 01.23-.709l4.732-.275a.4.4 0 00.35-.254l1.722-4.414zm21.162 0a.4.4 0 01.746 0l1.723 4.414a.4.4 0 00.349.254l4.731.275a.4.4 0 01.231.709l-3.666 3.003a.4.4 0 00-.134.41l1.201 4.585a.4.4 0 01-.603.438l-3.989-2.559a.402.402 0 00-.432 0l-3.989 2.559a.4.4 0 01-.603-.438l1.2-4.585a.399.399 0 00-.133-.41l-3.666-3.003a.4.4 0 01.23-.709l4.732-.275a.4.4 0 00.35-.254l1.722-4.414zm21.163 0a.4.4 0 01.745 0l1.723 4.414a.4.4 0 00.349.254l4.732.275a.4.4 0 01.23.709l-3.666 3.003a.4.4 0 00-.134.41l1.201 4.585a.4.4 0 01-.603.438l-3.989-2.559a.402.402 0 00-.432 0l-3.989 2.559a.4.4 0 01-.603-.438l1.201-4.585a.4.4 0 00-.133-.41l-3.667-3.003a.4.4 0 01.231-.709l4.731-.275a.4.4 0 00.349-.254l1.724-4.414z" fill="#45ADC4"/><mask id="a" mask-type="alpha" maskUnits="userSpaceOnUse" x="23" y="0" width="134" height="95"><path fill="#C4C4C4" d="M23.767 0h133.094v94.116H23.767z"/></mask><g mask="url(#a)"><rect x="27.962" y="60.036" width="109.44" height="62.231" rx="1" transform="rotate(-31.317 27.962 60.036)" fill="#fff"/><path d="M49.29 69.704a1 1 0 01.335-1.374l21.828-13.28a1 1 0 011.374.334l12.884 21.175a1 1 0 01-.335 1.374l-21.828 13.28a1 1 0 01-1.375-.334L49.29 69.704z" fill="#F4F6FF"/><path fill-rule="evenodd" clip-rule="evenodd" d="M52.893 69.854L63.697 87.61l18.411-11.2-10.804-17.758-18.411 11.202zm-3.268-1.524a1 1 0 00-.335 1.374L62.173 90.88a1 1 0 001.375.335l21.828-13.281a1 1 0 00.335-1.374L72.828 55.384a1 1 0 00-1.375-.335L49.625 68.33z" fill="#192754"/><rect x="82.212" y="51.643" width="43.623" height="4.592" rx="1" transform="rotate(-31.317 82.212 51.643)" fill="#3A3ADA"/><rect x="86.726" y="59.132" width="43.623" height="4.592" rx="1" transform="rotate(-31.317 86.726 59.132)" fill="#3A3ADA"/><rect x="90.619" y="66.708" width="43.623" height="4.592" rx="1" transform="rotate(-31.317 90.62 66.708)" fill="#3A3ADA"/><path d="M73.336 79.03a1 1 0 01-1.22.743l-13.504-3.434a1 1 0 01-.727-1.2l.775-3.277a1 1 0 011.219-.739l8.248 2.094a1 1 0 001.22-.742l5.112-21.986a1 1 0 011.217-.744l3.266.819a1 1 0 01.73 1.196l-6.336 27.27z" fill="#EE5C4A"/></g></svg>