<svg width="32" height="32" viewBox="0 0 32 32" fill="none" xmlns="http://www.w3.org/2000/svg"><circle cx="16" cy="16" r="15.5" stroke="#00439D"/><path d="M22.824 12.967c0 .784-.279 1.831-.764 3.04-.48 1.197-1.145 2.507-1.876 3.804-1.462 2.593-3.169 5.096-4.14 6.47a.451.451 0 01-.749 0c-.97-1.374-2.678-3.877-4.14-6.47-.73-1.297-1.395-2.607-1.876-3.805-.485-1.208-.763-2.255-.763-3.039 0-4.143 3.221-7.467 7.154-7.467 3.932 0 7.154 3.324 7.154 7.467z" fill="#fff" stroke="#00439D"/><circle cx="15.515" cy="12.81" r="2.716" stroke="#00439D"/></svg>